G04 #@! TF.FileFunction,Soldermask,Bot*
%FSLAX46Y46*%
G04 Gerber Fmt 4.6, Leading zero omitted, Abs format (unit mm)*
G04 Created by KiCad (PCBNEW 4.0.6) date 05/06/17 23:30:14*
%MOMM*%
%LPD*%
G01*
G04 APERTURE LIST*
%ADD10C,0.100000*%
%ADD11R,2.100000X2.100000*%
%ADD12O,2.100000X2.100000*%
%ADD13C,1.300000*%
%ADD14C,6.400000*%
G04 APERTURE END LIST*
D10*
D11*
X93752000Y57540000D03*
D12*
X96292000Y57540000D03*
X93752000Y55000000D03*
X96292000Y55000000D03*
X93752000Y52460000D03*
X96292000Y52460000D03*
D13*
X75600000Y5700000D03*
X80000000Y5700000D03*
D14*
X12500000Y72000000D03*
X93000000Y81000000D03*
X93000000Y7000000D03*
X6100000Y22700000D03*
D11*
X5400000Y47200000D03*
D12*
X7940000Y47200000D03*
X10480000Y47200000D03*
D11*
X93752000Y71540000D03*
D12*
X96292000Y71540000D03*
X93752000Y69000000D03*
X96292000Y69000000D03*
X93752000Y66460000D03*
X96292000Y66460000D03*
D11*
X93752000Y43540000D03*
D12*
X96292000Y43540000D03*
X93752000Y41000000D03*
X96292000Y41000000D03*
X93752000Y38460000D03*
X96292000Y38460000D03*
D11*
X93752000Y29540000D03*
D12*
X96292000Y29540000D03*
X93752000Y27000000D03*
X96292000Y27000000D03*
X93752000Y24460000D03*
X96292000Y24460000D03*
D11*
X45740000Y87000000D03*
D12*
X43200000Y87000000D03*
X40660000Y87000000D03*
D11*
X59740000Y87000000D03*
D12*
X57200000Y87000000D03*
X54660000Y87000000D03*
D11*
X73740000Y87000000D03*
D12*
X71200000Y87000000D03*
X68660000Y87000000D03*
D11*
X87740000Y87000000D03*
D12*
X85200000Y87000000D03*
X82660000Y87000000D03*
D11*
X17740000Y87000000D03*
D12*
X15200000Y87000000D03*
X12660000Y87000000D03*
D11*
X31740000Y87000000D03*
D12*
X29200000Y87000000D03*
X26660000Y87000000D03*
D11*
X5350000Y69670000D03*
D12*
X2810000Y69670000D03*
X5350000Y72210000D03*
X2810000Y72210000D03*
X5350000Y74750000D03*
X2810000Y74750000D03*
X5350000Y77290000D03*
X2810000Y77290000D03*
X5350000Y79830000D03*
X2810000Y79830000D03*
D11*
X61000000Y2460000D03*
D12*
X61000000Y5000000D03*
X63540000Y2460000D03*
X63540000Y5000000D03*
D11*
X24460000Y2460000D03*
D12*
X24460000Y5000000D03*
X27000000Y2460000D03*
X27000000Y5000000D03*
X29540000Y2460000D03*
X29540000Y5000000D03*
D11*
X52620000Y2600000D03*
D12*
X50080000Y2600000D03*
X47540000Y2600000D03*
X45000000Y2600000D03*
X42460000Y2600000D03*
X39920000Y2600000D03*
M02*
