M48
INCH,TZ
T1C0.016
T2C0.024
T3C0.039
T4C0.118
T5C0.035
%
G90
G05
T1
X748Y20906
X1378Y12795
X1378Y12402
X1378Y12008
X1378Y11614
X1378Y11220
X1378Y10827
X1772Y10827
X2165Y20669
X2165Y10827
X2362Y6496
X2362Y6102
X2362Y5709
X2362Y5315
X2362Y4921
X2362Y4528
X2362Y4134
X2559Y10827
X2756Y6496
X2756Y6102
X2756Y5709
X2756Y5315
X2756Y4921
X2756Y4528
X2756Y4134
X2953Y10827
X3071Y24803
X3071Y22756
X3346Y10827
X3346Y6496
X3346Y6102
X3346Y4528
X3346Y4134
X3740Y12795
X3740Y12402
X3740Y12008
X3740Y11634
X3740Y11220
X3740Y10827
X3740Y6496
X3740Y6102
X3740Y4528
X3740Y4134
X4134Y6496
X4134Y6102
X4134Y4528
X4134Y4134
X4528Y6496
X4528Y6102
X4528Y4528
X4528Y4134
X4941Y16339
X5512Y18110
X5512Y10039
X5610Y9646
X5610Y9252
X5610Y8858
X5610Y8465
X5906Y23465
X5906Y22362
X5906Y21969
X5945Y20827
X5984Y33071
X5984Y31890
X6063Y21654
X6102Y8858
X6102Y8465
X6457Y21654
X6693Y18110
X6732Y2008
X6850Y21654
X7087Y24409
X7772Y30637
X7874Y18110
X8425Y27323
X8720Y23169
X8720Y22776
X8720Y22382
X8720Y21988
X8720Y21594
X9372Y28837
X9409Y22835
X9449Y22441
X9843Y26457
X9843Y22441
X10172Y14337
X10197Y17717
X10197Y16535
X10236Y22441
X10433Y24606
X10433Y23228
X10433Y22835
X10866Y26457
X10972Y4137
X11024Y13780
X11072Y14337
X11220Y31929
X11372Y30637
X11476Y15886
X11496Y33071
X11654Y2795
X11872Y30437
X12205Y24370
X12272Y31337
X12441Y17717
X12598Y9449
X12672Y14937
X12872Y29837
X12872Y10537
X13072Y14937
X13172Y10237
X13268Y26850
X13307Y3701
X13346Y2795
X13386Y7480
X13386Y6299
X13386Y5118
X13472Y14937
X13472Y9937
X13772Y9637
X13780Y30709
X14072Y1837
X14372Y9337
X14472Y2137
X14567Y24409
X14572Y15537
X14606Y22835
X14606Y4724
X14672Y10837
X14872Y2437
X14882Y19173
X15072Y11637
X15243Y14637
X15557Y14637
X15572Y6037
X15591Y13307
X15827Y12480
X15872Y14637
X15872Y6437
X15945Y4606
X16172Y14737
X16172Y6837
X16181Y19173
X16181Y11614
X16339Y26575
X16339Y22677
X16472Y7237
X16535Y24409
X17008Y33386
X17008Y32402
X17087Y7874
X17165Y4646
X17272Y5637
X17520Y12362
X17520Y11614
X17559Y13228
X17953Y5157
X18072Y19337
X18268Y7835
X18472Y19337
X18622Y2008
X18872Y25137
X18872Y19337
X19134Y5157
X19272Y25937
X19272Y19337
X19272Y4137
X19331Y29173
X19331Y26614
X19685Y15984
X19772Y11737
X19803Y25197
X19921Y12402
X20276Y24606
X20315Y29173
X20315Y26614
X20748Y14252
X20827Y20945
X20827Y19815
X21142Y3780
X21260Y13386
X21260Y12598
X21299Y1969
X21339Y29173
X21339Y26614
X21872Y16237
X21872Y15922
X21872Y15607
X21872Y15292
X21890Y2441
X22087Y20937
X22172Y9037
X22172Y8637
X22172Y8237
X22172Y7837
X22323Y26614
X22362Y32874
X22559Y4567
X22559Y2638
X22598Y25197
X22603Y24606
X22835Y29173
X23228Y19685
X23504Y26614
X23925Y17737
X23976Y4567
X24325Y23537
X24325Y17337
X24331Y16929
X24409Y3937
X24490Y16537
X24724Y24646
X24921Y23622
X24921Y13583
X25125Y22637
X25197Y16929
X25525Y20537
X25672Y8837
X25672Y8437
X25672Y8037
X25672Y7637
X25672Y7237
X25672Y6837
X25672Y6437
X25672Y6037
X25672Y5637
X25866Y1969
X25925Y22737
X25925Y20537
X26378Y3937
X26654Y23583
X26779Y14837
X26779Y9337
X27179Y14837
X27179Y10237
X27425Y19137
X27425Y18137
X27579Y14837
X27579Y9937
X27638Y29173
X27672Y26637
X27795Y21260
X27795Y2756
X27795Y1969
X27795Y1063
X27979Y14837
X27979Y9637
X28228Y17323
X28268Y23661
X28504Y17756
X28631Y16537
X28661Y32795
X28672Y26637
X28701Y29173
X29094Y20472
X29134Y22047
X29134Y14567
X29528Y9606
X29672Y26637
X29685Y29173
X29685Y29173
X30591Y5039
X30672Y26637
X30709Y22047
X30709Y20472
X30709Y19134
X31131Y16037
X31181Y29173
X31496Y14606
X31496Y12598
X31496Y9606
X31731Y15637
X31732Y26654
X32283Y4331
X32323Y24409
X32323Y22087
X33071Y4331
X33231Y18437
X33543Y33031
X33543Y31693
X33543Y9606
X33631Y18937
X33858Y4331
X33858Y3543
X33858Y2756
X33858Y1969
X33858Y1063
X34031Y18937
X34031Y17703
X34031Y6437
X34173Y26220
X34431Y6037
X34441Y17728
X34646Y22047
X34764Y23858
X34833Y17736
X34833Y5638
X35231Y11037
X35231Y7637
X35631Y11037
X35631Y7237
X35984Y26142
X35984Y17953
X36024Y20630
X36024Y15118
X36031Y11037
X36031Y6837
X38189Y24016
T2
X5945Y3543
X6299Y25827
X11972Y23543
X11972Y11337
X11972Y8837
X13228Y22717
X14572Y30037
X16535Y30039
X16672Y9026
X18307Y30039
X19772Y23537
X22672Y21637
X24072Y3237
X25134Y30037
X26372Y11637
X31731Y20237
X33331Y30037
T3
X1106Y31429
X1106Y30429
X1106Y29429
X1106Y28429
X1106Y27429
X2106Y31429
X2106Y30429
X2106Y29429
X2106Y28429
X2106Y27429
X2126Y18583
X3126Y18583
X4126Y18583
X4984Y34252
X5984Y34252
X6984Y34252
X9630Y1969
X9630Y969
X10496Y34252
X10630Y1969
X10630Y969
X11496Y34252
X11630Y1969
X11630Y969
X12496Y34252
X15717Y1024
X16008Y34252
X16717Y1024
X17008Y34252
X17717Y1024
X18008Y34252
X18717Y1024
X19717Y1024
X20717Y1024
X21520Y34252
X22520Y34252
X23520Y34252
X24016Y1969
X24016Y969
X25016Y1969
X25016Y969
X27031Y34252
X28031Y34252
X29031Y34252
X32543Y34252
X33543Y34252
X34543Y34252
X36910Y28165
X36910Y27165
X36910Y26165
X36910Y22654
X36910Y21654
X36910Y20654
X36910Y17142
X36910Y16142
X36910Y15142
X36910Y11630
X36910Y10630
X36910Y9630
X37910Y28165
X37910Y27165
X37910Y26165
X37910Y22654
X37910Y21654
X37910Y20654
X37910Y17142
X37910Y16142
X37910Y15142
X37910Y11630
X37910Y10630
X37910Y9630
T4
X2402Y8937
X4921Y28346
X36614Y31890
X36614Y2756
T5
X29764Y2244
X31496Y2244
T0
M30
