G04 #@! TF.FileFunction,Soldermask,Top*
%FSLAX46Y46*%
G04 Gerber Fmt 4.6, Leading zero omitted, Abs format (unit mm)*
G04 Created by KiCad (PCBNEW 4.0.6) date 05/06/17 23:30:14*
%MOMM*%
%LPD*%
G01*
G04 APERTURE LIST*
%ADD10C,0.100000*%
%ADD11R,1.900000X0.850000*%
%ADD12R,1.500000X2.300000*%
%ADD13R,1.900000X0.700000*%
%ADD14R,0.700000X1.900000*%
%ADD15R,2.100000X2.100000*%
%ADD16O,2.100000X2.100000*%
%ADD17R,1.200000X1.150000*%
%ADD18R,3.900000X2.000000*%
%ADD19R,1.150000X1.200000*%
%ADD20R,2.900000X4.400000*%
%ADD21R,2.900000X2.200000*%
%ADD22R,2.900000X2.700000*%
%ADD23R,1.200000X1.200000*%
%ADD24R,0.850000X1.100000*%
%ADD25R,0.900000X2.700000*%
%ADD26R,2.400000X2.900000*%
%ADD27C,1.300000*%
%ADD28C,6.400000*%
%ADD29R,1.400000X1.650000*%
%ADD30R,1.900000X4.600000*%
%ADD31R,1.300000X1.200000*%
%ADD32R,1.300000X0.900000*%
%ADD33R,1.100000X1.700000*%
%ADD34R,0.900000X1.300000*%
%ADD35R,1.000000X1.950000*%
%ADD36R,1.460000X1.050000*%
%ADD37R,0.800000X1.050000*%
%ADD38R,0.908000X1.543000*%
%ADD39R,2.900000X2.300000*%
%ADD40R,1.050000X1.250000*%
%ADD41R,1.300000X0.800000*%
%ADD42R,0.800000X1.300000*%
%ADD43R,1.200000X1.300000*%
G04 APERTURE END LIST*
D10*
D11*
X67750000Y53829000D03*
X67750000Y54479000D03*
X67750000Y55129000D03*
X67750000Y55779000D03*
X67750000Y56429000D03*
X67750000Y57079000D03*
X67750000Y57729000D03*
X67750000Y58379000D03*
X61850000Y58379000D03*
X61850000Y57729000D03*
X61850000Y57079000D03*
X61850000Y56429000D03*
X61850000Y55779000D03*
X61850000Y55129000D03*
X61850000Y54479000D03*
X61850000Y53829000D03*
D12*
X51230000Y46380000D03*
X54630000Y46380000D03*
D13*
X36380000Y37210000D03*
X36380000Y36710000D03*
X36380000Y36210000D03*
X36380000Y35710000D03*
X36380000Y35210000D03*
X36380000Y34710000D03*
X36380000Y34210000D03*
X36380000Y33710000D03*
X36380000Y33210000D03*
X36380000Y32710000D03*
X36380000Y32210000D03*
X36380000Y31710000D03*
X36380000Y31210000D03*
X36380000Y30710000D03*
X36380000Y30210000D03*
X36380000Y29710000D03*
D14*
X38330000Y27760000D03*
X38830000Y27760000D03*
X39330000Y27760000D03*
X39830000Y27760000D03*
X40330000Y27760000D03*
X40830000Y27760000D03*
X41330000Y27760000D03*
X41830000Y27760000D03*
X42330000Y27760000D03*
X42830000Y27760000D03*
X43330000Y27760000D03*
X43830000Y27760000D03*
X44330000Y27760000D03*
X44830000Y27760000D03*
X45330000Y27760000D03*
X45830000Y27760000D03*
D13*
X47780000Y29710000D03*
X47780000Y30210000D03*
X47780000Y30710000D03*
X47780000Y31210000D03*
X47780000Y31710000D03*
X47780000Y32210000D03*
X47780000Y32710000D03*
X47780000Y33210000D03*
X47780000Y33710000D03*
X47780000Y34210000D03*
X47780000Y34710000D03*
X47780000Y35210000D03*
X47780000Y35710000D03*
X47780000Y36210000D03*
X47780000Y36710000D03*
X47780000Y37210000D03*
D14*
X45830000Y39160000D03*
X45330000Y39160000D03*
X44830000Y39160000D03*
X44330000Y39160000D03*
X43830000Y39160000D03*
X43330000Y39160000D03*
X42830000Y39160000D03*
X42330000Y39160000D03*
X41830000Y39160000D03*
X41330000Y39160000D03*
X40830000Y39160000D03*
X40330000Y39160000D03*
X39830000Y39160000D03*
X39330000Y39160000D03*
X38830000Y39160000D03*
X38330000Y39160000D03*
D15*
X93752000Y57540000D03*
D16*
X96292000Y57540000D03*
X93752000Y55000000D03*
X96292000Y55000000D03*
X93752000Y52460000D03*
X96292000Y52460000D03*
D17*
X57226000Y53180000D03*
X58726000Y53180000D03*
X79122000Y48600000D03*
X80622000Y48600000D03*
D18*
X15077916Y13401178D03*
X9677916Y13401178D03*
D19*
X16400000Y57800000D03*
X16400000Y56300000D03*
D17*
X16600000Y26400000D03*
X15100000Y26400000D03*
D19*
X25000000Y59800000D03*
X25000000Y58300000D03*
D20*
X6600000Y36800000D03*
X6600000Y30700000D03*
D19*
X41332000Y44798000D03*
X41332000Y46298000D03*
D17*
X39400000Y44400000D03*
X37900000Y44400000D03*
X32188000Y31844000D03*
X30688000Y31844000D03*
D19*
X43618000Y22954000D03*
X43618000Y21454000D03*
D17*
X52532000Y30828000D03*
X54032000Y30828000D03*
D19*
X64690000Y36840000D03*
X64690000Y35340000D03*
X64690000Y32130000D03*
X64690000Y33630000D03*
X51200000Y48830000D03*
X51200000Y50330000D03*
X54610000Y48830000D03*
X54610000Y50330000D03*
X79190000Y78850000D03*
X79190000Y80350000D03*
X76610000Y78850000D03*
X76610000Y80350000D03*
X52870000Y78850000D03*
X52870000Y80350000D03*
X50400000Y78850000D03*
X50400000Y80350000D03*
X58000000Y78850000D03*
X58000000Y80350000D03*
X55400000Y78850000D03*
X55400000Y80350000D03*
X26290000Y78850000D03*
X26290000Y80350000D03*
X23800000Y78850000D03*
X23800000Y80350000D03*
X74070000Y78850000D03*
X74070000Y80350000D03*
X71600000Y78850000D03*
X71600000Y80350000D03*
D21*
X11800000Y55200000D03*
X7800000Y55200000D03*
X11800000Y60400000D03*
X7800000Y60400000D03*
D22*
X17977916Y30400000D03*
X13677916Y30400000D03*
D23*
X26600000Y54000000D03*
X25000000Y54000000D03*
D24*
X51380000Y12508000D03*
X50080000Y12508000D03*
X50730000Y10508000D03*
D25*
X76200000Y8300000D03*
X77000000Y8300000D03*
X77800000Y8300000D03*
X78600000Y8300000D03*
X79400000Y8300000D03*
D26*
X73350000Y8200000D03*
X73350000Y2700000D03*
X82250000Y8200000D03*
X82250000Y2700000D03*
D27*
X75600000Y5700000D03*
X80000000Y5700000D03*
D28*
X12500000Y72000000D03*
X93000000Y81000000D03*
X93000000Y7000000D03*
X6100000Y22700000D03*
D15*
X5400000Y47200000D03*
D16*
X7940000Y47200000D03*
X10480000Y47200000D03*
D29*
X20800000Y60200000D03*
X22800000Y60200000D03*
D30*
X18000000Y36800000D03*
X14400000Y36800000D03*
D15*
X93752000Y71540000D03*
D16*
X96292000Y71540000D03*
X93752000Y69000000D03*
X96292000Y69000000D03*
X93752000Y66460000D03*
X96292000Y66460000D03*
D15*
X93752000Y43540000D03*
D16*
X96292000Y43540000D03*
X93752000Y41000000D03*
X96292000Y41000000D03*
X93752000Y38460000D03*
X96292000Y38460000D03*
D15*
X93752000Y29540000D03*
D16*
X96292000Y29540000D03*
X93752000Y27000000D03*
X96292000Y27000000D03*
X93752000Y24460000D03*
X96292000Y24460000D03*
D15*
X45740000Y87000000D03*
D16*
X43200000Y87000000D03*
X40660000Y87000000D03*
D15*
X59740000Y87000000D03*
D16*
X57200000Y87000000D03*
X54660000Y87000000D03*
D15*
X73740000Y87000000D03*
D16*
X71200000Y87000000D03*
X68660000Y87000000D03*
D15*
X87740000Y87000000D03*
D16*
X85200000Y87000000D03*
X82660000Y87000000D03*
D15*
X17740000Y87000000D03*
D16*
X15200000Y87000000D03*
X12660000Y87000000D03*
D15*
X31740000Y87000000D03*
D16*
X29200000Y87000000D03*
X26660000Y87000000D03*
D15*
X5350000Y69670000D03*
D16*
X2810000Y69670000D03*
X5350000Y72210000D03*
X2810000Y72210000D03*
X5350000Y74750000D03*
X2810000Y74750000D03*
X5350000Y77290000D03*
X2810000Y77290000D03*
X5350000Y79830000D03*
X2810000Y79830000D03*
D15*
X61000000Y2460000D03*
D16*
X61000000Y5000000D03*
X63540000Y2460000D03*
X63540000Y5000000D03*
D15*
X24460000Y2460000D03*
D16*
X24460000Y5000000D03*
X27000000Y2460000D03*
X27000000Y5000000D03*
X29540000Y2460000D03*
X29540000Y5000000D03*
D15*
X52620000Y2600000D03*
D16*
X50080000Y2600000D03*
X47540000Y2600000D03*
X45000000Y2600000D03*
X42460000Y2600000D03*
X39920000Y2600000D03*
D31*
X55600000Y13800000D03*
X55600000Y15700000D03*
X53600000Y14750000D03*
D32*
X31000000Y54500000D03*
X31000000Y53000000D03*
X36000000Y54500000D03*
X36000000Y53000000D03*
D33*
X20177916Y15801178D03*
X18277916Y15801178D03*
D34*
X11100000Y18601178D03*
X12600000Y18601178D03*
D32*
X12677916Y25801178D03*
X12677916Y24301178D03*
D34*
X20100000Y51600000D03*
X18600000Y51600000D03*
X18600000Y53600000D03*
X20100000Y53600000D03*
D32*
X28400000Y57700000D03*
X28400000Y56200000D03*
D34*
X51100000Y7460000D03*
X52600000Y7460000D03*
X50050000Y14800000D03*
X51550000Y14800000D03*
X55600000Y18000000D03*
X54100000Y18000000D03*
X55600000Y11600000D03*
X54100000Y11600000D03*
X56080000Y36690000D03*
X57580000Y36690000D03*
D32*
X44888000Y9722000D03*
X44888000Y8222000D03*
X42348000Y9722000D03*
X42348000Y8222000D03*
D11*
X74672000Y46875000D03*
X74672000Y46225000D03*
X74672000Y45575000D03*
X74672000Y44925000D03*
X74672000Y44275000D03*
X74672000Y43625000D03*
X74672000Y42975000D03*
X74672000Y42325000D03*
X80572000Y42325000D03*
X80572000Y42975000D03*
X80572000Y43625000D03*
X80572000Y44275000D03*
X80572000Y44925000D03*
X80572000Y45575000D03*
X80572000Y46225000D03*
X80572000Y46875000D03*
D35*
X19217916Y24001178D03*
X17947916Y24001178D03*
X16677916Y24001178D03*
X15407916Y24001178D03*
X15407916Y18601178D03*
X16677916Y18601178D03*
X17947916Y18601178D03*
X19217916Y18601178D03*
D36*
X20800000Y55900000D03*
X20800000Y56850000D03*
X20800000Y57800000D03*
X18600000Y57800000D03*
X18600000Y55900000D03*
D37*
X37522000Y9238000D03*
X36222000Y9238000D03*
X36872000Y7338000D03*
X36872000Y9238000D03*
X36222000Y7338000D03*
X37522000Y7338000D03*
D38*
X31400000Y69400000D03*
X28860000Y69400000D03*
X27590000Y69400000D03*
X26320000Y69400000D03*
X25050000Y69400000D03*
X23780000Y69400000D03*
X22510000Y69400000D03*
X22510000Y75750000D03*
X23780000Y75750000D03*
X25050000Y75750000D03*
X26320000Y75750000D03*
X27590000Y75750000D03*
X28860000Y75750000D03*
X30130000Y75750000D03*
X31400000Y75750000D03*
X30130000Y69400000D03*
X58000000Y69400000D03*
X55460000Y69400000D03*
X54190000Y69400000D03*
X52920000Y69400000D03*
X51650000Y69400000D03*
X50380000Y69400000D03*
X49110000Y69400000D03*
X49110000Y75750000D03*
X50380000Y75750000D03*
X51650000Y75750000D03*
X52920000Y75750000D03*
X54190000Y75750000D03*
X55460000Y75750000D03*
X56730000Y75750000D03*
X58000000Y75750000D03*
X56730000Y69400000D03*
X79200000Y69400000D03*
X76660000Y69400000D03*
X75390000Y69400000D03*
X74120000Y69400000D03*
X72850000Y69400000D03*
X71580000Y69400000D03*
X70310000Y69400000D03*
X70310000Y75750000D03*
X71580000Y75750000D03*
X72850000Y75750000D03*
X74120000Y75750000D03*
X75390000Y75750000D03*
X76660000Y75750000D03*
X77930000Y75750000D03*
X79200000Y75750000D03*
X77930000Y69400000D03*
D39*
X60470000Y36700000D03*
X60470000Y32300000D03*
D40*
X34000000Y53000000D03*
X33150000Y53000000D03*
X34000000Y51550000D03*
X33150000Y51550000D03*
D41*
X34200000Y73000000D03*
X34200000Y72200000D03*
X34200000Y73800000D03*
X34200000Y71400000D03*
X35900000Y73800000D03*
X35900000Y73000000D03*
X35900000Y72200000D03*
X35900000Y71400000D03*
X19600000Y72200000D03*
X19600000Y73000000D03*
X19600000Y71400000D03*
X19600000Y73800000D03*
X17900000Y71400000D03*
X17900000Y72200000D03*
X17900000Y73000000D03*
X17900000Y73800000D03*
X61100000Y72600000D03*
X61100000Y71800000D03*
X61100000Y73400000D03*
X61100000Y71000000D03*
X62800000Y73400000D03*
X62800000Y72600000D03*
X62800000Y71800000D03*
X62800000Y71000000D03*
D42*
X54600000Y64200000D03*
X53800000Y64200000D03*
X55400000Y64200000D03*
X53000000Y64200000D03*
X55400000Y62500000D03*
X54600000Y62500000D03*
X53800000Y62500000D03*
X53000000Y62500000D03*
D41*
X82270000Y72644000D03*
X82270000Y71844000D03*
X82270000Y73444000D03*
X82270000Y71044000D03*
X83970000Y73444000D03*
X83970000Y72644000D03*
X83970000Y71844000D03*
X83970000Y71044000D03*
D42*
X75800000Y64200000D03*
X75000000Y64200000D03*
X76600000Y64200000D03*
X74200000Y64200000D03*
X76600000Y62500000D03*
X75800000Y62500000D03*
X75000000Y62500000D03*
X74200000Y62500000D03*
D32*
X29000000Y43500000D03*
X29000000Y45000000D03*
X34000000Y43500000D03*
X34000000Y45000000D03*
D43*
X29000000Y47000000D03*
X30900000Y47000000D03*
X29950000Y49000000D03*
X34000000Y47000000D03*
X35900000Y47000000D03*
X34950000Y49000000D03*
M02*
