G04 #@! TF.FileFunction,Legend,Top*
%FSLAX46Y46*%
G04 Gerber Fmt 4.6, Leading zero omitted, Abs format (unit mm)*
G04 Created by KiCad (PCBNEW 4.0.6) date 05/06/17 23:30:13*
%MOMM*%
%LPD*%
G01*
G04 APERTURE LIST*
%ADD10C,0.100000*%
%ADD11C,0.150000*%
%ADD12C,0.200000*%
%ADD13C,0.120000*%
G04 APERTURE END LIST*
D10*
D11*
X2038096Y67250000D02*
X1942858Y67297619D01*
X1800001Y67297619D01*
X1657143Y67250000D01*
X1561905Y67154762D01*
X1514286Y67059524D01*
X1466667Y66869048D01*
X1466667Y66726190D01*
X1514286Y66535714D01*
X1561905Y66440476D01*
X1657143Y66345238D01*
X1800001Y66297619D01*
X1895239Y66297619D01*
X2038096Y66345238D01*
X2085715Y66392857D01*
X2085715Y66726190D01*
X1895239Y66726190D01*
X2514286Y66297619D02*
X2514286Y67297619D01*
X3085715Y66297619D01*
X3085715Y67297619D01*
X3561905Y66297619D02*
X3561905Y67297619D01*
X3800000Y67297619D01*
X3942858Y67250000D01*
X4038096Y67154762D01*
X4085715Y67059524D01*
X4133334Y66869048D01*
X4133334Y66726190D01*
X4085715Y66535714D01*
X4038096Y66440476D01*
X3942858Y66345238D01*
X3800000Y66297619D01*
X3561905Y66297619D01*
D12*
X76628572Y29021429D02*
X77485715Y29021429D01*
X77057144Y27521429D02*
X77057144Y29021429D01*
X77985715Y27521429D02*
X77985715Y28521429D01*
X77985715Y29021429D02*
X77914286Y28950000D01*
X77985715Y28878571D01*
X78057143Y28950000D01*
X77985715Y29021429D01*
X77985715Y28878571D01*
X78557144Y29021429D02*
X79557144Y29021429D01*
X78557144Y27521429D01*
X79557144Y27521429D01*
X80700000Y27592857D02*
X80557143Y27521429D01*
X80271429Y27521429D01*
X80128572Y27592857D01*
X80057143Y27735714D01*
X80057143Y28307143D01*
X80128572Y28450000D01*
X80271429Y28521429D01*
X80557143Y28521429D01*
X80700000Y28450000D01*
X80771429Y28307143D01*
X80771429Y28164286D01*
X80057143Y28021429D01*
X82057143Y27521429D02*
X82057143Y29021429D01*
X82057143Y27592857D02*
X81914286Y27521429D01*
X81628572Y27521429D01*
X81485714Y27592857D01*
X81414286Y27664286D01*
X81342857Y27807143D01*
X81342857Y28235714D01*
X81414286Y28378571D01*
X81485714Y28450000D01*
X81628572Y28521429D01*
X81914286Y28521429D01*
X82057143Y28450000D01*
D11*
X71495239Y32247619D02*
X71019048Y32247619D01*
X70971429Y31771429D01*
X71019048Y31819048D01*
X71114286Y31866667D01*
X71352382Y31866667D01*
X71447620Y31819048D01*
X71495239Y31771429D01*
X71542858Y31676190D01*
X71542858Y31438095D01*
X71495239Y31342857D01*
X71447620Y31295238D01*
X71352382Y31247619D01*
X71114286Y31247619D01*
X71019048Y31295238D01*
X70971429Y31342857D01*
X71971429Y31342857D02*
X72019048Y31295238D01*
X71971429Y31247619D01*
X71923810Y31295238D01*
X71971429Y31342857D01*
X71971429Y31247619D01*
X72400000Y32152381D02*
X72447619Y32200000D01*
X72542857Y32247619D01*
X72780953Y32247619D01*
X72876191Y32200000D01*
X72923810Y32152381D01*
X72971429Y32057143D01*
X72971429Y31961905D01*
X72923810Y31819048D01*
X72352381Y31247619D01*
X72971429Y31247619D01*
X73590476Y32247619D02*
X73685715Y32247619D01*
X73780953Y32200000D01*
X73828572Y32152381D01*
X73876191Y32057143D01*
X73923810Y31866667D01*
X73923810Y31628571D01*
X73876191Y31438095D01*
X73828572Y31342857D01*
X73780953Y31295238D01*
X73685715Y31247619D01*
X73590476Y31247619D01*
X73495238Y31295238D01*
X73447619Y31342857D01*
X73400000Y31438095D01*
X73352381Y31628571D01*
X73352381Y31866667D01*
X73400000Y32057143D01*
X73447619Y32152381D01*
X73495238Y32200000D01*
X73590476Y32247619D01*
X74876191Y31247619D02*
X74304762Y31247619D01*
X74590476Y31247619D02*
X74590476Y32247619D01*
X74495238Y32104762D01*
X74400000Y32009524D01*
X74304762Y31961905D01*
X75209524Y32247619D02*
X75876191Y32247619D01*
X75447619Y31247619D01*
D12*
X70985715Y32971429D02*
X70985715Y34471429D01*
X71842858Y32971429D02*
X71200001Y33828571D01*
X71842858Y34471429D02*
X70985715Y33614286D01*
X73128572Y32971429D02*
X73128572Y33757143D01*
X73057143Y33900000D01*
X72914286Y33971429D01*
X72628572Y33971429D01*
X72485715Y33900000D01*
X73128572Y33042857D02*
X72985715Y32971429D01*
X72628572Y32971429D01*
X72485715Y33042857D01*
X72414286Y33185714D01*
X72414286Y33328571D01*
X72485715Y33471429D01*
X72628572Y33542857D01*
X72985715Y33542857D01*
X73128572Y33614286D01*
X73842858Y32971429D02*
X73842858Y33971429D01*
X73842858Y33685714D02*
X73914286Y33828571D01*
X73985715Y33900000D01*
X74128572Y33971429D01*
X74271429Y33971429D01*
X74700000Y33042857D02*
X74842857Y32971429D01*
X75128572Y32971429D01*
X75271429Y33042857D01*
X75342857Y33185714D01*
X75342857Y33257143D01*
X75271429Y33400000D01*
X75128572Y33471429D01*
X74914286Y33471429D01*
X74771429Y33542857D01*
X74700000Y33685714D01*
X74700000Y33757143D01*
X74771429Y33900000D01*
X74914286Y33971429D01*
X75128572Y33971429D01*
X75271429Y33900000D01*
X76628572Y32971429D02*
X76628572Y33757143D01*
X76557143Y33900000D01*
X76414286Y33971429D01*
X76128572Y33971429D01*
X75985715Y33900000D01*
X76628572Y33042857D02*
X76485715Y32971429D01*
X76128572Y32971429D01*
X75985715Y33042857D01*
X75914286Y33185714D01*
X75914286Y33328571D01*
X75985715Y33471429D01*
X76128572Y33542857D01*
X76485715Y33542857D01*
X76628572Y33614286D01*
X77342858Y32971429D02*
X77342858Y33971429D01*
X77342858Y33828571D02*
X77414286Y33900000D01*
X77557144Y33971429D01*
X77771429Y33971429D01*
X77914286Y33900000D01*
X77985715Y33757143D01*
X77985715Y32971429D01*
X77985715Y33757143D02*
X78057144Y33900000D01*
X78200001Y33971429D01*
X78414286Y33971429D01*
X78557144Y33900000D01*
X78628572Y33757143D01*
X78628572Y32971429D01*
X79342858Y33114286D02*
X79414286Y33042857D01*
X79342858Y32971429D01*
X79271429Y33042857D01*
X79342858Y33114286D01*
X79342858Y32971429D01*
X79342858Y33900000D02*
X79414286Y33828571D01*
X79342858Y33757143D01*
X79271429Y33828571D01*
X79342858Y33900000D01*
X79342858Y33757143D01*
X81200001Y32971429D02*
X81200001Y34471429D01*
X82057144Y32971429D02*
X81414287Y33828571D01*
X82057144Y34471429D02*
X81200001Y33614286D01*
X83557144Y32971429D02*
X83057144Y33685714D01*
X82700001Y32971429D02*
X82700001Y34471429D01*
X83271429Y34471429D01*
X83414287Y34400000D01*
X83485715Y34328571D01*
X83557144Y34185714D01*
X83557144Y33971429D01*
X83485715Y33828571D01*
X83414287Y33757143D01*
X83271429Y33685714D01*
X82700001Y33685714D01*
X84771429Y33042857D02*
X84628572Y32971429D01*
X84342858Y32971429D01*
X84200001Y33042857D01*
X84128572Y33185714D01*
X84128572Y33757143D01*
X84200001Y33900000D01*
X84342858Y33971429D01*
X84628572Y33971429D01*
X84771429Y33900000D01*
X84842858Y33757143D01*
X84842858Y33614286D01*
X84128572Y33471429D01*
X86128572Y32971429D02*
X86128572Y33757143D01*
X86057143Y33900000D01*
X85914286Y33971429D01*
X85628572Y33971429D01*
X85485715Y33900000D01*
X86128572Y33042857D02*
X85985715Y32971429D01*
X85628572Y32971429D01*
X85485715Y33042857D01*
X85414286Y33185714D01*
X85414286Y33328571D01*
X85485715Y33471429D01*
X85628572Y33542857D01*
X85985715Y33542857D01*
X86128572Y33614286D01*
X87057144Y32971429D02*
X86914286Y33042857D01*
X86842858Y33185714D01*
X86842858Y34471429D01*
D11*
X7676191Y69347619D02*
X8009524Y68347619D01*
X8342858Y69347619D01*
X8676191Y68347619D02*
X8676191Y69014286D01*
X8676191Y69347619D02*
X8628572Y69300000D01*
X8676191Y69252381D01*
X8723810Y69300000D01*
X8676191Y69347619D01*
X8676191Y69252381D01*
X9152381Y69014286D02*
X9152381Y68347619D01*
X9152381Y68919048D02*
X9200000Y68966667D01*
X9295238Y69014286D01*
X9438096Y69014286D01*
X9533334Y68966667D01*
X9580953Y68871429D01*
X9580953Y68347619D01*
D12*
X8000000Y72600000D02*
X8000000Y74300000D01*
X7300000Y72200000D02*
X8000000Y72600000D01*
X7300000Y74800000D02*
X8000000Y74300000D01*
X8000000Y77800000D02*
X8000000Y79400000D01*
X7300000Y77300000D02*
X8000000Y77800000D01*
X7300000Y79900000D02*
X8000000Y79400000D01*
D11*
X8809524Y75847619D02*
X8333333Y75847619D01*
X8285714Y75371429D01*
X8333333Y75419048D01*
X8428571Y75466667D01*
X8666667Y75466667D01*
X8761905Y75419048D01*
X8809524Y75371429D01*
X8857143Y75276190D01*
X8857143Y75038095D01*
X8809524Y74942857D01*
X8761905Y74895238D01*
X8666667Y74847619D01*
X8428571Y74847619D01*
X8333333Y74895238D01*
X8285714Y74942857D01*
X9142857Y75847619D02*
X9476190Y74847619D01*
X9809524Y75847619D01*
X8923810Y79147619D02*
X9542858Y79147619D01*
X9209524Y78766667D01*
X9352382Y78766667D01*
X9447620Y78719048D01*
X9495239Y78671429D01*
X9542858Y78576190D01*
X9542858Y78338095D01*
X9495239Y78242857D01*
X9447620Y78195238D01*
X9352382Y78147619D01*
X9066667Y78147619D01*
X8971429Y78195238D01*
X8923810Y78242857D01*
X9971429Y78242857D02*
X10019048Y78195238D01*
X9971429Y78147619D01*
X9923810Y78195238D01*
X9971429Y78242857D01*
X9971429Y78147619D01*
X10352381Y79147619D02*
X10971429Y79147619D01*
X10638095Y78766667D01*
X10780953Y78766667D01*
X10876191Y78719048D01*
X10923810Y78671429D01*
X10971429Y78576190D01*
X10971429Y78338095D01*
X10923810Y78242857D01*
X10876191Y78195238D01*
X10780953Y78147619D01*
X10495238Y78147619D01*
X10400000Y78195238D01*
X10352381Y78242857D01*
X11257143Y79147619D02*
X11590476Y78147619D01*
X11923810Y79147619D01*
X4400001Y44271429D02*
X4542858Y44223810D01*
X4590477Y44176190D01*
X4638096Y44080952D01*
X4638096Y43938095D01*
X4590477Y43842857D01*
X4542858Y43795238D01*
X4447620Y43747619D01*
X4066667Y43747619D01*
X4066667Y44747619D01*
X4400001Y44747619D01*
X4495239Y44700000D01*
X4542858Y44652381D01*
X4590477Y44557143D01*
X4590477Y44461905D01*
X4542858Y44366667D01*
X4495239Y44319048D01*
X4400001Y44271429D01*
X4066667Y44271429D01*
X4971429Y44414286D02*
X5209524Y43747619D01*
X5447620Y44414286D02*
X5209524Y43747619D01*
X5114286Y43509524D01*
X5066667Y43461905D01*
X4971429Y43414286D01*
X5828572Y44414286D02*
X5828572Y43414286D01*
X5828572Y44366667D02*
X5923810Y44414286D01*
X6114287Y44414286D01*
X6209525Y44366667D01*
X6257144Y44319048D01*
X6304763Y44223810D01*
X6304763Y43938095D01*
X6257144Y43842857D01*
X6209525Y43795238D01*
X6114287Y43747619D01*
X5923810Y43747619D01*
X5828572Y43795238D01*
X6733334Y43842857D02*
X6780953Y43795238D01*
X6733334Y43747619D01*
X6685715Y43795238D01*
X6733334Y43842857D01*
X6733334Y43747619D01*
X9690477Y43747619D02*
X9357143Y44223810D01*
X9119048Y43747619D02*
X9119048Y44747619D01*
X9500001Y44747619D01*
X9595239Y44700000D01*
X9642858Y44652381D01*
X9690477Y44557143D01*
X9690477Y44414286D01*
X9642858Y44319048D01*
X9595239Y44271429D01*
X9500001Y44223810D01*
X9119048Y44223810D01*
X10500001Y43795238D02*
X10404763Y43747619D01*
X10214286Y43747619D01*
X10119048Y43795238D01*
X10071429Y43890476D01*
X10071429Y44271429D01*
X10119048Y44366667D01*
X10214286Y44414286D01*
X10404763Y44414286D01*
X10500001Y44366667D01*
X10547620Y44271429D01*
X10547620Y44176190D01*
X10071429Y44080952D01*
X11404763Y44414286D02*
X11404763Y43604762D01*
X11357144Y43509524D01*
X11309525Y43461905D01*
X11214286Y43414286D01*
X11071429Y43414286D01*
X10976191Y43461905D01*
X11404763Y43795238D02*
X11309525Y43747619D01*
X11119048Y43747619D01*
X11023810Y43795238D01*
X10976191Y43842857D01*
X10928572Y43938095D01*
X10928572Y44223810D01*
X10976191Y44319048D01*
X11023810Y44366667D01*
X11119048Y44414286D01*
X11309525Y44414286D01*
X11404763Y44366667D01*
X11880953Y43842857D02*
X11928572Y43795238D01*
X11880953Y43747619D01*
X11833334Y43795238D01*
X11880953Y43842857D01*
X11880953Y43747619D01*
X26328572Y7447619D02*
X26328572Y8447619D01*
X26661906Y7733333D01*
X26995239Y8447619D01*
X26995239Y7447619D01*
X27661905Y8447619D02*
X27852382Y8447619D01*
X27947620Y8400000D01*
X28042858Y8304762D01*
X28090477Y8114286D01*
X28090477Y7780952D01*
X28042858Y7590476D01*
X27947620Y7495238D01*
X27852382Y7447619D01*
X27661905Y7447619D01*
X27566667Y7495238D01*
X27471429Y7590476D01*
X27423810Y7780952D01*
X27423810Y8114286D01*
X27471429Y8304762D01*
X27566667Y8400000D01*
X27661905Y8447619D01*
X28471429Y7495238D02*
X28614286Y7447619D01*
X28852382Y7447619D01*
X28947620Y7495238D01*
X28995239Y7542857D01*
X29042858Y7638095D01*
X29042858Y7733333D01*
X28995239Y7828571D01*
X28947620Y7876190D01*
X28852382Y7923810D01*
X28661905Y7971429D01*
X28566667Y8019048D01*
X28519048Y8066667D01*
X28471429Y8161905D01*
X28471429Y8257143D01*
X28519048Y8352381D01*
X28566667Y8400000D01*
X28661905Y8447619D01*
X28900001Y8447619D01*
X29042858Y8400000D01*
X29471429Y7447619D02*
X29471429Y8447619D01*
X13676191Y1647619D02*
X13676191Y2647619D01*
X14009525Y1933333D01*
X14342858Y2647619D01*
X14342858Y1647619D01*
X14819048Y1647619D02*
X14819048Y2647619D01*
X15247619Y1695238D02*
X15390476Y1647619D01*
X15628572Y1647619D01*
X15723810Y1695238D01*
X15771429Y1742857D01*
X15819048Y1838095D01*
X15819048Y1933333D01*
X15771429Y2028571D01*
X15723810Y2076190D01*
X15628572Y2123810D01*
X15438095Y2171429D01*
X15342857Y2219048D01*
X15295238Y2266667D01*
X15247619Y2361905D01*
X15247619Y2457143D01*
X15295238Y2552381D01*
X15342857Y2600000D01*
X15438095Y2647619D01*
X15676191Y2647619D01*
X15819048Y2600000D01*
X16438095Y2647619D02*
X16628572Y2647619D01*
X16723810Y2600000D01*
X16819048Y2504762D01*
X16866667Y2314286D01*
X16866667Y1980952D01*
X16819048Y1790476D01*
X16723810Y1695238D01*
X16628572Y1647619D01*
X16438095Y1647619D01*
X16342857Y1695238D01*
X16247619Y1790476D01*
X16200000Y1980952D01*
X16200000Y2314286D01*
X16247619Y2504762D01*
X16342857Y2600000D01*
X16438095Y2647619D01*
X17533333Y1314286D02*
X17533333Y2742857D01*
X18200000Y1695238D02*
X18342857Y1647619D01*
X18580953Y1647619D01*
X18676191Y1695238D01*
X18723810Y1742857D01*
X18771429Y1838095D01*
X18771429Y1933333D01*
X18723810Y2028571D01*
X18676191Y2076190D01*
X18580953Y2123810D01*
X18390476Y2171429D01*
X18295238Y2219048D01*
X18247619Y2266667D01*
X18200000Y2361905D01*
X18200000Y2457143D01*
X18247619Y2552381D01*
X18295238Y2600000D01*
X18390476Y2647619D01*
X18628572Y2647619D01*
X18771429Y2600000D01*
X19771429Y1742857D02*
X19723810Y1695238D01*
X19580953Y1647619D01*
X19485715Y1647619D01*
X19342857Y1695238D01*
X19247619Y1790476D01*
X19200000Y1885714D01*
X19152381Y2076190D01*
X19152381Y2219048D01*
X19200000Y2409524D01*
X19247619Y2504762D01*
X19342857Y2600000D01*
X19485715Y2647619D01*
X19580953Y2647619D01*
X19723810Y2600000D01*
X19771429Y2552381D01*
X20200000Y1647619D02*
X20200000Y2647619D01*
X20771429Y1647619D02*
X20342857Y2219048D01*
X20771429Y2647619D02*
X20200000Y2076190D01*
X32123809Y1795238D02*
X32266666Y1747619D01*
X32504762Y1747619D01*
X32600000Y1795238D01*
X32647619Y1842857D01*
X32695238Y1938095D01*
X32695238Y2033333D01*
X32647619Y2128571D01*
X32600000Y2176190D01*
X32504762Y2223810D01*
X32314285Y2271429D01*
X32219047Y2319048D01*
X32171428Y2366667D01*
X32123809Y2461905D01*
X32123809Y2557143D01*
X32171428Y2652381D01*
X32219047Y2700000D01*
X32314285Y2747619D01*
X32552381Y2747619D01*
X32695238Y2700000D01*
X33504762Y1795238D02*
X33409524Y1747619D01*
X33219047Y1747619D01*
X33123809Y1795238D01*
X33076190Y1890476D01*
X33076190Y2271429D01*
X33123809Y2366667D01*
X33219047Y2414286D01*
X33409524Y2414286D01*
X33504762Y2366667D01*
X33552381Y2271429D01*
X33552381Y2176190D01*
X33076190Y2080952D01*
X34123809Y1747619D02*
X34028571Y1795238D01*
X33980952Y1890476D01*
X33980952Y2747619D01*
X89628571Y84266667D02*
X89152380Y84266667D01*
X89723809Y84552381D02*
X89390476Y83552381D01*
X89057142Y84552381D01*
X87485713Y84552381D02*
X87961904Y84552381D01*
X87961904Y83552381D01*
X87152380Y84552381D02*
X87152380Y83885714D01*
X87152380Y83552381D02*
X87199999Y83600000D01*
X87152380Y83647619D01*
X87104761Y83600000D01*
X87152380Y83552381D01*
X87152380Y83647619D01*
X86676190Y84552381D02*
X86676190Y83885714D01*
X86676190Y83980952D02*
X86628571Y83933333D01*
X86533333Y83885714D01*
X86390475Y83885714D01*
X86295237Y83933333D01*
X86247618Y84028571D01*
X86247618Y84552381D01*
X86247618Y84028571D02*
X86199999Y83933333D01*
X86104761Y83885714D01*
X85961904Y83885714D01*
X85866666Y83933333D01*
X85819047Y84028571D01*
X85819047Y84552381D01*
X83890476Y84366667D02*
X83414285Y84366667D01*
X83985714Y84652381D02*
X83652381Y83652381D01*
X83319047Y84652381D01*
X82223809Y84652381D02*
X82223809Y83652381D01*
X82223809Y84128571D02*
X81652380Y84128571D01*
X81652380Y84652381D02*
X81652380Y83652381D01*
X81033333Y84652381D02*
X81128571Y84604762D01*
X81176190Y84557143D01*
X81223809Y84461905D01*
X81223809Y84176190D01*
X81176190Y84080952D01*
X81128571Y84033333D01*
X81033333Y83985714D01*
X80890475Y83985714D01*
X80795237Y84033333D01*
X80747618Y84080952D01*
X80699999Y84176190D01*
X80699999Y84461905D01*
X80747618Y84557143D01*
X80795237Y84604762D01*
X80890475Y84652381D01*
X81033333Y84652381D01*
X80271428Y84652381D02*
X80271428Y83985714D01*
X80271428Y84080952D02*
X80223809Y84033333D01*
X80128571Y83985714D01*
X79985713Y83985714D01*
X79890475Y84033333D01*
X79842856Y84128571D01*
X79842856Y84652381D01*
X79842856Y84128571D02*
X79795237Y84033333D01*
X79699999Y83985714D01*
X79557142Y83985714D01*
X79461904Y84033333D01*
X79414285Y84128571D01*
X79414285Y84652381D01*
X78557142Y84604762D02*
X78652380Y84652381D01*
X78842857Y84652381D01*
X78938095Y84604762D01*
X78985714Y84509524D01*
X78985714Y84128571D01*
X78938095Y84033333D01*
X78842857Y83985714D01*
X78652380Y83985714D01*
X78557142Y84033333D01*
X78509523Y84128571D01*
X78509523Y84223810D01*
X78985714Y84319048D01*
X76023809Y83652381D02*
X75357142Y83652381D01*
X76023809Y84652381D01*
X75357142Y84652381D01*
X73738094Y84652381D02*
X74214285Y84652381D01*
X74214285Y83652381D01*
X73404761Y84652381D02*
X73404761Y83985714D01*
X73404761Y83652381D02*
X73452380Y83700000D01*
X73404761Y83747619D01*
X73357142Y83700000D01*
X73404761Y83652381D01*
X73404761Y83747619D01*
X72928571Y84652381D02*
X72928571Y83985714D01*
X72928571Y84080952D02*
X72880952Y84033333D01*
X72785714Y83985714D01*
X72642856Y83985714D01*
X72547618Y84033333D01*
X72499999Y84128571D01*
X72499999Y84652381D01*
X72499999Y84128571D02*
X72452380Y84033333D01*
X72357142Y83985714D01*
X72214285Y83985714D01*
X72119047Y84033333D01*
X72071428Y84128571D01*
X72071428Y84652381D01*
X70085714Y83652381D02*
X69419047Y83652381D01*
X70085714Y84652381D01*
X69419047Y84652381D01*
X68276190Y84652381D02*
X68276190Y83652381D01*
X68276190Y84128571D02*
X67704761Y84128571D01*
X67704761Y84652381D02*
X67704761Y83652381D01*
X67085714Y84652381D02*
X67180952Y84604762D01*
X67228571Y84557143D01*
X67276190Y84461905D01*
X67276190Y84176190D01*
X67228571Y84080952D01*
X67180952Y84033333D01*
X67085714Y83985714D01*
X66942856Y83985714D01*
X66847618Y84033333D01*
X66799999Y84080952D01*
X66752380Y84176190D01*
X66752380Y84461905D01*
X66799999Y84557143D01*
X66847618Y84604762D01*
X66942856Y84652381D01*
X67085714Y84652381D01*
X66323809Y84652381D02*
X66323809Y83985714D01*
X66323809Y84080952D02*
X66276190Y84033333D01*
X66180952Y83985714D01*
X66038094Y83985714D01*
X65942856Y84033333D01*
X65895237Y84128571D01*
X65895237Y84652381D01*
X65895237Y84128571D02*
X65847618Y84033333D01*
X65752380Y83985714D01*
X65609523Y83985714D01*
X65514285Y84033333D01*
X65466666Y84128571D01*
X65466666Y84652381D01*
X64609523Y84604762D02*
X64704761Y84652381D01*
X64895238Y84652381D01*
X64990476Y84604762D01*
X65038095Y84509524D01*
X65038095Y84128571D01*
X64990476Y84033333D01*
X64895238Y83985714D01*
X64704761Y83985714D01*
X64609523Y84033333D01*
X64561904Y84128571D01*
X64561904Y84223810D01*
X65038095Y84319048D01*
X61490476Y84076190D02*
X61490476Y84552381D01*
X61823809Y83552381D02*
X61490476Y84076190D01*
X61157142Y83552381D01*
X59585713Y84552381D02*
X60061904Y84552381D01*
X60061904Y83552381D01*
X59252380Y84552381D02*
X59252380Y83885714D01*
X59252380Y83552381D02*
X59299999Y83600000D01*
X59252380Y83647619D01*
X59204761Y83600000D01*
X59252380Y83552381D01*
X59252380Y83647619D01*
X58776190Y84552381D02*
X58776190Y83885714D01*
X58776190Y83980952D02*
X58728571Y83933333D01*
X58633333Y83885714D01*
X58490475Y83885714D01*
X58395237Y83933333D01*
X58347618Y84028571D01*
X58347618Y84552381D01*
X58347618Y84028571D02*
X58299999Y83933333D01*
X58204761Y83885714D01*
X58061904Y83885714D01*
X57966666Y83933333D01*
X57919047Y84028571D01*
X57919047Y84552381D01*
X55452381Y84076190D02*
X55452381Y84552381D01*
X55785714Y83552381D02*
X55452381Y84076190D01*
X55119047Y83552381D01*
X54023809Y84552381D02*
X54023809Y83552381D01*
X54023809Y84028571D02*
X53452380Y84028571D01*
X53452380Y84552381D02*
X53452380Y83552381D01*
X52833333Y84552381D02*
X52928571Y84504762D01*
X52976190Y84457143D01*
X53023809Y84361905D01*
X53023809Y84076190D01*
X52976190Y83980952D01*
X52928571Y83933333D01*
X52833333Y83885714D01*
X52690475Y83885714D01*
X52595237Y83933333D01*
X52547618Y83980952D01*
X52499999Y84076190D01*
X52499999Y84361905D01*
X52547618Y84457143D01*
X52595237Y84504762D01*
X52690475Y84552381D01*
X52833333Y84552381D01*
X52071428Y84552381D02*
X52071428Y83885714D01*
X52071428Y83980952D02*
X52023809Y83933333D01*
X51928571Y83885714D01*
X51785713Y83885714D01*
X51690475Y83933333D01*
X51642856Y84028571D01*
X51642856Y84552381D01*
X51642856Y84028571D02*
X51595237Y83933333D01*
X51499999Y83885714D01*
X51357142Y83885714D01*
X51261904Y83933333D01*
X51214285Y84028571D01*
X51214285Y84552381D01*
X50357142Y84504762D02*
X50452380Y84552381D01*
X50642857Y84552381D01*
X50738095Y84504762D01*
X50785714Y84409524D01*
X50785714Y84028571D01*
X50738095Y83933333D01*
X50642857Y83885714D01*
X50452380Y83885714D01*
X50357142Y83933333D01*
X50309523Y84028571D01*
X50309523Y84123810D01*
X50785714Y84219048D01*
X48023809Y83652381D02*
X47357142Y84652381D01*
X47357142Y83652381D02*
X48023809Y84652381D01*
X45738094Y84652381D02*
X46214285Y84652381D01*
X46214285Y83652381D01*
X45404761Y84652381D02*
X45404761Y83985714D01*
X45404761Y83652381D02*
X45452380Y83700000D01*
X45404761Y83747619D01*
X45357142Y83700000D01*
X45404761Y83652381D01*
X45404761Y83747619D01*
X44928571Y84652381D02*
X44928571Y83985714D01*
X44928571Y84080952D02*
X44880952Y84033333D01*
X44785714Y83985714D01*
X44642856Y83985714D01*
X44547618Y84033333D01*
X44499999Y84128571D01*
X44499999Y84652381D01*
X44499999Y84128571D02*
X44452380Y84033333D01*
X44357142Y83985714D01*
X44214285Y83985714D01*
X44119047Y84033333D01*
X44071428Y84128571D01*
X44071428Y84652381D01*
X42585714Y83652381D02*
X41919047Y84652381D01*
X41919047Y83652381D02*
X42585714Y84652381D01*
X40776190Y84652381D02*
X40776190Y83652381D01*
X40776190Y84128571D02*
X40204761Y84128571D01*
X40204761Y84652381D02*
X40204761Y83652381D01*
X39585714Y84652381D02*
X39680952Y84604762D01*
X39728571Y84557143D01*
X39776190Y84461905D01*
X39776190Y84176190D01*
X39728571Y84080952D01*
X39680952Y84033333D01*
X39585714Y83985714D01*
X39442856Y83985714D01*
X39347618Y84033333D01*
X39299999Y84080952D01*
X39252380Y84176190D01*
X39252380Y84461905D01*
X39299999Y84557143D01*
X39347618Y84604762D01*
X39442856Y84652381D01*
X39585714Y84652381D01*
X38823809Y84652381D02*
X38823809Y83985714D01*
X38823809Y84080952D02*
X38776190Y84033333D01*
X38680952Y83985714D01*
X38538094Y83985714D01*
X38442856Y84033333D01*
X38395237Y84128571D01*
X38395237Y84652381D01*
X38395237Y84128571D02*
X38347618Y84033333D01*
X38252380Y83985714D01*
X38109523Y83985714D01*
X38014285Y84033333D01*
X37966666Y84128571D01*
X37966666Y84652381D01*
X37109523Y84604762D02*
X37204761Y84652381D01*
X37395238Y84652381D01*
X37490476Y84604762D01*
X37538095Y84509524D01*
X37538095Y84128571D01*
X37490476Y84033333D01*
X37395238Y83985714D01*
X37204761Y83985714D01*
X37109523Y84033333D01*
X37061904Y84128571D01*
X37061904Y84223810D01*
X37538095Y84319048D01*
X33485714Y84552381D02*
X33961905Y84552381D01*
X33961905Y83552381D01*
X32723809Y84552381D02*
X32723809Y84028571D01*
X32771428Y83933333D01*
X32866666Y83885714D01*
X33057143Y83885714D01*
X33152381Y83933333D01*
X32723809Y84504762D02*
X32819047Y84552381D01*
X33057143Y84552381D01*
X33152381Y84504762D01*
X33200000Y84409524D01*
X33200000Y84314286D01*
X33152381Y84219048D01*
X33057143Y84171429D01*
X32819047Y84171429D01*
X32723809Y84123810D01*
X32295238Y84504762D02*
X32200000Y84552381D01*
X32009524Y84552381D01*
X31914285Y84504762D01*
X31866666Y84409524D01*
X31866666Y84361905D01*
X31914285Y84266667D01*
X32009524Y84219048D01*
X32152381Y84219048D01*
X32247619Y84171429D01*
X32295238Y84076190D01*
X32295238Y84028571D01*
X32247619Y83933333D01*
X32152381Y83885714D01*
X32009524Y83885714D01*
X31914285Y83933333D01*
X31057142Y84504762D02*
X31152380Y84552381D01*
X31342857Y84552381D01*
X31438095Y84504762D01*
X31485714Y84409524D01*
X31485714Y84028571D01*
X31438095Y83933333D01*
X31342857Y83885714D01*
X31152380Y83885714D01*
X31057142Y83933333D01*
X31009523Y84028571D01*
X31009523Y84123810D01*
X31485714Y84219048D01*
X30580952Y84552381D02*
X30580952Y83885714D01*
X30580952Y84076190D02*
X30533333Y83980952D01*
X30485714Y83933333D01*
X30390476Y83885714D01*
X30295237Y83885714D01*
X28571429Y84404762D02*
X28428572Y84452381D01*
X28190476Y84452381D01*
X28095238Y84404762D01*
X28047619Y84357143D01*
X28000000Y84261905D01*
X28000000Y84166667D01*
X28047619Y84071429D01*
X28095238Y84023810D01*
X28190476Y83976190D01*
X28380953Y83928571D01*
X28476191Y83880952D01*
X28523810Y83833333D01*
X28571429Y83738095D01*
X28571429Y83642857D01*
X28523810Y83547619D01*
X28476191Y83500000D01*
X28380953Y83452381D01*
X28142857Y83452381D01*
X28000000Y83500000D01*
X27571429Y83785714D02*
X27571429Y84785714D01*
X27571429Y83833333D02*
X27476191Y83785714D01*
X27285714Y83785714D01*
X27190476Y83833333D01*
X27142857Y83880952D01*
X27095238Y83976190D01*
X27095238Y84261905D01*
X27142857Y84357143D01*
X27190476Y84404762D01*
X27285714Y84452381D01*
X27476191Y84452381D01*
X27571429Y84404762D01*
X26666667Y84452381D02*
X26666667Y83785714D01*
X26666667Y83452381D02*
X26714286Y83500000D01*
X26666667Y83547619D01*
X26619048Y83500000D01*
X26666667Y83452381D01*
X26666667Y83547619D01*
X26190477Y83785714D02*
X26190477Y84452381D01*
X26190477Y83880952D02*
X26142858Y83833333D01*
X26047620Y83785714D01*
X25904762Y83785714D01*
X25809524Y83833333D01*
X25761905Y83928571D01*
X25761905Y84452381D01*
X24857143Y84452381D02*
X24857143Y83452381D01*
X24857143Y84404762D02*
X24952381Y84452381D01*
X25142858Y84452381D01*
X25238096Y84404762D01*
X25285715Y84357143D01*
X25333334Y84261905D01*
X25333334Y83976190D01*
X25285715Y83880952D01*
X25238096Y83833333D01*
X25142858Y83785714D01*
X24952381Y83785714D01*
X24857143Y83833333D01*
X24238096Y84452381D02*
X24333334Y84404762D01*
X24380953Y84309524D01*
X24380953Y83452381D01*
X23476190Y84404762D02*
X23571428Y84452381D01*
X23761905Y84452381D01*
X23857143Y84404762D01*
X23904762Y84309524D01*
X23904762Y83928571D01*
X23857143Y83833333D01*
X23761905Y83785714D01*
X23571428Y83785714D01*
X23476190Y83833333D01*
X23428571Y83928571D01*
X23428571Y84023810D01*
X23904762Y84119048D01*
X19209524Y84028571D02*
X18876190Y84028571D01*
X18733333Y84552381D02*
X19209524Y84552381D01*
X19209524Y83552381D01*
X18733333Y83552381D01*
X18304762Y84552381D02*
X18304762Y83552381D01*
X17971428Y84266667D01*
X17638095Y83552381D01*
X17638095Y84552381D01*
X16971429Y83552381D02*
X16780952Y83552381D01*
X16685714Y83600000D01*
X16590476Y83695238D01*
X16542857Y83885714D01*
X16542857Y84219048D01*
X16590476Y84409524D01*
X16685714Y84504762D01*
X16780952Y84552381D01*
X16971429Y84552381D01*
X17066667Y84504762D01*
X17161905Y84409524D01*
X17209524Y84219048D01*
X17209524Y83885714D01*
X17161905Y83695238D01*
X17066667Y83600000D01*
X16971429Y83552381D01*
X14419048Y83452381D02*
X13752381Y83452381D01*
X14419048Y84452381D01*
X13752381Y84452381D01*
X12133333Y84452381D02*
X12609524Y84452381D01*
X12609524Y83452381D01*
X11419047Y84404762D02*
X11514285Y84452381D01*
X11704762Y84452381D01*
X11800000Y84404762D01*
X11847619Y84309524D01*
X11847619Y83928571D01*
X11800000Y83833333D01*
X11704762Y83785714D01*
X11514285Y83785714D01*
X11419047Y83833333D01*
X11371428Y83928571D01*
X11371428Y84023810D01*
X11847619Y84119048D01*
X11038095Y83785714D02*
X10800000Y84452381D01*
X10561904Y83785714D01*
X9799999Y84404762D02*
X9895237Y84452381D01*
X10085714Y84452381D01*
X10180952Y84404762D01*
X10228571Y84309524D01*
X10228571Y83928571D01*
X10180952Y83833333D01*
X10085714Y83785714D01*
X9895237Y83785714D01*
X9799999Y83833333D01*
X9752380Y83928571D01*
X9752380Y84023810D01*
X10228571Y84119048D01*
X9180952Y84452381D02*
X9276190Y84404762D01*
X9323809Y84309524D01*
X9323809Y83452381D01*
X66361905Y1547619D02*
X66028571Y2023810D01*
X65790476Y1547619D02*
X65790476Y2547619D01*
X66171429Y2547619D01*
X66266667Y2500000D01*
X66314286Y2452381D01*
X66361905Y2357143D01*
X66361905Y2214286D01*
X66314286Y2119048D01*
X66266667Y2071429D01*
X66171429Y2023810D01*
X65790476Y2023810D01*
X67171429Y1595238D02*
X67076191Y1547619D01*
X66885714Y1547619D01*
X66790476Y1595238D01*
X66742857Y1690476D01*
X66742857Y2071429D01*
X66790476Y2166667D01*
X66885714Y2214286D01*
X67076191Y2214286D01*
X67171429Y2166667D01*
X67219048Y2071429D01*
X67219048Y1976190D01*
X66742857Y1880952D01*
X67600000Y1595238D02*
X67695238Y1547619D01*
X67885714Y1547619D01*
X67980953Y1595238D01*
X68028572Y1690476D01*
X68028572Y1738095D01*
X67980953Y1833333D01*
X67885714Y1880952D01*
X67742857Y1880952D01*
X67647619Y1928571D01*
X67600000Y2023810D01*
X67600000Y2071429D01*
X67647619Y2166667D01*
X67742857Y2214286D01*
X67885714Y2214286D01*
X67980953Y2166667D01*
X68838096Y1595238D02*
X68742858Y1547619D01*
X68552381Y1547619D01*
X68457143Y1595238D01*
X68409524Y1690476D01*
X68409524Y2071429D01*
X68457143Y2166667D01*
X68552381Y2214286D01*
X68742858Y2214286D01*
X68838096Y2166667D01*
X68885715Y2071429D01*
X68885715Y1976190D01*
X68409524Y1880952D01*
X69171429Y2214286D02*
X69552381Y2214286D01*
X69314286Y2547619D02*
X69314286Y1690476D01*
X69361905Y1595238D01*
X69457143Y1547619D01*
X69552381Y1547619D01*
X56738095Y5547619D02*
X57309524Y5547619D01*
X57023809Y4547619D02*
X57023809Y5547619D01*
X57547619Y5547619D02*
X58214286Y4547619D01*
X58214286Y5547619D02*
X57547619Y4547619D01*
D10*
X55857143Y8421429D02*
X56714286Y8421429D01*
X56285715Y6921429D02*
X56285715Y8421429D01*
X57071429Y8421429D02*
X58071429Y6921429D01*
X58071429Y8421429D02*
X57071429Y6921429D01*
D11*
X57233334Y1747619D02*
X56900000Y2223810D01*
X56661905Y1747619D02*
X56661905Y2747619D01*
X57042858Y2747619D01*
X57138096Y2700000D01*
X57185715Y2652381D01*
X57233334Y2557143D01*
X57233334Y2414286D01*
X57185715Y2319048D01*
X57138096Y2271429D01*
X57042858Y2223810D01*
X56661905Y2223810D01*
X57566667Y2747619D02*
X58233334Y1747619D01*
X58233334Y2747619D02*
X57566667Y1747619D01*
X67000000Y58829000D02*
X62600000Y58829000D01*
X68575000Y53304000D02*
X62600000Y53304000D01*
D13*
X51980000Y47330000D02*
X53880000Y47330000D01*
X51980000Y45430000D02*
X53880000Y45430000D01*
X50480000Y47330000D02*
X50480000Y45430000D01*
D11*
X36905000Y38635000D02*
X36905000Y37685000D01*
X47255000Y38635000D02*
X47255000Y37585000D01*
X47255000Y28285000D02*
X47255000Y29335000D01*
X36905000Y28285000D02*
X36905000Y29335000D01*
X36905000Y38635000D02*
X37955000Y38635000D01*
X36905000Y28285000D02*
X37955000Y28285000D01*
X47255000Y28285000D02*
X46205000Y28285000D01*
X47255000Y38635000D02*
X46205000Y38635000D01*
X36905000Y37685000D02*
X35630000Y37685000D01*
D13*
X92422000Y56270000D02*
X92422000Y51130000D01*
X92422000Y51130000D02*
X97622000Y51130000D01*
X97622000Y51130000D02*
X97622000Y58870000D01*
X97622000Y58870000D02*
X95022000Y58870000D01*
X95022000Y58870000D02*
X95022000Y56270000D01*
X95022000Y56270000D02*
X92422000Y56270000D01*
X92422000Y57540000D02*
X92422000Y58870000D01*
X92422000Y58870000D02*
X93752000Y58870000D01*
X57626000Y53780000D02*
X58326000Y53780000D01*
X58326000Y52580000D02*
X57626000Y52580000D01*
X79522000Y49200000D02*
X80222000Y49200000D01*
X80222000Y48000000D02*
X79522000Y48000000D01*
X15677916Y15941178D02*
X15677916Y14521178D01*
X9077916Y16701178D02*
X9077916Y14521178D01*
X9077916Y10101178D02*
X9077916Y12281178D01*
X15677916Y10861178D02*
X15677916Y12281178D01*
X9077916Y16701178D02*
X14917916Y16701178D01*
X14917916Y16701178D02*
X15677916Y15941178D01*
X15677916Y10861178D02*
X14917916Y10101178D01*
X14917916Y10101178D02*
X9077916Y10101178D01*
X17000000Y57400000D02*
X17000000Y56700000D01*
X15800000Y56700000D02*
X15800000Y57400000D01*
X16200000Y25800000D02*
X15500000Y25800000D01*
X15500000Y27000000D02*
X16200000Y27000000D01*
X25600000Y59400000D02*
X25600000Y58700000D01*
X24400000Y58700000D02*
X24400000Y59400000D01*
X2410000Y29560000D02*
X5090000Y29560000D01*
X10790000Y29560000D02*
X8110000Y29560000D01*
X10030000Y37940000D02*
X8110000Y37940000D01*
X3170000Y37940000D02*
X5090000Y37940000D01*
X2410000Y29560000D02*
X2410000Y37180000D01*
X2410000Y37180000D02*
X3170000Y37940000D01*
X10030000Y37940000D02*
X10790000Y37180000D01*
X10790000Y37180000D02*
X10790000Y29560000D01*
X40732000Y45198000D02*
X40732000Y45898000D01*
X41932000Y45898000D02*
X41932000Y45198000D01*
X39000000Y43800000D02*
X38300000Y43800000D01*
X38300000Y45000000D02*
X39000000Y45000000D01*
X31788000Y31244000D02*
X31088000Y31244000D01*
X31088000Y32444000D02*
X31788000Y32444000D01*
X44218000Y22554000D02*
X44218000Y21854000D01*
X43018000Y21854000D02*
X43018000Y22554000D01*
X52932000Y31428000D02*
X53632000Y31428000D01*
X53632000Y30228000D02*
X52932000Y30228000D01*
X65290000Y36440000D02*
X65290000Y35740000D01*
X64090000Y35740000D02*
X64090000Y36440000D01*
X64090000Y32530000D02*
X64090000Y33230000D01*
X65290000Y33230000D02*
X65290000Y32530000D01*
X50600000Y49230000D02*
X50600000Y49930000D01*
X51800000Y49930000D02*
X51800000Y49230000D01*
X54010000Y49230000D02*
X54010000Y49930000D01*
X55210000Y49930000D02*
X55210000Y49230000D01*
X78590000Y79250000D02*
X78590000Y79950000D01*
X79790000Y79950000D02*
X79790000Y79250000D01*
X76010000Y79250000D02*
X76010000Y79950000D01*
X77210000Y79950000D02*
X77210000Y79250000D01*
X52270000Y79250000D02*
X52270000Y79950000D01*
X53470000Y79950000D02*
X53470000Y79250000D01*
X49800000Y79250000D02*
X49800000Y79950000D01*
X51000000Y79950000D02*
X51000000Y79250000D01*
X57400000Y79250000D02*
X57400000Y79950000D01*
X58600000Y79950000D02*
X58600000Y79250000D01*
X54800000Y79250000D02*
X54800000Y79950000D01*
X56000000Y79950000D02*
X56000000Y79250000D01*
X25690000Y79250000D02*
X25690000Y79950000D01*
X26890000Y79950000D02*
X26890000Y79250000D01*
X23200000Y79250000D02*
X23200000Y79950000D01*
X24400000Y79950000D02*
X24400000Y79250000D01*
X73470000Y79250000D02*
X73470000Y79950000D01*
X74670000Y79950000D02*
X74670000Y79250000D01*
X71000000Y79250000D02*
X71000000Y79950000D01*
X72200000Y79950000D02*
X72200000Y79250000D01*
X13200000Y53550000D02*
X13200000Y56850000D01*
X13200000Y56850000D02*
X7800000Y56850000D01*
X13200000Y53550000D02*
X7800000Y53550000D01*
X13200000Y58750000D02*
X13200000Y62050000D01*
X13200000Y62050000D02*
X7800000Y62050000D01*
X13200000Y58750000D02*
X7800000Y58750000D01*
X19377916Y28250000D02*
X19377916Y32550000D01*
X19377916Y32550000D02*
X13677916Y32550000D01*
X19377916Y28250000D02*
X13677916Y28250000D01*
X24500000Y54500000D02*
X24500000Y53500000D01*
X24500000Y53500000D02*
X26600000Y53500000D01*
X24500000Y54500000D02*
X26600000Y54500000D01*
X50230000Y10778000D02*
X49570000Y10778000D01*
X51890000Y10778000D02*
X51230000Y10778000D01*
X51890000Y10778000D02*
X51890000Y12808000D01*
X49570000Y12188000D02*
X49570000Y10778000D01*
X73950000Y1250000D02*
X81650000Y1250000D01*
X73950000Y250000D02*
X81650000Y250000D01*
X81650000Y250000D02*
X81650000Y9450000D01*
X81650000Y9450000D02*
X73950000Y9450000D01*
X73950000Y9450000D02*
X73950000Y250000D01*
X6670000Y45870000D02*
X11810000Y45870000D01*
X11810000Y45870000D02*
X11810000Y48530000D01*
X11810000Y48530000D02*
X6670000Y48530000D01*
X6670000Y48530000D02*
X6670000Y45870000D01*
X5400000Y45870000D02*
X4070000Y45870000D01*
X4070000Y45870000D02*
X4070000Y47200000D01*
X22300000Y61050000D02*
X21300000Y61050000D01*
X21300000Y59350000D02*
X22300000Y59350000D01*
D11*
X18750000Y34200000D02*
X13650000Y34200000D01*
X18750000Y39400000D02*
X13650000Y39400000D01*
D13*
X92422000Y70270000D02*
X92422000Y65130000D01*
X92422000Y65130000D02*
X97622000Y65130000D01*
X97622000Y65130000D02*
X97622000Y72870000D01*
X97622000Y72870000D02*
X95022000Y72870000D01*
X95022000Y72870000D02*
X95022000Y70270000D01*
X95022000Y70270000D02*
X92422000Y70270000D01*
X92422000Y71540000D02*
X92422000Y72870000D01*
X92422000Y72870000D02*
X93752000Y72870000D01*
X92422000Y42270000D02*
X92422000Y37130000D01*
X92422000Y37130000D02*
X97622000Y37130000D01*
X97622000Y37130000D02*
X97622000Y44870000D01*
X97622000Y44870000D02*
X95022000Y44870000D01*
X95022000Y44870000D02*
X95022000Y42270000D01*
X95022000Y42270000D02*
X92422000Y42270000D01*
X92422000Y43540000D02*
X92422000Y44870000D01*
X92422000Y44870000D02*
X93752000Y44870000D01*
X92422000Y28270000D02*
X92422000Y23130000D01*
X92422000Y23130000D02*
X97622000Y23130000D01*
X97622000Y23130000D02*
X97622000Y30870000D01*
X97622000Y30870000D02*
X95022000Y30870000D01*
X95022000Y30870000D02*
X95022000Y28270000D01*
X95022000Y28270000D02*
X92422000Y28270000D01*
X92422000Y29540000D02*
X92422000Y30870000D01*
X92422000Y30870000D02*
X93752000Y30870000D01*
X44470000Y88330000D02*
X39330000Y88330000D01*
X39330000Y88330000D02*
X39330000Y85670000D01*
X39330000Y85670000D02*
X44470000Y85670000D01*
X44470000Y85670000D02*
X44470000Y88330000D01*
X45740000Y88330000D02*
X47070000Y88330000D01*
X47070000Y88330000D02*
X47070000Y87000000D01*
X58470000Y88330000D02*
X53330000Y88330000D01*
X53330000Y88330000D02*
X53330000Y85670000D01*
X53330000Y85670000D02*
X58470000Y85670000D01*
X58470000Y85670000D02*
X58470000Y88330000D01*
X59740000Y88330000D02*
X61070000Y88330000D01*
X61070000Y88330000D02*
X61070000Y87000000D01*
X72470000Y88330000D02*
X67330000Y88330000D01*
X67330000Y88330000D02*
X67330000Y85670000D01*
X67330000Y85670000D02*
X72470000Y85670000D01*
X72470000Y85670000D02*
X72470000Y88330000D01*
X73740000Y88330000D02*
X75070000Y88330000D01*
X75070000Y88330000D02*
X75070000Y87000000D01*
X86470000Y88330000D02*
X81330000Y88330000D01*
X81330000Y88330000D02*
X81330000Y85670000D01*
X81330000Y85670000D02*
X86470000Y85670000D01*
X86470000Y85670000D02*
X86470000Y88330000D01*
X87740000Y88330000D02*
X89070000Y88330000D01*
X89070000Y88330000D02*
X89070000Y87000000D01*
X16470000Y88330000D02*
X11330000Y88330000D01*
X11330000Y88330000D02*
X11330000Y85670000D01*
X11330000Y85670000D02*
X16470000Y85670000D01*
X16470000Y85670000D02*
X16470000Y88330000D01*
X17740000Y88330000D02*
X19070000Y88330000D01*
X19070000Y88330000D02*
X19070000Y87000000D01*
X30470000Y88330000D02*
X25330000Y88330000D01*
X25330000Y88330000D02*
X25330000Y85670000D01*
X25330000Y85670000D02*
X30470000Y85670000D01*
X30470000Y85670000D02*
X30470000Y88330000D01*
X31740000Y88330000D02*
X33070000Y88330000D01*
X33070000Y88330000D02*
X33070000Y87000000D01*
X6680000Y70940000D02*
X6680000Y81160000D01*
X6680000Y81160000D02*
X1480000Y81160000D01*
X1480000Y81160000D02*
X1480000Y68340000D01*
X1480000Y68340000D02*
X4080000Y68340000D01*
X4080000Y68340000D02*
X4080000Y70940000D01*
X4080000Y70940000D02*
X6680000Y70940000D01*
X6680000Y69670000D02*
X6680000Y68340000D01*
X6680000Y68340000D02*
X5350000Y68340000D01*
X62270000Y1130000D02*
X64870000Y1130000D01*
X64870000Y1130000D02*
X64870000Y6330000D01*
X64870000Y6330000D02*
X59670000Y6330000D01*
X59670000Y6330000D02*
X59670000Y3730000D01*
X59670000Y3730000D02*
X62270000Y3730000D01*
X62270000Y3730000D02*
X62270000Y1130000D01*
X61000000Y1130000D02*
X59670000Y1130000D01*
X59670000Y1130000D02*
X59670000Y2460000D01*
X25730000Y1130000D02*
X30870000Y1130000D01*
X30870000Y1130000D02*
X30870000Y6330000D01*
X30870000Y6330000D02*
X23130000Y6330000D01*
X23130000Y6330000D02*
X23130000Y3730000D01*
X23130000Y3730000D02*
X25730000Y3730000D01*
X25730000Y3730000D02*
X25730000Y1130000D01*
X24460000Y1130000D02*
X23130000Y1130000D01*
X23130000Y1130000D02*
X23130000Y2460000D01*
X51350000Y3930000D02*
X38590000Y3930000D01*
X38590000Y3930000D02*
X38590000Y1270000D01*
X38590000Y1270000D02*
X51350000Y1270000D01*
X51350000Y1270000D02*
X51350000Y3930000D01*
X52620000Y3930000D02*
X53950000Y3930000D01*
X53950000Y3930000D02*
X53950000Y2600000D01*
X53840000Y16330000D02*
X53840000Y15400000D01*
X53840000Y13170000D02*
X53840000Y14100000D01*
X53840000Y13170000D02*
X56000000Y13170000D01*
X53840000Y16330000D02*
X55300000Y16330000D01*
X30320000Y53250000D02*
X30320000Y54250000D01*
X31680000Y54250000D02*
X31680000Y53250000D01*
X35320000Y53250000D02*
X35320000Y54250000D01*
X36680000Y54250000D02*
X36680000Y53250000D01*
X18627916Y16681178D02*
X19827916Y16681178D01*
X19827916Y14921178D02*
X18627916Y14921178D01*
X12350000Y17921178D02*
X11350000Y17921178D01*
X11350000Y19281178D02*
X12350000Y19281178D01*
X11997916Y24551178D02*
X11997916Y25551178D01*
X13357916Y25551178D02*
X13357916Y24551178D01*
X18850000Y52280000D02*
X19850000Y52280000D01*
X19850000Y50920000D02*
X18850000Y50920000D01*
X19850000Y52920000D02*
X18850000Y52920000D01*
X18850000Y54280000D02*
X19850000Y54280000D01*
X27720000Y56450000D02*
X27720000Y57450000D01*
X29080000Y57450000D02*
X29080000Y56450000D01*
X52350000Y6780000D02*
X51350000Y6780000D01*
X51350000Y8140000D02*
X52350000Y8140000D01*
X51300000Y14120000D02*
X50300000Y14120000D01*
X50300000Y15480000D02*
X51300000Y15480000D01*
X54350000Y18680000D02*
X55350000Y18680000D01*
X55350000Y17320000D02*
X54350000Y17320000D01*
X54350000Y12280000D02*
X55350000Y12280000D01*
X55350000Y10920000D02*
X54350000Y10920000D01*
X57330000Y36010000D02*
X56330000Y36010000D01*
X56330000Y37370000D02*
X57330000Y37370000D01*
X44208000Y8472000D02*
X44208000Y9472000D01*
X45568000Y9472000D02*
X45568000Y8472000D01*
X41668000Y8472000D02*
X41668000Y9472000D01*
X43028000Y9472000D02*
X43028000Y8472000D01*
D11*
X75422000Y41875000D02*
X79822000Y41875000D01*
X73847000Y47400000D02*
X79822000Y47400000D01*
X19887916Y23376178D02*
X19837916Y23376178D01*
X19887916Y19226178D02*
X19742916Y19226178D01*
X14737916Y19226178D02*
X14882916Y19226178D01*
X14737916Y23376178D02*
X14882916Y23376178D01*
X19887916Y23376178D02*
X19887916Y19226178D01*
X14737916Y23376178D02*
X14737916Y19226178D01*
X19837916Y23376178D02*
X19837916Y24776178D01*
D13*
X20600000Y58460000D02*
X18800000Y58460000D01*
X18800000Y55240000D02*
X21250000Y55240000D01*
X38032000Y7588000D02*
X38032000Y9488000D01*
X35712000Y8988000D02*
X35712000Y7588000D01*
D11*
X32543000Y71813000D02*
X31781000Y71813000D01*
X31781000Y71813000D02*
X31781000Y73337000D01*
X31781000Y73337000D02*
X32543000Y73337000D01*
X21367000Y70289000D02*
X21367000Y74861000D01*
X21367000Y74861000D02*
X32543000Y74861000D01*
X32543000Y74861000D02*
X32543000Y70289000D01*
X32543000Y70289000D02*
X21367000Y70289000D01*
X59143000Y71813000D02*
X58381000Y71813000D01*
X58381000Y71813000D02*
X58381000Y73337000D01*
X58381000Y73337000D02*
X59143000Y73337000D01*
X47967000Y70289000D02*
X47967000Y74861000D01*
X47967000Y74861000D02*
X59143000Y74861000D01*
X59143000Y74861000D02*
X59143000Y70289000D01*
X59143000Y70289000D02*
X47967000Y70289000D01*
X80343000Y71813000D02*
X79581000Y71813000D01*
X79581000Y71813000D02*
X79581000Y73337000D01*
X79581000Y73337000D02*
X80343000Y73337000D01*
X69167000Y70289000D02*
X69167000Y74861000D01*
X69167000Y74861000D02*
X80343000Y74861000D01*
X80343000Y74861000D02*
X80343000Y70289000D01*
X80343000Y70289000D02*
X69167000Y70289000D01*
D13*
X62420000Y31300000D02*
X62420000Y37850000D01*
X62420000Y37850000D02*
X58520000Y37850000D01*
X58520000Y37850000D02*
X58520000Y31300000D01*
D11*
X34075000Y50975000D02*
X33075000Y50975000D01*
X34475000Y53175000D02*
X34475000Y51375000D01*
X32675000Y53175000D02*
X32675000Y51375000D01*
D13*
X35450000Y70880000D02*
X34650000Y70880000D01*
X35450000Y74320000D02*
X34650000Y74320000D01*
X18350000Y74320000D02*
X19150000Y74320000D01*
X18350000Y70880000D02*
X19150000Y70880000D01*
X62350000Y70480000D02*
X61550000Y70480000D01*
X62350000Y73920000D02*
X61550000Y73920000D01*
X52480000Y62950000D02*
X52480000Y63750000D01*
X55920000Y62950000D02*
X55920000Y63750000D01*
X83520000Y70524000D02*
X82720000Y70524000D01*
X83520000Y73964000D02*
X82720000Y73964000D01*
X73680000Y62950000D02*
X73680000Y63750000D01*
X77120000Y62950000D02*
X77120000Y63750000D01*
X29680000Y44750000D02*
X29680000Y43750000D01*
X28320000Y43750000D02*
X28320000Y44750000D01*
X34680000Y44750000D02*
X34680000Y43750000D01*
X33320000Y43750000D02*
X33320000Y44750000D01*
X31530000Y48760000D02*
X30600000Y48760000D01*
X28370000Y48760000D02*
X29300000Y48760000D01*
X28370000Y48760000D02*
X28370000Y46600000D01*
X31530000Y48760000D02*
X31530000Y47300000D01*
X36530000Y48760000D02*
X35600000Y48760000D01*
X33370000Y48760000D02*
X34300000Y48760000D01*
X33370000Y48760000D02*
X33370000Y46600000D01*
X36530000Y48760000D02*
X36530000Y47300000D01*
D11*
X65285714Y60847619D02*
X65285714Y60038095D01*
X65333333Y59942857D01*
X65380952Y59895238D01*
X65476190Y59847619D01*
X65666667Y59847619D01*
X65761905Y59895238D01*
X65809524Y59942857D01*
X65857143Y60038095D01*
X65857143Y60847619D01*
X66857143Y59847619D02*
X66285714Y59847619D01*
X66571428Y59847619D02*
X66571428Y60847619D01*
X66476190Y60704762D01*
X66380952Y60609524D01*
X66285714Y60561905D01*
X67476190Y60847619D02*
X67571429Y60847619D01*
X67666667Y60800000D01*
X67714286Y60752381D01*
X67761905Y60657143D01*
X67809524Y60466667D01*
X67809524Y60228571D01*
X67761905Y60038095D01*
X67714286Y59942857D01*
X67666667Y59895238D01*
X67571429Y59847619D01*
X67476190Y59847619D01*
X67380952Y59895238D01*
X67333333Y59942857D01*
X67285714Y60038095D01*
X67238095Y60228571D01*
X67238095Y60466667D01*
X67285714Y60657143D01*
X67333333Y60752381D01*
X67380952Y60800000D01*
X67476190Y60847619D01*
X68190476Y60752381D02*
X68238095Y60800000D01*
X68333333Y60847619D01*
X68571429Y60847619D01*
X68666667Y60800000D01*
X68714286Y60752381D01*
X68761905Y60657143D01*
X68761905Y60561905D01*
X68714286Y60419048D01*
X68142857Y59847619D01*
X68761905Y59847619D01*
X56271428Y46323810D02*
X56271428Y45847619D01*
X55938095Y46847619D02*
X56271428Y46323810D01*
X56604762Y46847619D01*
X56890476Y46752381D02*
X56938095Y46800000D01*
X57033333Y46847619D01*
X57271429Y46847619D01*
X57366667Y46800000D01*
X57414286Y46752381D01*
X57461905Y46657143D01*
X57461905Y46561905D01*
X57414286Y46419048D01*
X56842857Y45847619D01*
X57461905Y45847619D01*
X58080952Y46847619D02*
X58176191Y46847619D01*
X58271429Y46800000D01*
X58319048Y46752381D01*
X58366667Y46657143D01*
X58414286Y46466667D01*
X58414286Y46228571D01*
X58366667Y46038095D01*
X58319048Y45942857D01*
X58271429Y45895238D01*
X58176191Y45847619D01*
X58080952Y45847619D01*
X57985714Y45895238D01*
X57938095Y45942857D01*
X57890476Y46038095D01*
X57842857Y46228571D01*
X57842857Y46466667D01*
X57890476Y46657143D01*
X57938095Y46752381D01*
X57985714Y46800000D01*
X58080952Y46847619D01*
X58795238Y46752381D02*
X58842857Y46800000D01*
X58938095Y46847619D01*
X59176191Y46847619D01*
X59271429Y46800000D01*
X59319048Y46752381D01*
X59366667Y46657143D01*
X59366667Y46561905D01*
X59319048Y46419048D01*
X58747619Y45847619D01*
X59366667Y45847619D01*
X45485714Y42147619D02*
X45485714Y41338095D01*
X45533333Y41242857D01*
X45580952Y41195238D01*
X45676190Y41147619D01*
X45866667Y41147619D01*
X45961905Y41195238D01*
X46009524Y41242857D01*
X46057143Y41338095D01*
X46057143Y42147619D01*
X47057143Y41147619D02*
X46485714Y41147619D01*
X46771428Y41147619D02*
X46771428Y42147619D01*
X46676190Y42004762D01*
X46580952Y41909524D01*
X46485714Y41861905D01*
X47676190Y42147619D02*
X47771429Y42147619D01*
X47866667Y42100000D01*
X47914286Y42052381D01*
X47961905Y41957143D01*
X48009524Y41766667D01*
X48009524Y41528571D01*
X47961905Y41338095D01*
X47914286Y41242857D01*
X47866667Y41195238D01*
X47771429Y41147619D01*
X47676190Y41147619D01*
X47580952Y41195238D01*
X47533333Y41242857D01*
X47485714Y41338095D01*
X47438095Y41528571D01*
X47438095Y41766667D01*
X47485714Y41957143D01*
X47533333Y42052381D01*
X47580952Y42100000D01*
X47676190Y42147619D01*
X48961905Y41147619D02*
X48390476Y41147619D01*
X48676190Y41147619D02*
X48676190Y42147619D01*
X48580952Y42004762D01*
X48485714Y41909524D01*
X48390476Y41861905D01*
X92109524Y60447619D02*
X92109524Y61447619D01*
X92490477Y61447619D01*
X92585715Y61400000D01*
X92633334Y61352381D01*
X92680953Y61257143D01*
X92680953Y61114286D01*
X92633334Y61019048D01*
X92585715Y60971429D01*
X92490477Y60923810D01*
X92109524Y60923810D01*
X93633334Y60447619D02*
X93061905Y60447619D01*
X93347619Y60447619D02*
X93347619Y61447619D01*
X93252381Y61304762D01*
X93157143Y61209524D01*
X93061905Y61161905D01*
X94252381Y61447619D02*
X94347620Y61447619D01*
X94442858Y61400000D01*
X94490477Y61352381D01*
X94538096Y61257143D01*
X94585715Y61066667D01*
X94585715Y60828571D01*
X94538096Y60638095D01*
X94490477Y60542857D01*
X94442858Y60495238D01*
X94347620Y60447619D01*
X94252381Y60447619D01*
X94157143Y60495238D01*
X94109524Y60542857D01*
X94061905Y60638095D01*
X94014286Y60828571D01*
X94014286Y61066667D01*
X94061905Y61257143D01*
X94109524Y61352381D01*
X94157143Y61400000D01*
X94252381Y61447619D01*
X94966667Y61352381D02*
X95014286Y61400000D01*
X95109524Y61447619D01*
X95347620Y61447619D01*
X95442858Y61400000D01*
X95490477Y61352381D01*
X95538096Y61257143D01*
X95538096Y61161905D01*
X95490477Y61019048D01*
X94919048Y60447619D01*
X95538096Y60447619D01*
X53980953Y54322857D02*
X53933334Y54275238D01*
X53790477Y54227619D01*
X53695239Y54227619D01*
X53552381Y54275238D01*
X53457143Y54370476D01*
X53409524Y54465714D01*
X53361905Y54656190D01*
X53361905Y54799048D01*
X53409524Y54989524D01*
X53457143Y55084762D01*
X53552381Y55180000D01*
X53695239Y55227619D01*
X53790477Y55227619D01*
X53933334Y55180000D01*
X53980953Y55132381D01*
X54933334Y54227619D02*
X54361905Y54227619D01*
X54647619Y54227619D02*
X54647619Y55227619D01*
X54552381Y55084762D01*
X54457143Y54989524D01*
X54361905Y54941905D01*
X55552381Y55227619D02*
X55647620Y55227619D01*
X55742858Y55180000D01*
X55790477Y55132381D01*
X55838096Y55037143D01*
X55885715Y54846667D01*
X55885715Y54608571D01*
X55838096Y54418095D01*
X55790477Y54322857D01*
X55742858Y54275238D01*
X55647620Y54227619D01*
X55552381Y54227619D01*
X55457143Y54275238D01*
X55409524Y54322857D01*
X55361905Y54418095D01*
X55314286Y54608571D01*
X55314286Y54846667D01*
X55361905Y55037143D01*
X55409524Y55132381D01*
X55457143Y55180000D01*
X55552381Y55227619D01*
X56838096Y54227619D02*
X56266667Y54227619D01*
X56552381Y54227619D02*
X56552381Y55227619D01*
X56457143Y55084762D01*
X56361905Y54989524D01*
X56266667Y54941905D01*
X82280953Y49842857D02*
X82233334Y49795238D01*
X82090477Y49747619D01*
X81995239Y49747619D01*
X81852381Y49795238D01*
X81757143Y49890476D01*
X81709524Y49985714D01*
X81661905Y50176190D01*
X81661905Y50319048D01*
X81709524Y50509524D01*
X81757143Y50604762D01*
X81852381Y50700000D01*
X81995239Y50747619D01*
X82090477Y50747619D01*
X82233334Y50700000D01*
X82280953Y50652381D01*
X83233334Y49747619D02*
X82661905Y49747619D01*
X82947619Y49747619D02*
X82947619Y50747619D01*
X82852381Y50604762D01*
X82757143Y50509524D01*
X82661905Y50461905D01*
X83852381Y50747619D02*
X83947620Y50747619D01*
X84042858Y50700000D01*
X84090477Y50652381D01*
X84138096Y50557143D01*
X84185715Y50366667D01*
X84185715Y50128571D01*
X84138096Y49938095D01*
X84090477Y49842857D01*
X84042858Y49795238D01*
X83947620Y49747619D01*
X83852381Y49747619D01*
X83757143Y49795238D01*
X83709524Y49842857D01*
X83661905Y49938095D01*
X83614286Y50128571D01*
X83614286Y50366667D01*
X83661905Y50557143D01*
X83709524Y50652381D01*
X83757143Y50700000D01*
X83852381Y50747619D01*
X84566667Y50652381D02*
X84614286Y50700000D01*
X84709524Y50747619D01*
X84947620Y50747619D01*
X85042858Y50700000D01*
X85090477Y50652381D01*
X85138096Y50557143D01*
X85138096Y50461905D01*
X85090477Y50319048D01*
X84519048Y49747619D01*
X85138096Y49747619D01*
X18280953Y10242857D02*
X18233334Y10195238D01*
X18090477Y10147619D01*
X17995239Y10147619D01*
X17852381Y10195238D01*
X17757143Y10290476D01*
X17709524Y10385714D01*
X17661905Y10576190D01*
X17661905Y10719048D01*
X17709524Y10909524D01*
X17757143Y11004762D01*
X17852381Y11100000D01*
X17995239Y11147619D01*
X18090477Y11147619D01*
X18233334Y11100000D01*
X18280953Y11052381D01*
X18661905Y11052381D02*
X18709524Y11100000D01*
X18804762Y11147619D01*
X19042858Y11147619D01*
X19138096Y11100000D01*
X19185715Y11052381D01*
X19233334Y10957143D01*
X19233334Y10861905D01*
X19185715Y10719048D01*
X18614286Y10147619D01*
X19233334Y10147619D01*
X19852381Y11147619D02*
X19947620Y11147619D01*
X20042858Y11100000D01*
X20090477Y11052381D01*
X20138096Y10957143D01*
X20185715Y10766667D01*
X20185715Y10528571D01*
X20138096Y10338095D01*
X20090477Y10242857D01*
X20042858Y10195238D01*
X19947620Y10147619D01*
X19852381Y10147619D01*
X19757143Y10195238D01*
X19709524Y10242857D01*
X19661905Y10338095D01*
X19614286Y10528571D01*
X19614286Y10766667D01*
X19661905Y10957143D01*
X19709524Y11052381D01*
X19757143Y11100000D01*
X19852381Y11147619D01*
X21138096Y10147619D02*
X20566667Y10147619D01*
X20852381Y10147619D02*
X20852381Y11147619D01*
X20757143Y11004762D01*
X20661905Y10909524D01*
X20566667Y10861905D01*
X16276964Y16239749D02*
X17038869Y16239749D01*
X16657917Y15858797D02*
X16657917Y16620702D01*
X15057143Y58480953D02*
X15104762Y58433334D01*
X15152381Y58290477D01*
X15152381Y58195239D01*
X15104762Y58052381D01*
X15009524Y57957143D01*
X14914286Y57909524D01*
X14723810Y57861905D01*
X14580952Y57861905D01*
X14390476Y57909524D01*
X14295238Y57957143D01*
X14200000Y58052381D01*
X14152381Y58195239D01*
X14152381Y58290477D01*
X14200000Y58433334D01*
X14247619Y58480953D01*
X14247619Y58861905D02*
X14200000Y58909524D01*
X14152381Y59004762D01*
X14152381Y59242858D01*
X14200000Y59338096D01*
X14247619Y59385715D01*
X14342857Y59433334D01*
X14438095Y59433334D01*
X14580952Y59385715D01*
X15152381Y58814286D01*
X15152381Y59433334D01*
X14152381Y60052381D02*
X14152381Y60147620D01*
X14200000Y60242858D01*
X14247619Y60290477D01*
X14342857Y60338096D01*
X14533333Y60385715D01*
X14771429Y60385715D01*
X14961905Y60338096D01*
X15057143Y60290477D01*
X15104762Y60242858D01*
X15152381Y60147620D01*
X15152381Y60052381D01*
X15104762Y59957143D01*
X15057143Y59909524D01*
X14961905Y59861905D01*
X14771429Y59814286D01*
X14533333Y59814286D01*
X14342857Y59861905D01*
X14247619Y59909524D01*
X14200000Y59957143D01*
X14152381Y60052381D01*
X14247619Y60766667D02*
X14200000Y60814286D01*
X14152381Y60909524D01*
X14152381Y61147620D01*
X14200000Y61242858D01*
X14247619Y61290477D01*
X14342857Y61338096D01*
X14438095Y61338096D01*
X14580952Y61290477D01*
X15152381Y60719048D01*
X15152381Y61338096D01*
X18780953Y26042857D02*
X18733334Y25995238D01*
X18590477Y25947619D01*
X18495239Y25947619D01*
X18352381Y25995238D01*
X18257143Y26090476D01*
X18209524Y26185714D01*
X18161905Y26376190D01*
X18161905Y26519048D01*
X18209524Y26709524D01*
X18257143Y26804762D01*
X18352381Y26900000D01*
X18495239Y26947619D01*
X18590477Y26947619D01*
X18733334Y26900000D01*
X18780953Y26852381D01*
X19161905Y26852381D02*
X19209524Y26900000D01*
X19304762Y26947619D01*
X19542858Y26947619D01*
X19638096Y26900000D01*
X19685715Y26852381D01*
X19733334Y26757143D01*
X19733334Y26661905D01*
X19685715Y26519048D01*
X19114286Y25947619D01*
X19733334Y25947619D01*
X20352381Y26947619D02*
X20447620Y26947619D01*
X20542858Y26900000D01*
X20590477Y26852381D01*
X20638096Y26757143D01*
X20685715Y26566667D01*
X20685715Y26328571D01*
X20638096Y26138095D01*
X20590477Y26042857D01*
X20542858Y25995238D01*
X20447620Y25947619D01*
X20352381Y25947619D01*
X20257143Y25995238D01*
X20209524Y26042857D01*
X20161905Y26138095D01*
X20114286Y26328571D01*
X20114286Y26566667D01*
X20161905Y26757143D01*
X20209524Y26852381D01*
X20257143Y26900000D01*
X20352381Y26947619D01*
X21019048Y26947619D02*
X21638096Y26947619D01*
X21304762Y26566667D01*
X21447620Y26566667D01*
X21542858Y26519048D01*
X21590477Y26471429D01*
X21638096Y26376190D01*
X21638096Y26138095D01*
X21590477Y26042857D01*
X21542858Y25995238D01*
X21447620Y25947619D01*
X21161905Y25947619D01*
X21066667Y25995238D01*
X21019048Y26042857D01*
X26580953Y60492857D02*
X26533334Y60445238D01*
X26390477Y60397619D01*
X26295239Y60397619D01*
X26152381Y60445238D01*
X26057143Y60540476D01*
X26009524Y60635714D01*
X25961905Y60826190D01*
X25961905Y60969048D01*
X26009524Y61159524D01*
X26057143Y61254762D01*
X26152381Y61350000D01*
X26295239Y61397619D01*
X26390477Y61397619D01*
X26533334Y61350000D01*
X26580953Y61302381D01*
X26961905Y61302381D02*
X27009524Y61350000D01*
X27104762Y61397619D01*
X27342858Y61397619D01*
X27438096Y61350000D01*
X27485715Y61302381D01*
X27533334Y61207143D01*
X27533334Y61111905D01*
X27485715Y60969048D01*
X26914286Y60397619D01*
X27533334Y60397619D01*
X28152381Y61397619D02*
X28247620Y61397619D01*
X28342858Y61350000D01*
X28390477Y61302381D01*
X28438096Y61207143D01*
X28485715Y61016667D01*
X28485715Y60778571D01*
X28438096Y60588095D01*
X28390477Y60492857D01*
X28342858Y60445238D01*
X28247620Y60397619D01*
X28152381Y60397619D01*
X28057143Y60445238D01*
X28009524Y60492857D01*
X27961905Y60588095D01*
X27914286Y60778571D01*
X27914286Y61016667D01*
X27961905Y61207143D01*
X28009524Y61302381D01*
X28057143Y61350000D01*
X28152381Y61397619D01*
X29342858Y61064286D02*
X29342858Y60397619D01*
X29104762Y61445238D02*
X28866667Y60730952D01*
X29485715Y60730952D01*
X5580953Y40242857D02*
X5533334Y40195238D01*
X5390477Y40147619D01*
X5295239Y40147619D01*
X5152381Y40195238D01*
X5057143Y40290476D01*
X5009524Y40385714D01*
X4961905Y40576190D01*
X4961905Y40719048D01*
X5009524Y40909524D01*
X5057143Y41004762D01*
X5152381Y41100000D01*
X5295239Y41147619D01*
X5390477Y41147619D01*
X5533334Y41100000D01*
X5580953Y41052381D01*
X5961905Y41052381D02*
X6009524Y41100000D01*
X6104762Y41147619D01*
X6342858Y41147619D01*
X6438096Y41100000D01*
X6485715Y41052381D01*
X6533334Y40957143D01*
X6533334Y40861905D01*
X6485715Y40719048D01*
X5914286Y40147619D01*
X6533334Y40147619D01*
X7152381Y41147619D02*
X7247620Y41147619D01*
X7342858Y41100000D01*
X7390477Y41052381D01*
X7438096Y40957143D01*
X7485715Y40766667D01*
X7485715Y40528571D01*
X7438096Y40338095D01*
X7390477Y40242857D01*
X7342858Y40195238D01*
X7247620Y40147619D01*
X7152381Y40147619D01*
X7057143Y40195238D01*
X7009524Y40242857D01*
X6961905Y40338095D01*
X6914286Y40528571D01*
X6914286Y40766667D01*
X6961905Y40957143D01*
X7009524Y41052381D01*
X7057143Y41100000D01*
X7152381Y41147619D01*
X8390477Y41147619D02*
X7914286Y41147619D01*
X7866667Y40671429D01*
X7914286Y40719048D01*
X8009524Y40766667D01*
X8247620Y40766667D01*
X8342858Y40719048D01*
X8390477Y40671429D01*
X8438096Y40576190D01*
X8438096Y40338095D01*
X8390477Y40242857D01*
X8342858Y40195238D01*
X8247620Y40147619D01*
X8009524Y40147619D01*
X7914286Y40195238D01*
X7866667Y40242857D01*
X2771429Y38149048D02*
X2771429Y38910953D01*
X3152381Y38530001D02*
X2390476Y38530001D01*
X43080953Y46042857D02*
X43033334Y45995238D01*
X42890477Y45947619D01*
X42795239Y45947619D01*
X42652381Y45995238D01*
X42557143Y46090476D01*
X42509524Y46185714D01*
X42461905Y46376190D01*
X42461905Y46519048D01*
X42509524Y46709524D01*
X42557143Y46804762D01*
X42652381Y46900000D01*
X42795239Y46947619D01*
X42890477Y46947619D01*
X43033334Y46900000D01*
X43080953Y46852381D01*
X43461905Y46852381D02*
X43509524Y46900000D01*
X43604762Y46947619D01*
X43842858Y46947619D01*
X43938096Y46900000D01*
X43985715Y46852381D01*
X44033334Y46757143D01*
X44033334Y46661905D01*
X43985715Y46519048D01*
X43414286Y45947619D01*
X44033334Y45947619D01*
X44652381Y46947619D02*
X44747620Y46947619D01*
X44842858Y46900000D01*
X44890477Y46852381D01*
X44938096Y46757143D01*
X44985715Y46566667D01*
X44985715Y46328571D01*
X44938096Y46138095D01*
X44890477Y46042857D01*
X44842858Y45995238D01*
X44747620Y45947619D01*
X44652381Y45947619D01*
X44557143Y45995238D01*
X44509524Y46042857D01*
X44461905Y46138095D01*
X44414286Y46328571D01*
X44414286Y46566667D01*
X44461905Y46757143D01*
X44509524Y46852381D01*
X44557143Y46900000D01*
X44652381Y46947619D01*
X45842858Y46947619D02*
X45652381Y46947619D01*
X45557143Y46900000D01*
X45509524Y46852381D01*
X45414286Y46709524D01*
X45366667Y46519048D01*
X45366667Y46138095D01*
X45414286Y46042857D01*
X45461905Y45995238D01*
X45557143Y45947619D01*
X45747620Y45947619D01*
X45842858Y45995238D01*
X45890477Y46042857D01*
X45938096Y46138095D01*
X45938096Y46376190D01*
X45890477Y46471429D01*
X45842858Y46519048D01*
X45747620Y46566667D01*
X45557143Y46566667D01*
X45461905Y46519048D01*
X45414286Y46471429D01*
X45366667Y46376190D01*
X37480953Y42242857D02*
X37433334Y42195238D01*
X37290477Y42147619D01*
X37195239Y42147619D01*
X37052381Y42195238D01*
X36957143Y42290476D01*
X36909524Y42385714D01*
X36861905Y42576190D01*
X36861905Y42719048D01*
X36909524Y42909524D01*
X36957143Y43004762D01*
X37052381Y43100000D01*
X37195239Y43147619D01*
X37290477Y43147619D01*
X37433334Y43100000D01*
X37480953Y43052381D01*
X37861905Y43052381D02*
X37909524Y43100000D01*
X38004762Y43147619D01*
X38242858Y43147619D01*
X38338096Y43100000D01*
X38385715Y43052381D01*
X38433334Y42957143D01*
X38433334Y42861905D01*
X38385715Y42719048D01*
X37814286Y42147619D01*
X38433334Y42147619D01*
X39052381Y43147619D02*
X39147620Y43147619D01*
X39242858Y43100000D01*
X39290477Y43052381D01*
X39338096Y42957143D01*
X39385715Y42766667D01*
X39385715Y42528571D01*
X39338096Y42338095D01*
X39290477Y42242857D01*
X39242858Y42195238D01*
X39147620Y42147619D01*
X39052381Y42147619D01*
X38957143Y42195238D01*
X38909524Y42242857D01*
X38861905Y42338095D01*
X38814286Y42528571D01*
X38814286Y42766667D01*
X38861905Y42957143D01*
X38909524Y43052381D01*
X38957143Y43100000D01*
X39052381Y43147619D01*
X39719048Y43147619D02*
X40385715Y43147619D01*
X39957143Y42147619D01*
X30318953Y29986857D02*
X30271334Y29939238D01*
X30128477Y29891619D01*
X30033239Y29891619D01*
X29890381Y29939238D01*
X29795143Y30034476D01*
X29747524Y30129714D01*
X29699905Y30320190D01*
X29699905Y30463048D01*
X29747524Y30653524D01*
X29795143Y30748762D01*
X29890381Y30844000D01*
X30033239Y30891619D01*
X30128477Y30891619D01*
X30271334Y30844000D01*
X30318953Y30796381D01*
X30699905Y30796381D02*
X30747524Y30844000D01*
X30842762Y30891619D01*
X31080858Y30891619D01*
X31176096Y30844000D01*
X31223715Y30796381D01*
X31271334Y30701143D01*
X31271334Y30605905D01*
X31223715Y30463048D01*
X30652286Y29891619D01*
X31271334Y29891619D01*
X31890381Y30891619D02*
X31985620Y30891619D01*
X32080858Y30844000D01*
X32128477Y30796381D01*
X32176096Y30701143D01*
X32223715Y30510667D01*
X32223715Y30272571D01*
X32176096Y30082095D01*
X32128477Y29986857D01*
X32080858Y29939238D01*
X31985620Y29891619D01*
X31890381Y29891619D01*
X31795143Y29939238D01*
X31747524Y29986857D01*
X31699905Y30082095D01*
X31652286Y30272571D01*
X31652286Y30510667D01*
X31699905Y30701143D01*
X31747524Y30796381D01*
X31795143Y30844000D01*
X31890381Y30891619D01*
X32795143Y30463048D02*
X32699905Y30510667D01*
X32652286Y30558286D01*
X32604667Y30653524D01*
X32604667Y30701143D01*
X32652286Y30796381D01*
X32699905Y30844000D01*
X32795143Y30891619D01*
X32985620Y30891619D01*
X33080858Y30844000D01*
X33128477Y30796381D01*
X33176096Y30701143D01*
X33176096Y30653524D01*
X33128477Y30558286D01*
X33080858Y30510667D01*
X32985620Y30463048D01*
X32795143Y30463048D01*
X32699905Y30415429D01*
X32652286Y30367810D01*
X32604667Y30272571D01*
X32604667Y30082095D01*
X32652286Y29986857D01*
X32699905Y29939238D01*
X32795143Y29891619D01*
X32985620Y29891619D01*
X33080858Y29939238D01*
X33128477Y29986857D01*
X33176096Y30082095D01*
X33176096Y30272571D01*
X33128477Y30367810D01*
X33080858Y30415429D01*
X32985620Y30463048D01*
X45657143Y21084953D02*
X45704762Y21037334D01*
X45752381Y20894477D01*
X45752381Y20799239D01*
X45704762Y20656381D01*
X45609524Y20561143D01*
X45514286Y20513524D01*
X45323810Y20465905D01*
X45180952Y20465905D01*
X44990476Y20513524D01*
X44895238Y20561143D01*
X44800000Y20656381D01*
X44752381Y20799239D01*
X44752381Y20894477D01*
X44800000Y21037334D01*
X44847619Y21084953D01*
X44847619Y21465905D02*
X44800000Y21513524D01*
X44752381Y21608762D01*
X44752381Y21846858D01*
X44800000Y21942096D01*
X44847619Y21989715D01*
X44942857Y22037334D01*
X45038095Y22037334D01*
X45180952Y21989715D01*
X45752381Y21418286D01*
X45752381Y22037334D01*
X44752381Y22656381D02*
X44752381Y22751620D01*
X44800000Y22846858D01*
X44847619Y22894477D01*
X44942857Y22942096D01*
X45133333Y22989715D01*
X45371429Y22989715D01*
X45561905Y22942096D01*
X45657143Y22894477D01*
X45704762Y22846858D01*
X45752381Y22751620D01*
X45752381Y22656381D01*
X45704762Y22561143D01*
X45657143Y22513524D01*
X45561905Y22465905D01*
X45371429Y22418286D01*
X45133333Y22418286D01*
X44942857Y22465905D01*
X44847619Y22513524D01*
X44800000Y22561143D01*
X44752381Y22656381D01*
X45752381Y23465905D02*
X45752381Y23656381D01*
X45704762Y23751620D01*
X45657143Y23799239D01*
X45514286Y23894477D01*
X45323810Y23942096D01*
X44942857Y23942096D01*
X44847619Y23894477D01*
X44800000Y23846858D01*
X44752381Y23751620D01*
X44752381Y23561143D01*
X44800000Y23465905D01*
X44847619Y23418286D01*
X44942857Y23370667D01*
X45180952Y23370667D01*
X45276190Y23418286D01*
X45323810Y23465905D01*
X45371429Y23561143D01*
X45371429Y23751620D01*
X45323810Y23846858D01*
X45276190Y23894477D01*
X45180952Y23942096D01*
X52162953Y31970857D02*
X52115334Y31923238D01*
X51972477Y31875619D01*
X51877239Y31875619D01*
X51734381Y31923238D01*
X51639143Y32018476D01*
X51591524Y32113714D01*
X51543905Y32304190D01*
X51543905Y32447048D01*
X51591524Y32637524D01*
X51639143Y32732762D01*
X51734381Y32828000D01*
X51877239Y32875619D01*
X51972477Y32875619D01*
X52115334Y32828000D01*
X52162953Y32780381D01*
X52543905Y32780381D02*
X52591524Y32828000D01*
X52686762Y32875619D01*
X52924858Y32875619D01*
X53020096Y32828000D01*
X53067715Y32780381D01*
X53115334Y32685143D01*
X53115334Y32589905D01*
X53067715Y32447048D01*
X52496286Y31875619D01*
X53115334Y31875619D01*
X54067715Y31875619D02*
X53496286Y31875619D01*
X53782000Y31875619D02*
X53782000Y32875619D01*
X53686762Y32732762D01*
X53591524Y32637524D01*
X53496286Y32589905D01*
X54686762Y32875619D02*
X54782001Y32875619D01*
X54877239Y32828000D01*
X54924858Y32780381D01*
X54972477Y32685143D01*
X55020096Y32494667D01*
X55020096Y32256571D01*
X54972477Y32066095D01*
X54924858Y31970857D01*
X54877239Y31923238D01*
X54782001Y31875619D01*
X54686762Y31875619D01*
X54591524Y31923238D01*
X54543905Y31970857D01*
X54496286Y32066095D01*
X54448667Y32256571D01*
X54448667Y32494667D01*
X54496286Y32685143D01*
X54543905Y32780381D01*
X54591524Y32828000D01*
X54686762Y32875619D01*
X66757143Y35380953D02*
X66804762Y35333334D01*
X66852381Y35190477D01*
X66852381Y35095239D01*
X66804762Y34952381D01*
X66709524Y34857143D01*
X66614286Y34809524D01*
X66423810Y34761905D01*
X66280952Y34761905D01*
X66090476Y34809524D01*
X65995238Y34857143D01*
X65900000Y34952381D01*
X65852381Y35095239D01*
X65852381Y35190477D01*
X65900000Y35333334D01*
X65947619Y35380953D01*
X65947619Y35761905D02*
X65900000Y35809524D01*
X65852381Y35904762D01*
X65852381Y36142858D01*
X65900000Y36238096D01*
X65947619Y36285715D01*
X66042857Y36333334D01*
X66138095Y36333334D01*
X66280952Y36285715D01*
X66852381Y35714286D01*
X66852381Y36333334D01*
X66852381Y37285715D02*
X66852381Y36714286D01*
X66852381Y37000000D02*
X65852381Y37000000D01*
X65995238Y36904762D01*
X66090476Y36809524D01*
X66138095Y36714286D01*
X66852381Y38238096D02*
X66852381Y37666667D01*
X66852381Y37952381D02*
X65852381Y37952381D01*
X65995238Y37857143D01*
X66090476Y37761905D01*
X66138095Y37666667D01*
X66757143Y30880953D02*
X66804762Y30833334D01*
X66852381Y30690477D01*
X66852381Y30595239D01*
X66804762Y30452381D01*
X66709524Y30357143D01*
X66614286Y30309524D01*
X66423810Y30261905D01*
X66280952Y30261905D01*
X66090476Y30309524D01*
X65995238Y30357143D01*
X65900000Y30452381D01*
X65852381Y30595239D01*
X65852381Y30690477D01*
X65900000Y30833334D01*
X65947619Y30880953D01*
X65947619Y31261905D02*
X65900000Y31309524D01*
X65852381Y31404762D01*
X65852381Y31642858D01*
X65900000Y31738096D01*
X65947619Y31785715D01*
X66042857Y31833334D01*
X66138095Y31833334D01*
X66280952Y31785715D01*
X66852381Y31214286D01*
X66852381Y31833334D01*
X66852381Y32785715D02*
X66852381Y32214286D01*
X66852381Y32500000D02*
X65852381Y32500000D01*
X65995238Y32404762D01*
X66090476Y32309524D01*
X66138095Y32214286D01*
X65947619Y33166667D02*
X65900000Y33214286D01*
X65852381Y33309524D01*
X65852381Y33547620D01*
X65900000Y33642858D01*
X65947619Y33690477D01*
X66042857Y33738096D01*
X66138095Y33738096D01*
X66280952Y33690477D01*
X66852381Y33119048D01*
X66852381Y33738096D01*
X48680953Y51642857D02*
X48633334Y51595238D01*
X48490477Y51547619D01*
X48395239Y51547619D01*
X48252381Y51595238D01*
X48157143Y51690476D01*
X48109524Y51785714D01*
X48061905Y51976190D01*
X48061905Y52119048D01*
X48109524Y52309524D01*
X48157143Y52404762D01*
X48252381Y52500000D01*
X48395239Y52547619D01*
X48490477Y52547619D01*
X48633334Y52500000D01*
X48680953Y52452381D01*
X49061905Y52452381D02*
X49109524Y52500000D01*
X49204762Y52547619D01*
X49442858Y52547619D01*
X49538096Y52500000D01*
X49585715Y52452381D01*
X49633334Y52357143D01*
X49633334Y52261905D01*
X49585715Y52119048D01*
X49014286Y51547619D01*
X49633334Y51547619D01*
X50585715Y51547619D02*
X50014286Y51547619D01*
X50300000Y51547619D02*
X50300000Y52547619D01*
X50204762Y52404762D01*
X50109524Y52309524D01*
X50014286Y52261905D01*
X50919048Y52547619D02*
X51538096Y52547619D01*
X51204762Y52166667D01*
X51347620Y52166667D01*
X51442858Y52119048D01*
X51490477Y52071429D01*
X51538096Y51976190D01*
X51538096Y51738095D01*
X51490477Y51642857D01*
X51442858Y51595238D01*
X51347620Y51547619D01*
X51061905Y51547619D01*
X50966667Y51595238D01*
X50919048Y51642857D01*
X53480953Y51542857D02*
X53433334Y51495238D01*
X53290477Y51447619D01*
X53195239Y51447619D01*
X53052381Y51495238D01*
X52957143Y51590476D01*
X52909524Y51685714D01*
X52861905Y51876190D01*
X52861905Y52019048D01*
X52909524Y52209524D01*
X52957143Y52304762D01*
X53052381Y52400000D01*
X53195239Y52447619D01*
X53290477Y52447619D01*
X53433334Y52400000D01*
X53480953Y52352381D01*
X53861905Y52352381D02*
X53909524Y52400000D01*
X54004762Y52447619D01*
X54242858Y52447619D01*
X54338096Y52400000D01*
X54385715Y52352381D01*
X54433334Y52257143D01*
X54433334Y52161905D01*
X54385715Y52019048D01*
X53814286Y51447619D01*
X54433334Y51447619D01*
X55385715Y51447619D02*
X54814286Y51447619D01*
X55100000Y51447619D02*
X55100000Y52447619D01*
X55004762Y52304762D01*
X54909524Y52209524D01*
X54814286Y52161905D01*
X56242858Y52114286D02*
X56242858Y51447619D01*
X56004762Y52495238D02*
X55766667Y51780952D01*
X56385715Y51780952D01*
X81257143Y78480953D02*
X81304762Y78433334D01*
X81352381Y78290477D01*
X81352381Y78195239D01*
X81304762Y78052381D01*
X81209524Y77957143D01*
X81114286Y77909524D01*
X80923810Y77861905D01*
X80780952Y77861905D01*
X80590476Y77909524D01*
X80495238Y77957143D01*
X80400000Y78052381D01*
X80352381Y78195239D01*
X80352381Y78290477D01*
X80400000Y78433334D01*
X80447619Y78480953D01*
X80352381Y78814286D02*
X80352381Y79433334D01*
X80733333Y79100000D01*
X80733333Y79242858D01*
X80780952Y79338096D01*
X80828571Y79385715D01*
X80923810Y79433334D01*
X81161905Y79433334D01*
X81257143Y79385715D01*
X81304762Y79338096D01*
X81352381Y79242858D01*
X81352381Y78957143D01*
X81304762Y78861905D01*
X81257143Y78814286D01*
X80352381Y80052381D02*
X80352381Y80147620D01*
X80400000Y80242858D01*
X80447619Y80290477D01*
X80542857Y80338096D01*
X80733333Y80385715D01*
X80971429Y80385715D01*
X81161905Y80338096D01*
X81257143Y80290477D01*
X81304762Y80242858D01*
X81352381Y80147620D01*
X81352381Y80052381D01*
X81304762Y79957143D01*
X81257143Y79909524D01*
X81161905Y79861905D01*
X80971429Y79814286D01*
X80733333Y79814286D01*
X80542857Y79861905D01*
X80447619Y79909524D01*
X80400000Y79957143D01*
X80352381Y80052381D01*
X81352381Y81338096D02*
X81352381Y80766667D01*
X81352381Y81052381D02*
X80352381Y81052381D01*
X80495238Y80957143D01*
X80590476Y80861905D01*
X80638095Y80766667D01*
X76580953Y81742857D02*
X76533334Y81695238D01*
X76390477Y81647619D01*
X76295239Y81647619D01*
X76152381Y81695238D01*
X76057143Y81790476D01*
X76009524Y81885714D01*
X75961905Y82076190D01*
X75961905Y82219048D01*
X76009524Y82409524D01*
X76057143Y82504762D01*
X76152381Y82600000D01*
X76295239Y82647619D01*
X76390477Y82647619D01*
X76533334Y82600000D01*
X76580953Y82552381D01*
X76914286Y82647619D02*
X77533334Y82647619D01*
X77200000Y82266667D01*
X77342858Y82266667D01*
X77438096Y82219048D01*
X77485715Y82171429D01*
X77533334Y82076190D01*
X77533334Y81838095D01*
X77485715Y81742857D01*
X77438096Y81695238D01*
X77342858Y81647619D01*
X77057143Y81647619D01*
X76961905Y81695238D01*
X76914286Y81742857D01*
X78152381Y82647619D02*
X78247620Y82647619D01*
X78342858Y82600000D01*
X78390477Y82552381D01*
X78438096Y82457143D01*
X78485715Y82266667D01*
X78485715Y82028571D01*
X78438096Y81838095D01*
X78390477Y81742857D01*
X78342858Y81695238D01*
X78247620Y81647619D01*
X78152381Y81647619D01*
X78057143Y81695238D01*
X78009524Y81742857D01*
X77961905Y81838095D01*
X77914286Y82028571D01*
X77914286Y82266667D01*
X77961905Y82457143D01*
X78009524Y82552381D01*
X78057143Y82600000D01*
X78152381Y82647619D01*
X78866667Y82552381D02*
X78914286Y82600000D01*
X79009524Y82647619D01*
X79247620Y82647619D01*
X79342858Y82600000D01*
X79390477Y82552381D01*
X79438096Y82457143D01*
X79438096Y82361905D01*
X79390477Y82219048D01*
X78819048Y81647619D01*
X79438096Y81647619D01*
X50980953Y81642857D02*
X50933334Y81595238D01*
X50790477Y81547619D01*
X50695239Y81547619D01*
X50552381Y81595238D01*
X50457143Y81690476D01*
X50409524Y81785714D01*
X50361905Y81976190D01*
X50361905Y82119048D01*
X50409524Y82309524D01*
X50457143Y82404762D01*
X50552381Y82500000D01*
X50695239Y82547619D01*
X50790477Y82547619D01*
X50933334Y82500000D01*
X50980953Y82452381D01*
X51314286Y82547619D02*
X51933334Y82547619D01*
X51600000Y82166667D01*
X51742858Y82166667D01*
X51838096Y82119048D01*
X51885715Y82071429D01*
X51933334Y81976190D01*
X51933334Y81738095D01*
X51885715Y81642857D01*
X51838096Y81595238D01*
X51742858Y81547619D01*
X51457143Y81547619D01*
X51361905Y81595238D01*
X51314286Y81642857D01*
X52552381Y82547619D02*
X52647620Y82547619D01*
X52742858Y82500000D01*
X52790477Y82452381D01*
X52838096Y82357143D01*
X52885715Y82166667D01*
X52885715Y81928571D01*
X52838096Y81738095D01*
X52790477Y81642857D01*
X52742858Y81595238D01*
X52647620Y81547619D01*
X52552381Y81547619D01*
X52457143Y81595238D01*
X52409524Y81642857D01*
X52361905Y81738095D01*
X52314286Y81928571D01*
X52314286Y82166667D01*
X52361905Y82357143D01*
X52409524Y82452381D01*
X52457143Y82500000D01*
X52552381Y82547619D01*
X53219048Y82547619D02*
X53838096Y82547619D01*
X53504762Y82166667D01*
X53647620Y82166667D01*
X53742858Y82119048D01*
X53790477Y82071429D01*
X53838096Y81976190D01*
X53838096Y81738095D01*
X53790477Y81642857D01*
X53742858Y81595238D01*
X53647620Y81547619D01*
X53361905Y81547619D01*
X53266667Y81595238D01*
X53219048Y81642857D01*
X48957143Y78480953D02*
X49004762Y78433334D01*
X49052381Y78290477D01*
X49052381Y78195239D01*
X49004762Y78052381D01*
X48909524Y77957143D01*
X48814286Y77909524D01*
X48623810Y77861905D01*
X48480952Y77861905D01*
X48290476Y77909524D01*
X48195238Y77957143D01*
X48100000Y78052381D01*
X48052381Y78195239D01*
X48052381Y78290477D01*
X48100000Y78433334D01*
X48147619Y78480953D01*
X48052381Y78814286D02*
X48052381Y79433334D01*
X48433333Y79100000D01*
X48433333Y79242858D01*
X48480952Y79338096D01*
X48528571Y79385715D01*
X48623810Y79433334D01*
X48861905Y79433334D01*
X48957143Y79385715D01*
X49004762Y79338096D01*
X49052381Y79242858D01*
X49052381Y78957143D01*
X49004762Y78861905D01*
X48957143Y78814286D01*
X48052381Y80052381D02*
X48052381Y80147620D01*
X48100000Y80242858D01*
X48147619Y80290477D01*
X48242857Y80338096D01*
X48433333Y80385715D01*
X48671429Y80385715D01*
X48861905Y80338096D01*
X48957143Y80290477D01*
X49004762Y80242858D01*
X49052381Y80147620D01*
X49052381Y80052381D01*
X49004762Y79957143D01*
X48957143Y79909524D01*
X48861905Y79861905D01*
X48671429Y79814286D01*
X48433333Y79814286D01*
X48242857Y79861905D01*
X48147619Y79909524D01*
X48100000Y79957143D01*
X48052381Y80052381D01*
X48385714Y81242858D02*
X49052381Y81242858D01*
X48004762Y81004762D02*
X48719048Y80766667D01*
X48719048Y81385715D01*
X60257143Y78380953D02*
X60304762Y78333334D01*
X60352381Y78190477D01*
X60352381Y78095239D01*
X60304762Y77952381D01*
X60209524Y77857143D01*
X60114286Y77809524D01*
X59923810Y77761905D01*
X59780952Y77761905D01*
X59590476Y77809524D01*
X59495238Y77857143D01*
X59400000Y77952381D01*
X59352381Y78095239D01*
X59352381Y78190477D01*
X59400000Y78333334D01*
X59447619Y78380953D01*
X59352381Y78714286D02*
X59352381Y79333334D01*
X59733333Y79000000D01*
X59733333Y79142858D01*
X59780952Y79238096D01*
X59828571Y79285715D01*
X59923810Y79333334D01*
X60161905Y79333334D01*
X60257143Y79285715D01*
X60304762Y79238096D01*
X60352381Y79142858D01*
X60352381Y78857143D01*
X60304762Y78761905D01*
X60257143Y78714286D01*
X59352381Y79952381D02*
X59352381Y80047620D01*
X59400000Y80142858D01*
X59447619Y80190477D01*
X59542857Y80238096D01*
X59733333Y80285715D01*
X59971429Y80285715D01*
X60161905Y80238096D01*
X60257143Y80190477D01*
X60304762Y80142858D01*
X60352381Y80047620D01*
X60352381Y79952381D01*
X60304762Y79857143D01*
X60257143Y79809524D01*
X60161905Y79761905D01*
X59971429Y79714286D01*
X59733333Y79714286D01*
X59542857Y79761905D01*
X59447619Y79809524D01*
X59400000Y79857143D01*
X59352381Y79952381D01*
X59352381Y81190477D02*
X59352381Y80714286D01*
X59828571Y80666667D01*
X59780952Y80714286D01*
X59733333Y80809524D01*
X59733333Y81047620D01*
X59780952Y81142858D01*
X59828571Y81190477D01*
X59923810Y81238096D01*
X60161905Y81238096D01*
X60257143Y81190477D01*
X60304762Y81142858D01*
X60352381Y81047620D01*
X60352381Y80809524D01*
X60304762Y80714286D01*
X60257143Y80666667D01*
X55280953Y81642857D02*
X55233334Y81595238D01*
X55090477Y81547619D01*
X54995239Y81547619D01*
X54852381Y81595238D01*
X54757143Y81690476D01*
X54709524Y81785714D01*
X54661905Y81976190D01*
X54661905Y82119048D01*
X54709524Y82309524D01*
X54757143Y82404762D01*
X54852381Y82500000D01*
X54995239Y82547619D01*
X55090477Y82547619D01*
X55233334Y82500000D01*
X55280953Y82452381D01*
X55614286Y82547619D02*
X56233334Y82547619D01*
X55900000Y82166667D01*
X56042858Y82166667D01*
X56138096Y82119048D01*
X56185715Y82071429D01*
X56233334Y81976190D01*
X56233334Y81738095D01*
X56185715Y81642857D01*
X56138096Y81595238D01*
X56042858Y81547619D01*
X55757143Y81547619D01*
X55661905Y81595238D01*
X55614286Y81642857D01*
X56852381Y82547619D02*
X56947620Y82547619D01*
X57042858Y82500000D01*
X57090477Y82452381D01*
X57138096Y82357143D01*
X57185715Y82166667D01*
X57185715Y81928571D01*
X57138096Y81738095D01*
X57090477Y81642857D01*
X57042858Y81595238D01*
X56947620Y81547619D01*
X56852381Y81547619D01*
X56757143Y81595238D01*
X56709524Y81642857D01*
X56661905Y81738095D01*
X56614286Y81928571D01*
X56614286Y82166667D01*
X56661905Y82357143D01*
X56709524Y82452381D01*
X56757143Y82500000D01*
X56852381Y82547619D01*
X58042858Y82547619D02*
X57852381Y82547619D01*
X57757143Y82500000D01*
X57709524Y82452381D01*
X57614286Y82309524D01*
X57566667Y82119048D01*
X57566667Y81738095D01*
X57614286Y81642857D01*
X57661905Y81595238D01*
X57757143Y81547619D01*
X57947620Y81547619D01*
X58042858Y81595238D01*
X58090477Y81642857D01*
X58138096Y81738095D01*
X58138096Y81976190D01*
X58090477Y82071429D01*
X58042858Y82119048D01*
X57947620Y82166667D01*
X57757143Y82166667D01*
X57661905Y82119048D01*
X57614286Y82071429D01*
X57566667Y81976190D01*
X27880953Y79242857D02*
X27833334Y79195238D01*
X27690477Y79147619D01*
X27595239Y79147619D01*
X27452381Y79195238D01*
X27357143Y79290476D01*
X27309524Y79385714D01*
X27261905Y79576190D01*
X27261905Y79719048D01*
X27309524Y79909524D01*
X27357143Y80004762D01*
X27452381Y80100000D01*
X27595239Y80147619D01*
X27690477Y80147619D01*
X27833334Y80100000D01*
X27880953Y80052381D01*
X28214286Y80147619D02*
X28833334Y80147619D01*
X28500000Y79766667D01*
X28642858Y79766667D01*
X28738096Y79719048D01*
X28785715Y79671429D01*
X28833334Y79576190D01*
X28833334Y79338095D01*
X28785715Y79242857D01*
X28738096Y79195238D01*
X28642858Y79147619D01*
X28357143Y79147619D01*
X28261905Y79195238D01*
X28214286Y79242857D01*
X29452381Y80147619D02*
X29547620Y80147619D01*
X29642858Y80100000D01*
X29690477Y80052381D01*
X29738096Y79957143D01*
X29785715Y79766667D01*
X29785715Y79528571D01*
X29738096Y79338095D01*
X29690477Y79242857D01*
X29642858Y79195238D01*
X29547620Y79147619D01*
X29452381Y79147619D01*
X29357143Y79195238D01*
X29309524Y79242857D01*
X29261905Y79338095D01*
X29214286Y79528571D01*
X29214286Y79766667D01*
X29261905Y79957143D01*
X29309524Y80052381D01*
X29357143Y80100000D01*
X29452381Y80147619D01*
X30119048Y80147619D02*
X30785715Y80147619D01*
X30357143Y79147619D01*
X19680953Y80542857D02*
X19633334Y80495238D01*
X19490477Y80447619D01*
X19395239Y80447619D01*
X19252381Y80495238D01*
X19157143Y80590476D01*
X19109524Y80685714D01*
X19061905Y80876190D01*
X19061905Y81019048D01*
X19109524Y81209524D01*
X19157143Y81304762D01*
X19252381Y81400000D01*
X19395239Y81447619D01*
X19490477Y81447619D01*
X19633334Y81400000D01*
X19680953Y81352381D01*
X20014286Y81447619D02*
X20633334Y81447619D01*
X20300000Y81066667D01*
X20442858Y81066667D01*
X20538096Y81019048D01*
X20585715Y80971429D01*
X20633334Y80876190D01*
X20633334Y80638095D01*
X20585715Y80542857D01*
X20538096Y80495238D01*
X20442858Y80447619D01*
X20157143Y80447619D01*
X20061905Y80495238D01*
X20014286Y80542857D01*
X21252381Y81447619D02*
X21347620Y81447619D01*
X21442858Y81400000D01*
X21490477Y81352381D01*
X21538096Y81257143D01*
X21585715Y81066667D01*
X21585715Y80828571D01*
X21538096Y80638095D01*
X21490477Y80542857D01*
X21442858Y80495238D01*
X21347620Y80447619D01*
X21252381Y80447619D01*
X21157143Y80495238D01*
X21109524Y80542857D01*
X21061905Y80638095D01*
X21014286Y80828571D01*
X21014286Y81066667D01*
X21061905Y81257143D01*
X21109524Y81352381D01*
X21157143Y81400000D01*
X21252381Y81447619D01*
X22157143Y81019048D02*
X22061905Y81066667D01*
X22014286Y81114286D01*
X21966667Y81209524D01*
X21966667Y81257143D01*
X22014286Y81352381D01*
X22061905Y81400000D01*
X22157143Y81447619D01*
X22347620Y81447619D01*
X22442858Y81400000D01*
X22490477Y81352381D01*
X22538096Y81257143D01*
X22538096Y81209524D01*
X22490477Y81114286D01*
X22442858Y81066667D01*
X22347620Y81019048D01*
X22157143Y81019048D01*
X22061905Y80971429D01*
X22014286Y80923810D01*
X21966667Y80828571D01*
X21966667Y80638095D01*
X22014286Y80542857D01*
X22061905Y80495238D01*
X22157143Y80447619D01*
X22347620Y80447619D01*
X22442858Y80495238D01*
X22490477Y80542857D01*
X22538096Y80638095D01*
X22538096Y80828571D01*
X22490477Y80923810D01*
X22442858Y80971429D01*
X22347620Y81019048D01*
X72180953Y81742857D02*
X72133334Y81695238D01*
X71990477Y81647619D01*
X71895239Y81647619D01*
X71752381Y81695238D01*
X71657143Y81790476D01*
X71609524Y81885714D01*
X71561905Y82076190D01*
X71561905Y82219048D01*
X71609524Y82409524D01*
X71657143Y82504762D01*
X71752381Y82600000D01*
X71895239Y82647619D01*
X71990477Y82647619D01*
X72133334Y82600000D01*
X72180953Y82552381D01*
X72514286Y82647619D02*
X73133334Y82647619D01*
X72800000Y82266667D01*
X72942858Y82266667D01*
X73038096Y82219048D01*
X73085715Y82171429D01*
X73133334Y82076190D01*
X73133334Y81838095D01*
X73085715Y81742857D01*
X73038096Y81695238D01*
X72942858Y81647619D01*
X72657143Y81647619D01*
X72561905Y81695238D01*
X72514286Y81742857D01*
X73752381Y82647619D02*
X73847620Y82647619D01*
X73942858Y82600000D01*
X73990477Y82552381D01*
X74038096Y82457143D01*
X74085715Y82266667D01*
X74085715Y82028571D01*
X74038096Y81838095D01*
X73990477Y81742857D01*
X73942858Y81695238D01*
X73847620Y81647619D01*
X73752381Y81647619D01*
X73657143Y81695238D01*
X73609524Y81742857D01*
X73561905Y81838095D01*
X73514286Y82028571D01*
X73514286Y82266667D01*
X73561905Y82457143D01*
X73609524Y82552381D01*
X73657143Y82600000D01*
X73752381Y82647619D01*
X74561905Y81647619D02*
X74752381Y81647619D01*
X74847620Y81695238D01*
X74895239Y81742857D01*
X74990477Y81885714D01*
X75038096Y82076190D01*
X75038096Y82457143D01*
X74990477Y82552381D01*
X74942858Y82600000D01*
X74847620Y82647619D01*
X74657143Y82647619D01*
X74561905Y82600000D01*
X74514286Y82552381D01*
X74466667Y82457143D01*
X74466667Y82219048D01*
X74514286Y82123810D01*
X74561905Y82076190D01*
X74657143Y82028571D01*
X74847620Y82028571D01*
X74942858Y82076190D01*
X74990477Y82123810D01*
X75038096Y82219048D01*
X70257143Y78480953D02*
X70304762Y78433334D01*
X70352381Y78290477D01*
X70352381Y78195239D01*
X70304762Y78052381D01*
X70209524Y77957143D01*
X70114286Y77909524D01*
X69923810Y77861905D01*
X69780952Y77861905D01*
X69590476Y77909524D01*
X69495238Y77957143D01*
X69400000Y78052381D01*
X69352381Y78195239D01*
X69352381Y78290477D01*
X69400000Y78433334D01*
X69447619Y78480953D01*
X69352381Y78814286D02*
X69352381Y79433334D01*
X69733333Y79100000D01*
X69733333Y79242858D01*
X69780952Y79338096D01*
X69828571Y79385715D01*
X69923810Y79433334D01*
X70161905Y79433334D01*
X70257143Y79385715D01*
X70304762Y79338096D01*
X70352381Y79242858D01*
X70352381Y78957143D01*
X70304762Y78861905D01*
X70257143Y78814286D01*
X70352381Y80385715D02*
X70352381Y79814286D01*
X70352381Y80100000D02*
X69352381Y80100000D01*
X69495238Y80004762D01*
X69590476Y79909524D01*
X69638095Y79814286D01*
X69352381Y81004762D02*
X69352381Y81100001D01*
X69400000Y81195239D01*
X69447619Y81242858D01*
X69542857Y81290477D01*
X69733333Y81338096D01*
X69971429Y81338096D01*
X70161905Y81290477D01*
X70257143Y81242858D01*
X70304762Y81195239D01*
X70352381Y81100001D01*
X70352381Y81004762D01*
X70304762Y80909524D01*
X70257143Y80861905D01*
X70161905Y80814286D01*
X69971429Y80766667D01*
X69733333Y80766667D01*
X69542857Y80814286D01*
X69447619Y80861905D01*
X69400000Y80909524D01*
X69352381Y81004762D01*
X8909524Y51447619D02*
X8909524Y52447619D01*
X9147619Y52447619D01*
X9290477Y52400000D01*
X9385715Y52304762D01*
X9433334Y52209524D01*
X9480953Y52019048D01*
X9480953Y51876190D01*
X9433334Y51685714D01*
X9385715Y51590476D01*
X9290477Y51495238D01*
X9147619Y51447619D01*
X8909524Y51447619D01*
X9861905Y52352381D02*
X9909524Y52400000D01*
X10004762Y52447619D01*
X10242858Y52447619D01*
X10338096Y52400000D01*
X10385715Y52352381D01*
X10433334Y52257143D01*
X10433334Y52161905D01*
X10385715Y52019048D01*
X9814286Y51447619D01*
X10433334Y51447619D01*
X11052381Y52447619D02*
X11147620Y52447619D01*
X11242858Y52400000D01*
X11290477Y52352381D01*
X11338096Y52257143D01*
X11385715Y52066667D01*
X11385715Y51828571D01*
X11338096Y51638095D01*
X11290477Y51542857D01*
X11242858Y51495238D01*
X11147620Y51447619D01*
X11052381Y51447619D01*
X10957143Y51495238D01*
X10909524Y51542857D01*
X10861905Y51638095D01*
X10814286Y51828571D01*
X10814286Y52066667D01*
X10861905Y52257143D01*
X10909524Y52352381D01*
X10957143Y52400000D01*
X11052381Y52447619D01*
X12338096Y51447619D02*
X11766667Y51447619D01*
X12052381Y51447619D02*
X12052381Y52447619D01*
X11957143Y52304762D01*
X11861905Y52209524D01*
X11766667Y52161905D01*
X9509524Y62847619D02*
X9509524Y63847619D01*
X9747619Y63847619D01*
X9890477Y63800000D01*
X9985715Y63704762D01*
X10033334Y63609524D01*
X10080953Y63419048D01*
X10080953Y63276190D01*
X10033334Y63085714D01*
X9985715Y62990476D01*
X9890477Y62895238D01*
X9747619Y62847619D01*
X9509524Y62847619D01*
X10461905Y63752381D02*
X10509524Y63800000D01*
X10604762Y63847619D01*
X10842858Y63847619D01*
X10938096Y63800000D01*
X10985715Y63752381D01*
X11033334Y63657143D01*
X11033334Y63561905D01*
X10985715Y63419048D01*
X10414286Y62847619D01*
X11033334Y62847619D01*
X11652381Y63847619D02*
X11747620Y63847619D01*
X11842858Y63800000D01*
X11890477Y63752381D01*
X11938096Y63657143D01*
X11985715Y63466667D01*
X11985715Y63228571D01*
X11938096Y63038095D01*
X11890477Y62942857D01*
X11842858Y62895238D01*
X11747620Y62847619D01*
X11652381Y62847619D01*
X11557143Y62895238D01*
X11509524Y62942857D01*
X11461905Y63038095D01*
X11414286Y63228571D01*
X11414286Y63466667D01*
X11461905Y63657143D01*
X11509524Y63752381D01*
X11557143Y63800000D01*
X11652381Y63847619D01*
X12366667Y63752381D02*
X12414286Y63800000D01*
X12509524Y63847619D01*
X12747620Y63847619D01*
X12842858Y63800000D01*
X12890477Y63752381D01*
X12938096Y63657143D01*
X12938096Y63561905D01*
X12890477Y63419048D01*
X12319048Y62847619D01*
X12938096Y62847619D01*
X20209524Y32247619D02*
X20209524Y33247619D01*
X20447619Y33247619D01*
X20590477Y33200000D01*
X20685715Y33104762D01*
X20733334Y33009524D01*
X20780953Y32819048D01*
X20780953Y32676190D01*
X20733334Y32485714D01*
X20685715Y32390476D01*
X20590477Y32295238D01*
X20447619Y32247619D01*
X20209524Y32247619D01*
X21161905Y33152381D02*
X21209524Y33200000D01*
X21304762Y33247619D01*
X21542858Y33247619D01*
X21638096Y33200000D01*
X21685715Y33152381D01*
X21733334Y33057143D01*
X21733334Y32961905D01*
X21685715Y32819048D01*
X21114286Y32247619D01*
X21733334Y32247619D01*
X22352381Y33247619D02*
X22447620Y33247619D01*
X22542858Y33200000D01*
X22590477Y33152381D01*
X22638096Y33057143D01*
X22685715Y32866667D01*
X22685715Y32628571D01*
X22638096Y32438095D01*
X22590477Y32342857D01*
X22542858Y32295238D01*
X22447620Y32247619D01*
X22352381Y32247619D01*
X22257143Y32295238D01*
X22209524Y32342857D01*
X22161905Y32438095D01*
X22114286Y32628571D01*
X22114286Y32866667D01*
X22161905Y33057143D01*
X22209524Y33152381D01*
X22257143Y33200000D01*
X22352381Y33247619D01*
X23019048Y33247619D02*
X23638096Y33247619D01*
X23304762Y32866667D01*
X23447620Y32866667D01*
X23542858Y32819048D01*
X23590477Y32771429D01*
X23638096Y32676190D01*
X23638096Y32438095D01*
X23590477Y32342857D01*
X23542858Y32295238D01*
X23447620Y32247619D01*
X23161905Y32247619D01*
X23066667Y32295238D01*
X23019048Y32342857D01*
X24109524Y51947619D02*
X24109524Y52947619D01*
X24347619Y52947619D01*
X24490477Y52900000D01*
X24585715Y52804762D01*
X24633334Y52709524D01*
X24680953Y52519048D01*
X24680953Y52376190D01*
X24633334Y52185714D01*
X24585715Y52090476D01*
X24490477Y51995238D01*
X24347619Y51947619D01*
X24109524Y51947619D01*
X25061905Y52852381D02*
X25109524Y52900000D01*
X25204762Y52947619D01*
X25442858Y52947619D01*
X25538096Y52900000D01*
X25585715Y52852381D01*
X25633334Y52757143D01*
X25633334Y52661905D01*
X25585715Y52519048D01*
X25014286Y51947619D01*
X25633334Y51947619D01*
X26252381Y52947619D02*
X26347620Y52947619D01*
X26442858Y52900000D01*
X26490477Y52852381D01*
X26538096Y52757143D01*
X26585715Y52566667D01*
X26585715Y52328571D01*
X26538096Y52138095D01*
X26490477Y52042857D01*
X26442858Y51995238D01*
X26347620Y51947619D01*
X26252381Y51947619D01*
X26157143Y51995238D01*
X26109524Y52042857D01*
X26061905Y52138095D01*
X26014286Y52328571D01*
X26014286Y52566667D01*
X26061905Y52757143D01*
X26109524Y52852381D01*
X26157143Y52900000D01*
X26252381Y52947619D01*
X27442858Y52614286D02*
X27442858Y51947619D01*
X27204762Y52995238D02*
X26966667Y52280952D01*
X27585715Y52280952D01*
X45809524Y11347619D02*
X45809524Y12347619D01*
X46047619Y12347619D01*
X46190477Y12300000D01*
X46285715Y12204762D01*
X46333334Y12109524D01*
X46380953Y11919048D01*
X46380953Y11776190D01*
X46333334Y11585714D01*
X46285715Y11490476D01*
X46190477Y11395238D01*
X46047619Y11347619D01*
X45809524Y11347619D01*
X46761905Y12252381D02*
X46809524Y12300000D01*
X46904762Y12347619D01*
X47142858Y12347619D01*
X47238096Y12300000D01*
X47285715Y12252381D01*
X47333334Y12157143D01*
X47333334Y12061905D01*
X47285715Y11919048D01*
X46714286Y11347619D01*
X47333334Y11347619D01*
X47952381Y12347619D02*
X48047620Y12347619D01*
X48142858Y12300000D01*
X48190477Y12252381D01*
X48238096Y12157143D01*
X48285715Y11966667D01*
X48285715Y11728571D01*
X48238096Y11538095D01*
X48190477Y11442857D01*
X48142858Y11395238D01*
X48047620Y11347619D01*
X47952381Y11347619D01*
X47857143Y11395238D01*
X47809524Y11442857D01*
X47761905Y11538095D01*
X47714286Y11728571D01*
X47714286Y11966667D01*
X47761905Y12157143D01*
X47809524Y12252381D01*
X47857143Y12300000D01*
X47952381Y12347619D01*
X49190477Y12347619D02*
X48714286Y12347619D01*
X48666667Y11871429D01*
X48714286Y11919048D01*
X48809524Y11966667D01*
X49047620Y11966667D01*
X49142858Y11919048D01*
X49190477Y11871429D01*
X49238096Y11776190D01*
X49238096Y11538095D01*
X49190477Y11442857D01*
X49142858Y11395238D01*
X49047620Y11347619D01*
X48809524Y11347619D01*
X48714286Y11395238D01*
X48666667Y11442857D01*
X84152381Y3564286D02*
X84866667Y3564286D01*
X85009524Y3516666D01*
X85104762Y3421428D01*
X85152381Y3278571D01*
X85152381Y3183333D01*
X85152381Y4564286D02*
X85152381Y3992857D01*
X85152381Y4278571D02*
X84152381Y4278571D01*
X84295238Y4183333D01*
X84390476Y4088095D01*
X84438095Y3992857D01*
X84152381Y5183333D02*
X84152381Y5278572D01*
X84200000Y5373810D01*
X84247619Y5421429D01*
X84342857Y5469048D01*
X84533333Y5516667D01*
X84771429Y5516667D01*
X84961905Y5469048D01*
X85057143Y5421429D01*
X85104762Y5373810D01*
X85152381Y5278572D01*
X85152381Y5183333D01*
X85104762Y5088095D01*
X85057143Y5040476D01*
X84961905Y4992857D01*
X84771429Y4945238D01*
X84533333Y4945238D01*
X84342857Y4992857D01*
X84247619Y5040476D01*
X84200000Y5088095D01*
X84152381Y5183333D01*
X85152381Y6469048D02*
X85152381Y5897619D01*
X85152381Y6183333D02*
X84152381Y6183333D01*
X84295238Y6088095D01*
X84390476Y5992857D01*
X84438095Y5897619D01*
X13814286Y68347619D02*
X13814286Y67633333D01*
X13766666Y67490476D01*
X13671428Y67395238D01*
X13528571Y67347619D01*
X13433333Y67347619D01*
X14814286Y67347619D02*
X14242857Y67347619D01*
X14528571Y67347619D02*
X14528571Y68347619D01*
X14433333Y68204762D01*
X14338095Y68109524D01*
X14242857Y68061905D01*
X15433333Y68347619D02*
X15528572Y68347619D01*
X15623810Y68300000D01*
X15671429Y68252381D01*
X15719048Y68157143D01*
X15766667Y67966667D01*
X15766667Y67728571D01*
X15719048Y67538095D01*
X15671429Y67442857D01*
X15623810Y67395238D01*
X15528572Y67347619D01*
X15433333Y67347619D01*
X15338095Y67395238D01*
X15290476Y67442857D01*
X15242857Y67538095D01*
X15195238Y67728571D01*
X15195238Y67966667D01*
X15242857Y68157143D01*
X15290476Y68252381D01*
X15338095Y68300000D01*
X15433333Y68347619D01*
X16147619Y68252381D02*
X16195238Y68300000D01*
X16290476Y68347619D01*
X16528572Y68347619D01*
X16623810Y68300000D01*
X16671429Y68252381D01*
X16719048Y68157143D01*
X16719048Y68061905D01*
X16671429Y67919048D01*
X16100000Y67347619D01*
X16719048Y67347619D01*
X86814286Y79047619D02*
X86814286Y78333333D01*
X86766666Y78190476D01*
X86671428Y78095238D01*
X86528571Y78047619D01*
X86433333Y78047619D01*
X87814286Y78047619D02*
X87242857Y78047619D01*
X87528571Y78047619D02*
X87528571Y79047619D01*
X87433333Y78904762D01*
X87338095Y78809524D01*
X87242857Y78761905D01*
X88433333Y79047619D02*
X88528572Y79047619D01*
X88623810Y79000000D01*
X88671429Y78952381D01*
X88719048Y78857143D01*
X88766667Y78666667D01*
X88766667Y78428571D01*
X88719048Y78238095D01*
X88671429Y78142857D01*
X88623810Y78095238D01*
X88528572Y78047619D01*
X88433333Y78047619D01*
X88338095Y78095238D01*
X88290476Y78142857D01*
X88242857Y78238095D01*
X88195238Y78428571D01*
X88195238Y78666667D01*
X88242857Y78857143D01*
X88290476Y78952381D01*
X88338095Y79000000D01*
X88433333Y79047619D01*
X89100000Y79047619D02*
X89719048Y79047619D01*
X89385714Y78666667D01*
X89528572Y78666667D01*
X89623810Y78619048D01*
X89671429Y78571429D01*
X89719048Y78476190D01*
X89719048Y78238095D01*
X89671429Y78142857D01*
X89623810Y78095238D01*
X89528572Y78047619D01*
X89242857Y78047619D01*
X89147619Y78095238D01*
X89100000Y78142857D01*
X91714286Y11547619D02*
X91714286Y10833333D01*
X91666666Y10690476D01*
X91571428Y10595238D01*
X91428571Y10547619D01*
X91333333Y10547619D01*
X92714286Y10547619D02*
X92142857Y10547619D01*
X92428571Y10547619D02*
X92428571Y11547619D01*
X92333333Y11404762D01*
X92238095Y11309524D01*
X92142857Y11261905D01*
X93333333Y11547619D02*
X93428572Y11547619D01*
X93523810Y11500000D01*
X93571429Y11452381D01*
X93619048Y11357143D01*
X93666667Y11166667D01*
X93666667Y10928571D01*
X93619048Y10738095D01*
X93571429Y10642857D01*
X93523810Y10595238D01*
X93428572Y10547619D01*
X93333333Y10547619D01*
X93238095Y10595238D01*
X93190476Y10642857D01*
X93142857Y10738095D01*
X93095238Y10928571D01*
X93095238Y11166667D01*
X93142857Y11357143D01*
X93190476Y11452381D01*
X93238095Y11500000D01*
X93333333Y11547619D01*
X94523810Y11214286D02*
X94523810Y10547619D01*
X94285714Y11595238D02*
X94047619Y10880952D01*
X94666667Y10880952D01*
X4114286Y18847619D02*
X4114286Y18133333D01*
X4066666Y17990476D01*
X3971428Y17895238D01*
X3828571Y17847619D01*
X3733333Y17847619D01*
X5114286Y17847619D02*
X4542857Y17847619D01*
X4828571Y17847619D02*
X4828571Y18847619D01*
X4733333Y18704762D01*
X4638095Y18609524D01*
X4542857Y18561905D01*
X5733333Y18847619D02*
X5828572Y18847619D01*
X5923810Y18800000D01*
X5971429Y18752381D01*
X6019048Y18657143D01*
X6066667Y18466667D01*
X6066667Y18228571D01*
X6019048Y18038095D01*
X5971429Y17942857D01*
X5923810Y17895238D01*
X5828572Y17847619D01*
X5733333Y17847619D01*
X5638095Y17895238D01*
X5590476Y17942857D01*
X5542857Y18038095D01*
X5495238Y18228571D01*
X5495238Y18466667D01*
X5542857Y18657143D01*
X5590476Y18752381D01*
X5638095Y18800000D01*
X5733333Y18847619D01*
X6971429Y18847619D02*
X6495238Y18847619D01*
X6447619Y18371429D01*
X6495238Y18419048D01*
X6590476Y18466667D01*
X6828572Y18466667D01*
X6923810Y18419048D01*
X6971429Y18371429D01*
X7019048Y18276190D01*
X7019048Y18038095D01*
X6971429Y17942857D01*
X6923810Y17895238D01*
X6828572Y17847619D01*
X6590476Y17847619D01*
X6495238Y17895238D01*
X6447619Y17942857D01*
X13414286Y47747619D02*
X13414286Y47033333D01*
X13366666Y46890476D01*
X13271428Y46795238D01*
X13128571Y46747619D01*
X13033333Y46747619D01*
X13842857Y47652381D02*
X13890476Y47700000D01*
X13985714Y47747619D01*
X14223810Y47747619D01*
X14319048Y47700000D01*
X14366667Y47652381D01*
X14414286Y47557143D01*
X14414286Y47461905D01*
X14366667Y47319048D01*
X13795238Y46747619D01*
X14414286Y46747619D01*
X15033333Y47747619D02*
X15128572Y47747619D01*
X15223810Y47700000D01*
X15271429Y47652381D01*
X15319048Y47557143D01*
X15366667Y47366667D01*
X15366667Y47128571D01*
X15319048Y46938095D01*
X15271429Y46842857D01*
X15223810Y46795238D01*
X15128572Y46747619D01*
X15033333Y46747619D01*
X14938095Y46795238D01*
X14890476Y46842857D01*
X14842857Y46938095D01*
X14795238Y47128571D01*
X14795238Y47366667D01*
X14842857Y47557143D01*
X14890476Y47652381D01*
X14938095Y47700000D01*
X15033333Y47747619D01*
X16319048Y46747619D02*
X15747619Y46747619D01*
X16033333Y46747619D02*
X16033333Y47747619D01*
X15938095Y47604762D01*
X15842857Y47509524D01*
X15747619Y47461905D01*
X20680953Y61547619D02*
X20204762Y61547619D01*
X20204762Y62547619D01*
X20966667Y62452381D02*
X21014286Y62500000D01*
X21109524Y62547619D01*
X21347620Y62547619D01*
X21442858Y62500000D01*
X21490477Y62452381D01*
X21538096Y62357143D01*
X21538096Y62261905D01*
X21490477Y62119048D01*
X20919048Y61547619D01*
X21538096Y61547619D01*
X22157143Y62547619D02*
X22252382Y62547619D01*
X22347620Y62500000D01*
X22395239Y62452381D01*
X22442858Y62357143D01*
X22490477Y62166667D01*
X22490477Y61928571D01*
X22442858Y61738095D01*
X22395239Y61642857D01*
X22347620Y61595238D01*
X22252382Y61547619D01*
X22157143Y61547619D01*
X22061905Y61595238D01*
X22014286Y61642857D01*
X21966667Y61738095D01*
X21919048Y61928571D01*
X21919048Y62166667D01*
X21966667Y62357143D01*
X22014286Y62452381D01*
X22061905Y62500000D01*
X22157143Y62547619D01*
X23442858Y61547619D02*
X22871429Y61547619D01*
X23157143Y61547619D02*
X23157143Y62547619D01*
X23061905Y62404762D01*
X22966667Y62309524D01*
X22871429Y62261905D01*
X15080953Y40547619D02*
X14604762Y40547619D01*
X14604762Y41547619D01*
X15366667Y41452381D02*
X15414286Y41500000D01*
X15509524Y41547619D01*
X15747620Y41547619D01*
X15842858Y41500000D01*
X15890477Y41452381D01*
X15938096Y41357143D01*
X15938096Y41261905D01*
X15890477Y41119048D01*
X15319048Y40547619D01*
X15938096Y40547619D01*
X16557143Y41547619D02*
X16652382Y41547619D01*
X16747620Y41500000D01*
X16795239Y41452381D01*
X16842858Y41357143D01*
X16890477Y41166667D01*
X16890477Y40928571D01*
X16842858Y40738095D01*
X16795239Y40642857D01*
X16747620Y40595238D01*
X16652382Y40547619D01*
X16557143Y40547619D01*
X16461905Y40595238D01*
X16414286Y40642857D01*
X16366667Y40738095D01*
X16319048Y40928571D01*
X16319048Y41166667D01*
X16366667Y41357143D01*
X16414286Y41452381D01*
X16461905Y41500000D01*
X16557143Y41547619D01*
X17271429Y41452381D02*
X17319048Y41500000D01*
X17414286Y41547619D01*
X17652382Y41547619D01*
X17747620Y41500000D01*
X17795239Y41452381D01*
X17842858Y41357143D01*
X17842858Y41261905D01*
X17795239Y41119048D01*
X17223810Y40547619D01*
X17842858Y40547619D01*
X92109524Y74447619D02*
X92109524Y75447619D01*
X92490477Y75447619D01*
X92585715Y75400000D01*
X92633334Y75352381D01*
X92680953Y75257143D01*
X92680953Y75114286D01*
X92633334Y75019048D01*
X92585715Y74971429D01*
X92490477Y74923810D01*
X92109524Y74923810D01*
X93633334Y74447619D02*
X93061905Y74447619D01*
X93347619Y74447619D02*
X93347619Y75447619D01*
X93252381Y75304762D01*
X93157143Y75209524D01*
X93061905Y75161905D01*
X94252381Y75447619D02*
X94347620Y75447619D01*
X94442858Y75400000D01*
X94490477Y75352381D01*
X94538096Y75257143D01*
X94585715Y75066667D01*
X94585715Y74828571D01*
X94538096Y74638095D01*
X94490477Y74542857D01*
X94442858Y74495238D01*
X94347620Y74447619D01*
X94252381Y74447619D01*
X94157143Y74495238D01*
X94109524Y74542857D01*
X94061905Y74638095D01*
X94014286Y74828571D01*
X94014286Y75066667D01*
X94061905Y75257143D01*
X94109524Y75352381D01*
X94157143Y75400000D01*
X94252381Y75447619D01*
X95538096Y74447619D02*
X94966667Y74447619D01*
X95252381Y74447619D02*
X95252381Y75447619D01*
X95157143Y75304762D01*
X95061905Y75209524D01*
X94966667Y75161905D01*
X92109524Y46547619D02*
X92109524Y47547619D01*
X92490477Y47547619D01*
X92585715Y47500000D01*
X92633334Y47452381D01*
X92680953Y47357143D01*
X92680953Y47214286D01*
X92633334Y47119048D01*
X92585715Y47071429D01*
X92490477Y47023810D01*
X92109524Y47023810D01*
X93633334Y46547619D02*
X93061905Y46547619D01*
X93347619Y46547619D02*
X93347619Y47547619D01*
X93252381Y47404762D01*
X93157143Y47309524D01*
X93061905Y47261905D01*
X94252381Y47547619D02*
X94347620Y47547619D01*
X94442858Y47500000D01*
X94490477Y47452381D01*
X94538096Y47357143D01*
X94585715Y47166667D01*
X94585715Y46928571D01*
X94538096Y46738095D01*
X94490477Y46642857D01*
X94442858Y46595238D01*
X94347620Y46547619D01*
X94252381Y46547619D01*
X94157143Y46595238D01*
X94109524Y46642857D01*
X94061905Y46738095D01*
X94014286Y46928571D01*
X94014286Y47166667D01*
X94061905Y47357143D01*
X94109524Y47452381D01*
X94157143Y47500000D01*
X94252381Y47547619D01*
X94919048Y47547619D02*
X95538096Y47547619D01*
X95204762Y47166667D01*
X95347620Y47166667D01*
X95442858Y47119048D01*
X95490477Y47071429D01*
X95538096Y46976190D01*
X95538096Y46738095D01*
X95490477Y46642857D01*
X95442858Y46595238D01*
X95347620Y46547619D01*
X95061905Y46547619D01*
X94966667Y46595238D01*
X94919048Y46642857D01*
X92109524Y32447619D02*
X92109524Y33447619D01*
X92490477Y33447619D01*
X92585715Y33400000D01*
X92633334Y33352381D01*
X92680953Y33257143D01*
X92680953Y33114286D01*
X92633334Y33019048D01*
X92585715Y32971429D01*
X92490477Y32923810D01*
X92109524Y32923810D01*
X93633334Y32447619D02*
X93061905Y32447619D01*
X93347619Y32447619D02*
X93347619Y33447619D01*
X93252381Y33304762D01*
X93157143Y33209524D01*
X93061905Y33161905D01*
X94252381Y33447619D02*
X94347620Y33447619D01*
X94442858Y33400000D01*
X94490477Y33352381D01*
X94538096Y33257143D01*
X94585715Y33066667D01*
X94585715Y32828571D01*
X94538096Y32638095D01*
X94490477Y32542857D01*
X94442858Y32495238D01*
X94347620Y32447619D01*
X94252381Y32447619D01*
X94157143Y32495238D01*
X94109524Y32542857D01*
X94061905Y32638095D01*
X94014286Y32828571D01*
X94014286Y33066667D01*
X94061905Y33257143D01*
X94109524Y33352381D01*
X94157143Y33400000D01*
X94252381Y33447619D01*
X95442858Y33114286D02*
X95442858Y32447619D01*
X95204762Y33495238D02*
X94966667Y32780952D01*
X95585715Y32780952D01*
X48852381Y85309524D02*
X47852381Y85309524D01*
X47852381Y85690477D01*
X47900000Y85785715D01*
X47947619Y85833334D01*
X48042857Y85880953D01*
X48185714Y85880953D01*
X48280952Y85833334D01*
X48328571Y85785715D01*
X48376190Y85690477D01*
X48376190Y85309524D01*
X48852381Y86833334D02*
X48852381Y86261905D01*
X48852381Y86547619D02*
X47852381Y86547619D01*
X47995238Y86452381D01*
X48090476Y86357143D01*
X48138095Y86261905D01*
X47852381Y87452381D02*
X47852381Y87547620D01*
X47900000Y87642858D01*
X47947619Y87690477D01*
X48042857Y87738096D01*
X48233333Y87785715D01*
X48471429Y87785715D01*
X48661905Y87738096D01*
X48757143Y87690477D01*
X48804762Y87642858D01*
X48852381Y87547620D01*
X48852381Y87452381D01*
X48804762Y87357143D01*
X48757143Y87309524D01*
X48661905Y87261905D01*
X48471429Y87214286D01*
X48233333Y87214286D01*
X48042857Y87261905D01*
X47947619Y87309524D01*
X47900000Y87357143D01*
X47852381Y87452381D01*
X47852381Y88690477D02*
X47852381Y88214286D01*
X48328571Y88166667D01*
X48280952Y88214286D01*
X48233333Y88309524D01*
X48233333Y88547620D01*
X48280952Y88642858D01*
X48328571Y88690477D01*
X48423810Y88738096D01*
X48661905Y88738096D01*
X48757143Y88690477D01*
X48804762Y88642858D01*
X48852381Y88547620D01*
X48852381Y88309524D01*
X48804762Y88214286D01*
X48757143Y88166667D01*
X62952381Y85309524D02*
X61952381Y85309524D01*
X61952381Y85690477D01*
X62000000Y85785715D01*
X62047619Y85833334D01*
X62142857Y85880953D01*
X62285714Y85880953D01*
X62380952Y85833334D01*
X62428571Y85785715D01*
X62476190Y85690477D01*
X62476190Y85309524D01*
X62952381Y86833334D02*
X62952381Y86261905D01*
X62952381Y86547619D02*
X61952381Y86547619D01*
X62095238Y86452381D01*
X62190476Y86357143D01*
X62238095Y86261905D01*
X61952381Y87452381D02*
X61952381Y87547620D01*
X62000000Y87642858D01*
X62047619Y87690477D01*
X62142857Y87738096D01*
X62333333Y87785715D01*
X62571429Y87785715D01*
X62761905Y87738096D01*
X62857143Y87690477D01*
X62904762Y87642858D01*
X62952381Y87547620D01*
X62952381Y87452381D01*
X62904762Y87357143D01*
X62857143Y87309524D01*
X62761905Y87261905D01*
X62571429Y87214286D01*
X62333333Y87214286D01*
X62142857Y87261905D01*
X62047619Y87309524D01*
X62000000Y87357143D01*
X61952381Y87452381D01*
X61952381Y88642858D02*
X61952381Y88452381D01*
X62000000Y88357143D01*
X62047619Y88309524D01*
X62190476Y88214286D01*
X62380952Y88166667D01*
X62761905Y88166667D01*
X62857143Y88214286D01*
X62904762Y88261905D01*
X62952381Y88357143D01*
X62952381Y88547620D01*
X62904762Y88642858D01*
X62857143Y88690477D01*
X62761905Y88738096D01*
X62523810Y88738096D01*
X62428571Y88690477D01*
X62380952Y88642858D01*
X62333333Y88547620D01*
X62333333Y88357143D01*
X62380952Y88261905D01*
X62428571Y88214286D01*
X62523810Y88166667D01*
X76952381Y85309524D02*
X75952381Y85309524D01*
X75952381Y85690477D01*
X76000000Y85785715D01*
X76047619Y85833334D01*
X76142857Y85880953D01*
X76285714Y85880953D01*
X76380952Y85833334D01*
X76428571Y85785715D01*
X76476190Y85690477D01*
X76476190Y85309524D01*
X76952381Y86833334D02*
X76952381Y86261905D01*
X76952381Y86547619D02*
X75952381Y86547619D01*
X76095238Y86452381D01*
X76190476Y86357143D01*
X76238095Y86261905D01*
X75952381Y87452381D02*
X75952381Y87547620D01*
X76000000Y87642858D01*
X76047619Y87690477D01*
X76142857Y87738096D01*
X76333333Y87785715D01*
X76571429Y87785715D01*
X76761905Y87738096D01*
X76857143Y87690477D01*
X76904762Y87642858D01*
X76952381Y87547620D01*
X76952381Y87452381D01*
X76904762Y87357143D01*
X76857143Y87309524D01*
X76761905Y87261905D01*
X76571429Y87214286D01*
X76333333Y87214286D01*
X76142857Y87261905D01*
X76047619Y87309524D01*
X76000000Y87357143D01*
X75952381Y87452381D01*
X75952381Y88119048D02*
X75952381Y88785715D01*
X76952381Y88357143D01*
X90852381Y85309524D02*
X89852381Y85309524D01*
X89852381Y85690477D01*
X89900000Y85785715D01*
X89947619Y85833334D01*
X90042857Y85880953D01*
X90185714Y85880953D01*
X90280952Y85833334D01*
X90328571Y85785715D01*
X90376190Y85690477D01*
X90376190Y85309524D01*
X90852381Y86833334D02*
X90852381Y86261905D01*
X90852381Y86547619D02*
X89852381Y86547619D01*
X89995238Y86452381D01*
X90090476Y86357143D01*
X90138095Y86261905D01*
X89852381Y87452381D02*
X89852381Y87547620D01*
X89900000Y87642858D01*
X89947619Y87690477D01*
X90042857Y87738096D01*
X90233333Y87785715D01*
X90471429Y87785715D01*
X90661905Y87738096D01*
X90757143Y87690477D01*
X90804762Y87642858D01*
X90852381Y87547620D01*
X90852381Y87452381D01*
X90804762Y87357143D01*
X90757143Y87309524D01*
X90661905Y87261905D01*
X90471429Y87214286D01*
X90233333Y87214286D01*
X90042857Y87261905D01*
X89947619Y87309524D01*
X89900000Y87357143D01*
X89852381Y87452381D01*
X90280952Y88357143D02*
X90233333Y88261905D01*
X90185714Y88214286D01*
X90090476Y88166667D01*
X90042857Y88166667D01*
X89947619Y88214286D01*
X89900000Y88261905D01*
X89852381Y88357143D01*
X89852381Y88547620D01*
X89900000Y88642858D01*
X89947619Y88690477D01*
X90042857Y88738096D01*
X90090476Y88738096D01*
X90185714Y88690477D01*
X90233333Y88642858D01*
X90280952Y88547620D01*
X90280952Y88357143D01*
X90328571Y88261905D01*
X90376190Y88214286D01*
X90471429Y88166667D01*
X90661905Y88166667D01*
X90757143Y88214286D01*
X90804762Y88261905D01*
X90852381Y88357143D01*
X90852381Y88547620D01*
X90804762Y88642858D01*
X90757143Y88690477D01*
X90661905Y88738096D01*
X90471429Y88738096D01*
X90376190Y88690477D01*
X90328571Y88642858D01*
X90280952Y88547620D01*
X20952381Y85309524D02*
X19952381Y85309524D01*
X19952381Y85690477D01*
X20000000Y85785715D01*
X20047619Y85833334D01*
X20142857Y85880953D01*
X20285714Y85880953D01*
X20380952Y85833334D01*
X20428571Y85785715D01*
X20476190Y85690477D01*
X20476190Y85309524D01*
X20952381Y86833334D02*
X20952381Y86261905D01*
X20952381Y86547619D02*
X19952381Y86547619D01*
X20095238Y86452381D01*
X20190476Y86357143D01*
X20238095Y86261905D01*
X19952381Y87452381D02*
X19952381Y87547620D01*
X20000000Y87642858D01*
X20047619Y87690477D01*
X20142857Y87738096D01*
X20333333Y87785715D01*
X20571429Y87785715D01*
X20761905Y87738096D01*
X20857143Y87690477D01*
X20904762Y87642858D01*
X20952381Y87547620D01*
X20952381Y87452381D01*
X20904762Y87357143D01*
X20857143Y87309524D01*
X20761905Y87261905D01*
X20571429Y87214286D01*
X20333333Y87214286D01*
X20142857Y87261905D01*
X20047619Y87309524D01*
X20000000Y87357143D01*
X19952381Y87452381D01*
X20952381Y88261905D02*
X20952381Y88452381D01*
X20904762Y88547620D01*
X20857143Y88595239D01*
X20714286Y88690477D01*
X20523810Y88738096D01*
X20142857Y88738096D01*
X20047619Y88690477D01*
X20000000Y88642858D01*
X19952381Y88547620D01*
X19952381Y88357143D01*
X20000000Y88261905D01*
X20047619Y88214286D01*
X20142857Y88166667D01*
X20380952Y88166667D01*
X20476190Y88214286D01*
X20523810Y88261905D01*
X20571429Y88357143D01*
X20571429Y88547620D01*
X20523810Y88642858D01*
X20476190Y88690477D01*
X20380952Y88738096D01*
X34752381Y85309524D02*
X33752381Y85309524D01*
X33752381Y85690477D01*
X33800000Y85785715D01*
X33847619Y85833334D01*
X33942857Y85880953D01*
X34085714Y85880953D01*
X34180952Y85833334D01*
X34228571Y85785715D01*
X34276190Y85690477D01*
X34276190Y85309524D01*
X34752381Y86833334D02*
X34752381Y86261905D01*
X34752381Y86547619D02*
X33752381Y86547619D01*
X33895238Y86452381D01*
X33990476Y86357143D01*
X34038095Y86261905D01*
X34752381Y87785715D02*
X34752381Y87214286D01*
X34752381Y87500000D02*
X33752381Y87500000D01*
X33895238Y87404762D01*
X33990476Y87309524D01*
X34038095Y87214286D01*
X33752381Y88404762D02*
X33752381Y88500001D01*
X33800000Y88595239D01*
X33847619Y88642858D01*
X33942857Y88690477D01*
X34133333Y88738096D01*
X34371429Y88738096D01*
X34561905Y88690477D01*
X34657143Y88642858D01*
X34704762Y88595239D01*
X34752381Y88500001D01*
X34752381Y88404762D01*
X34704762Y88309524D01*
X34657143Y88261905D01*
X34561905Y88214286D01*
X34371429Y88166667D01*
X34133333Y88166667D01*
X33942857Y88214286D01*
X33847619Y88261905D01*
X33800000Y88309524D01*
X33752381Y88404762D01*
X3909524Y82147619D02*
X3909524Y83147619D01*
X4290477Y83147619D01*
X4385715Y83100000D01*
X4433334Y83052381D01*
X4480953Y82957143D01*
X4480953Y82814286D01*
X4433334Y82719048D01*
X4385715Y82671429D01*
X4290477Y82623810D01*
X3909524Y82623810D01*
X5433334Y82147619D02*
X4861905Y82147619D01*
X5147619Y82147619D02*
X5147619Y83147619D01*
X5052381Y83004762D01*
X4957143Y82909524D01*
X4861905Y82861905D01*
X6385715Y82147619D02*
X5814286Y82147619D01*
X6100000Y82147619D02*
X6100000Y83147619D01*
X6004762Y83004762D01*
X5909524Y82909524D01*
X5814286Y82861905D01*
X7338096Y82147619D02*
X6766667Y82147619D01*
X7052381Y82147619D02*
X7052381Y83147619D01*
X6957143Y83004762D01*
X6861905Y82909524D01*
X6766667Y82861905D01*
X66009524Y5647619D02*
X66009524Y6647619D01*
X66390477Y6647619D01*
X66485715Y6600000D01*
X66533334Y6552381D01*
X66580953Y6457143D01*
X66580953Y6314286D01*
X66533334Y6219048D01*
X66485715Y6171429D01*
X66390477Y6123810D01*
X66009524Y6123810D01*
X67533334Y5647619D02*
X66961905Y5647619D01*
X67247619Y5647619D02*
X67247619Y6647619D01*
X67152381Y6504762D01*
X67057143Y6409524D01*
X66961905Y6361905D01*
X68485715Y5647619D02*
X67914286Y5647619D01*
X68200000Y5647619D02*
X68200000Y6647619D01*
X68104762Y6504762D01*
X68009524Y6409524D01*
X67914286Y6361905D01*
X68866667Y6552381D02*
X68914286Y6600000D01*
X69009524Y6647619D01*
X69247620Y6647619D01*
X69342858Y6600000D01*
X69390477Y6552381D01*
X69438096Y6457143D01*
X69438096Y6361905D01*
X69390477Y6219048D01*
X68819048Y5647619D01*
X69438096Y5647619D01*
X33352381Y4009524D02*
X32352381Y4009524D01*
X32352381Y4390477D01*
X32400000Y4485715D01*
X32447619Y4533334D01*
X32542857Y4580953D01*
X32685714Y4580953D01*
X32780952Y4533334D01*
X32828571Y4485715D01*
X32876190Y4390477D01*
X32876190Y4009524D01*
X33352381Y5533334D02*
X33352381Y4961905D01*
X33352381Y5247619D02*
X32352381Y5247619D01*
X32495238Y5152381D01*
X32590476Y5057143D01*
X32638095Y4961905D01*
X33352381Y6485715D02*
X33352381Y5914286D01*
X33352381Y6200000D02*
X32352381Y6200000D01*
X32495238Y6104762D01*
X32590476Y6009524D01*
X32638095Y5914286D01*
X32352381Y6819048D02*
X32352381Y7438096D01*
X32733333Y7104762D01*
X32733333Y7247620D01*
X32780952Y7342858D01*
X32828571Y7390477D01*
X32923810Y7438096D01*
X33161905Y7438096D01*
X33257143Y7390477D01*
X33304762Y7342858D01*
X33352381Y7247620D01*
X33352381Y6961905D01*
X33304762Y6866667D01*
X33257143Y6819048D01*
X37452381Y1009524D02*
X36452381Y1009524D01*
X36452381Y1390477D01*
X36500000Y1485715D01*
X36547619Y1533334D01*
X36642857Y1580953D01*
X36785714Y1580953D01*
X36880952Y1533334D01*
X36928571Y1485715D01*
X36976190Y1390477D01*
X36976190Y1009524D01*
X36547619Y1961905D02*
X36500000Y2009524D01*
X36452381Y2104762D01*
X36452381Y2342858D01*
X36500000Y2438096D01*
X36547619Y2485715D01*
X36642857Y2533334D01*
X36738095Y2533334D01*
X36880952Y2485715D01*
X37452381Y1914286D01*
X37452381Y2533334D01*
X36452381Y3152381D02*
X36452381Y3247620D01*
X36500000Y3342858D01*
X36547619Y3390477D01*
X36642857Y3438096D01*
X36833333Y3485715D01*
X37071429Y3485715D01*
X37261905Y3438096D01*
X37357143Y3390477D01*
X37404762Y3342858D01*
X37452381Y3247620D01*
X37452381Y3152381D01*
X37404762Y3057143D01*
X37357143Y3009524D01*
X37261905Y2961905D01*
X37071429Y2914286D01*
X36833333Y2914286D01*
X36642857Y2961905D01*
X36547619Y3009524D01*
X36500000Y3057143D01*
X36452381Y3152381D01*
X37452381Y4438096D02*
X37452381Y3866667D01*
X37452381Y4152381D02*
X36452381Y4152381D01*
X36595238Y4057143D01*
X36690476Y3961905D01*
X36738095Y3866667D01*
X57452381Y14152381D02*
X57357143Y14200000D01*
X57261905Y14295238D01*
X57119048Y14438095D01*
X57023809Y14485714D01*
X56928571Y14485714D01*
X56976190Y14247619D02*
X56880952Y14295238D01*
X56785714Y14390476D01*
X56738095Y14580952D01*
X56738095Y14914286D01*
X56785714Y15104762D01*
X56880952Y15200000D01*
X56976190Y15247619D01*
X57166667Y15247619D01*
X57261905Y15200000D01*
X57357143Y15104762D01*
X57404762Y14914286D01*
X57404762Y14580952D01*
X57357143Y14390476D01*
X57261905Y14295238D01*
X57166667Y14247619D01*
X56976190Y14247619D01*
X57785714Y15152381D02*
X57833333Y15200000D01*
X57928571Y15247619D01*
X58166667Y15247619D01*
X58261905Y15200000D01*
X58309524Y15152381D01*
X58357143Y15057143D01*
X58357143Y14961905D01*
X58309524Y14819048D01*
X57738095Y14247619D01*
X58357143Y14247619D01*
X58976190Y15247619D02*
X59071429Y15247619D01*
X59166667Y15200000D01*
X59214286Y15152381D01*
X59261905Y15057143D01*
X59309524Y14866667D01*
X59309524Y14628571D01*
X59261905Y14438095D01*
X59214286Y14342857D01*
X59166667Y14295238D01*
X59071429Y14247619D01*
X58976190Y14247619D01*
X58880952Y14295238D01*
X58833333Y14342857D01*
X58785714Y14438095D01*
X58738095Y14628571D01*
X58738095Y14866667D01*
X58785714Y15057143D01*
X58833333Y15152381D01*
X58880952Y15200000D01*
X58976190Y15247619D01*
X60261905Y14247619D02*
X59690476Y14247619D01*
X59976190Y14247619D02*
X59976190Y15247619D01*
X59880952Y15104762D01*
X59785714Y15009524D01*
X59690476Y14961905D01*
X31780953Y55347619D02*
X31447619Y55823810D01*
X31209524Y55347619D02*
X31209524Y56347619D01*
X31590477Y56347619D01*
X31685715Y56300000D01*
X31733334Y56252381D01*
X31780953Y56157143D01*
X31780953Y56014286D01*
X31733334Y55919048D01*
X31685715Y55871429D01*
X31590477Y55823810D01*
X31209524Y55823810D01*
X32733334Y55347619D02*
X32161905Y55347619D01*
X32447619Y55347619D02*
X32447619Y56347619D01*
X32352381Y56204762D01*
X32257143Y56109524D01*
X32161905Y56061905D01*
X33352381Y56347619D02*
X33447620Y56347619D01*
X33542858Y56300000D01*
X33590477Y56252381D01*
X33638096Y56157143D01*
X33685715Y55966667D01*
X33685715Y55728571D01*
X33638096Y55538095D01*
X33590477Y55442857D01*
X33542858Y55395238D01*
X33447620Y55347619D01*
X33352381Y55347619D01*
X33257143Y55395238D01*
X33209524Y55442857D01*
X33161905Y55538095D01*
X33114286Y55728571D01*
X33114286Y55966667D01*
X33161905Y56157143D01*
X33209524Y56252381D01*
X33257143Y56300000D01*
X33352381Y56347619D01*
X34638096Y55347619D02*
X34066667Y55347619D01*
X34352381Y55347619D02*
X34352381Y56347619D01*
X34257143Y56204762D01*
X34161905Y56109524D01*
X34066667Y56061905D01*
X36380953Y55247619D02*
X36047619Y55723810D01*
X35809524Y55247619D02*
X35809524Y56247619D01*
X36190477Y56247619D01*
X36285715Y56200000D01*
X36333334Y56152381D01*
X36380953Y56057143D01*
X36380953Y55914286D01*
X36333334Y55819048D01*
X36285715Y55771429D01*
X36190477Y55723810D01*
X35809524Y55723810D01*
X37333334Y55247619D02*
X36761905Y55247619D01*
X37047619Y55247619D02*
X37047619Y56247619D01*
X36952381Y56104762D01*
X36857143Y56009524D01*
X36761905Y55961905D01*
X37952381Y56247619D02*
X38047620Y56247619D01*
X38142858Y56200000D01*
X38190477Y56152381D01*
X38238096Y56057143D01*
X38285715Y55866667D01*
X38285715Y55628571D01*
X38238096Y55438095D01*
X38190477Y55342857D01*
X38142858Y55295238D01*
X38047620Y55247619D01*
X37952381Y55247619D01*
X37857143Y55295238D01*
X37809524Y55342857D01*
X37761905Y55438095D01*
X37714286Y55628571D01*
X37714286Y55866667D01*
X37761905Y56057143D01*
X37809524Y56152381D01*
X37857143Y56200000D01*
X37952381Y56247619D01*
X38666667Y56152381D02*
X38714286Y56200000D01*
X38809524Y56247619D01*
X39047620Y56247619D01*
X39142858Y56200000D01*
X39190477Y56152381D01*
X39238096Y56057143D01*
X39238096Y55961905D01*
X39190477Y55819048D01*
X38619048Y55247619D01*
X39238096Y55247619D01*
X22398869Y15388797D02*
X22065535Y15864988D01*
X21827440Y15388797D02*
X21827440Y16388797D01*
X22208393Y16388797D01*
X22303631Y16341178D01*
X22351250Y16293559D01*
X22398869Y16198321D01*
X22398869Y16055464D01*
X22351250Y15960226D01*
X22303631Y15912607D01*
X22208393Y15864988D01*
X21827440Y15864988D01*
X22779821Y16293559D02*
X22827440Y16341178D01*
X22922678Y16388797D01*
X23160774Y16388797D01*
X23256012Y16341178D01*
X23303631Y16293559D01*
X23351250Y16198321D01*
X23351250Y16103083D01*
X23303631Y15960226D01*
X22732202Y15388797D01*
X23351250Y15388797D01*
X23970297Y16388797D02*
X24065536Y16388797D01*
X24160774Y16341178D01*
X24208393Y16293559D01*
X24256012Y16198321D01*
X24303631Y16007845D01*
X24303631Y15769749D01*
X24256012Y15579273D01*
X24208393Y15484035D01*
X24160774Y15436416D01*
X24065536Y15388797D01*
X23970297Y15388797D01*
X23875059Y15436416D01*
X23827440Y15484035D01*
X23779821Y15579273D01*
X23732202Y15769749D01*
X23732202Y16007845D01*
X23779821Y16198321D01*
X23827440Y16293559D01*
X23875059Y16341178D01*
X23970297Y16388797D01*
X25256012Y15388797D02*
X24684583Y15388797D01*
X24970297Y15388797D02*
X24970297Y16388797D01*
X24875059Y16245940D01*
X24779821Y16150702D01*
X24684583Y16103083D01*
X10580953Y19847619D02*
X10247619Y20323810D01*
X10009524Y19847619D02*
X10009524Y20847619D01*
X10390477Y20847619D01*
X10485715Y20800000D01*
X10533334Y20752381D01*
X10580953Y20657143D01*
X10580953Y20514286D01*
X10533334Y20419048D01*
X10485715Y20371429D01*
X10390477Y20323810D01*
X10009524Y20323810D01*
X10961905Y20752381D02*
X11009524Y20800000D01*
X11104762Y20847619D01*
X11342858Y20847619D01*
X11438096Y20800000D01*
X11485715Y20752381D01*
X11533334Y20657143D01*
X11533334Y20561905D01*
X11485715Y20419048D01*
X10914286Y19847619D01*
X11533334Y19847619D01*
X12152381Y20847619D02*
X12247620Y20847619D01*
X12342858Y20800000D01*
X12390477Y20752381D01*
X12438096Y20657143D01*
X12485715Y20466667D01*
X12485715Y20228571D01*
X12438096Y20038095D01*
X12390477Y19942857D01*
X12342858Y19895238D01*
X12247620Y19847619D01*
X12152381Y19847619D01*
X12057143Y19895238D01*
X12009524Y19942857D01*
X11961905Y20038095D01*
X11914286Y20228571D01*
X11914286Y20466667D01*
X11961905Y20657143D01*
X12009524Y20752381D01*
X12057143Y20800000D01*
X12152381Y20847619D01*
X12866667Y20752381D02*
X12914286Y20800000D01*
X13009524Y20847619D01*
X13247620Y20847619D01*
X13342858Y20800000D01*
X13390477Y20752381D01*
X13438096Y20657143D01*
X13438096Y20561905D01*
X13390477Y20419048D01*
X12819048Y19847619D01*
X13438096Y19847619D01*
X11252381Y23880953D02*
X10776190Y23547619D01*
X11252381Y23309524D02*
X10252381Y23309524D01*
X10252381Y23690477D01*
X10300000Y23785715D01*
X10347619Y23833334D01*
X10442857Y23880953D01*
X10585714Y23880953D01*
X10680952Y23833334D01*
X10728571Y23785715D01*
X10776190Y23690477D01*
X10776190Y23309524D01*
X10347619Y24261905D02*
X10300000Y24309524D01*
X10252381Y24404762D01*
X10252381Y24642858D01*
X10300000Y24738096D01*
X10347619Y24785715D01*
X10442857Y24833334D01*
X10538095Y24833334D01*
X10680952Y24785715D01*
X11252381Y24214286D01*
X11252381Y24833334D01*
X10252381Y25452381D02*
X10252381Y25547620D01*
X10300000Y25642858D01*
X10347619Y25690477D01*
X10442857Y25738096D01*
X10633333Y25785715D01*
X10871429Y25785715D01*
X11061905Y25738096D01*
X11157143Y25690477D01*
X11204762Y25642858D01*
X11252381Y25547620D01*
X11252381Y25452381D01*
X11204762Y25357143D01*
X11157143Y25309524D01*
X11061905Y25261905D01*
X10871429Y25214286D01*
X10633333Y25214286D01*
X10442857Y25261905D01*
X10347619Y25309524D01*
X10300000Y25357143D01*
X10252381Y25452381D01*
X10252381Y26119048D02*
X10252381Y26738096D01*
X10633333Y26404762D01*
X10633333Y26547620D01*
X10680952Y26642858D01*
X10728571Y26690477D01*
X10823810Y26738096D01*
X11061905Y26738096D01*
X11157143Y26690477D01*
X11204762Y26642858D01*
X11252381Y26547620D01*
X11252381Y26261905D01*
X11204762Y26166667D01*
X11157143Y26119048D01*
X18780953Y49247619D02*
X18447619Y49723810D01*
X18209524Y49247619D02*
X18209524Y50247619D01*
X18590477Y50247619D01*
X18685715Y50200000D01*
X18733334Y50152381D01*
X18780953Y50057143D01*
X18780953Y49914286D01*
X18733334Y49819048D01*
X18685715Y49771429D01*
X18590477Y49723810D01*
X18209524Y49723810D01*
X19161905Y50152381D02*
X19209524Y50200000D01*
X19304762Y50247619D01*
X19542858Y50247619D01*
X19638096Y50200000D01*
X19685715Y50152381D01*
X19733334Y50057143D01*
X19733334Y49961905D01*
X19685715Y49819048D01*
X19114286Y49247619D01*
X19733334Y49247619D01*
X20352381Y50247619D02*
X20447620Y50247619D01*
X20542858Y50200000D01*
X20590477Y50152381D01*
X20638096Y50057143D01*
X20685715Y49866667D01*
X20685715Y49628571D01*
X20638096Y49438095D01*
X20590477Y49342857D01*
X20542858Y49295238D01*
X20447620Y49247619D01*
X20352381Y49247619D01*
X20257143Y49295238D01*
X20209524Y49342857D01*
X20161905Y49438095D01*
X20114286Y49628571D01*
X20114286Y49866667D01*
X20161905Y50057143D01*
X20209524Y50152381D01*
X20257143Y50200000D01*
X20352381Y50247619D01*
X21542858Y49914286D02*
X21542858Y49247619D01*
X21304762Y50295238D02*
X21066667Y49580952D01*
X21685715Y49580952D01*
X17152381Y51080953D02*
X16676190Y50747619D01*
X17152381Y50509524D02*
X16152381Y50509524D01*
X16152381Y50890477D01*
X16200000Y50985715D01*
X16247619Y51033334D01*
X16342857Y51080953D01*
X16485714Y51080953D01*
X16580952Y51033334D01*
X16628571Y50985715D01*
X16676190Y50890477D01*
X16676190Y50509524D01*
X16247619Y51461905D02*
X16200000Y51509524D01*
X16152381Y51604762D01*
X16152381Y51842858D01*
X16200000Y51938096D01*
X16247619Y51985715D01*
X16342857Y52033334D01*
X16438095Y52033334D01*
X16580952Y51985715D01*
X17152381Y51414286D01*
X17152381Y52033334D01*
X16152381Y52652381D02*
X16152381Y52747620D01*
X16200000Y52842858D01*
X16247619Y52890477D01*
X16342857Y52938096D01*
X16533333Y52985715D01*
X16771429Y52985715D01*
X16961905Y52938096D01*
X17057143Y52890477D01*
X17104762Y52842858D01*
X17152381Y52747620D01*
X17152381Y52652381D01*
X17104762Y52557143D01*
X17057143Y52509524D01*
X16961905Y52461905D01*
X16771429Y52414286D01*
X16533333Y52414286D01*
X16342857Y52461905D01*
X16247619Y52509524D01*
X16200000Y52557143D01*
X16152381Y52652381D01*
X16152381Y53890477D02*
X16152381Y53414286D01*
X16628571Y53366667D01*
X16580952Y53414286D01*
X16533333Y53509524D01*
X16533333Y53747620D01*
X16580952Y53842858D01*
X16628571Y53890477D01*
X16723810Y53938096D01*
X16961905Y53938096D01*
X17057143Y53890477D01*
X17104762Y53842858D01*
X17152381Y53747620D01*
X17152381Y53509524D01*
X17104762Y53414286D01*
X17057143Y53366667D01*
X30080953Y57347619D02*
X29747619Y57823810D01*
X29509524Y57347619D02*
X29509524Y58347619D01*
X29890477Y58347619D01*
X29985715Y58300000D01*
X30033334Y58252381D01*
X30080953Y58157143D01*
X30080953Y58014286D01*
X30033334Y57919048D01*
X29985715Y57871429D01*
X29890477Y57823810D01*
X29509524Y57823810D01*
X30461905Y58252381D02*
X30509524Y58300000D01*
X30604762Y58347619D01*
X30842858Y58347619D01*
X30938096Y58300000D01*
X30985715Y58252381D01*
X31033334Y58157143D01*
X31033334Y58061905D01*
X30985715Y57919048D01*
X30414286Y57347619D01*
X31033334Y57347619D01*
X31652381Y58347619D02*
X31747620Y58347619D01*
X31842858Y58300000D01*
X31890477Y58252381D01*
X31938096Y58157143D01*
X31985715Y57966667D01*
X31985715Y57728571D01*
X31938096Y57538095D01*
X31890477Y57442857D01*
X31842858Y57395238D01*
X31747620Y57347619D01*
X31652381Y57347619D01*
X31557143Y57395238D01*
X31509524Y57442857D01*
X31461905Y57538095D01*
X31414286Y57728571D01*
X31414286Y57966667D01*
X31461905Y58157143D01*
X31509524Y58252381D01*
X31557143Y58300000D01*
X31652381Y58347619D01*
X32842858Y58347619D02*
X32652381Y58347619D01*
X32557143Y58300000D01*
X32509524Y58252381D01*
X32414286Y58109524D01*
X32366667Y57919048D01*
X32366667Y57538095D01*
X32414286Y57442857D01*
X32461905Y57395238D01*
X32557143Y57347619D01*
X32747620Y57347619D01*
X32842858Y57395238D01*
X32890477Y57442857D01*
X32938096Y57538095D01*
X32938096Y57776190D01*
X32890477Y57871429D01*
X32842858Y57919048D01*
X32747620Y57966667D01*
X32557143Y57966667D01*
X32461905Y57919048D01*
X32414286Y57871429D01*
X32366667Y57776190D01*
X54180953Y7247619D02*
X53847619Y7723810D01*
X53609524Y7247619D02*
X53609524Y8247619D01*
X53990477Y8247619D01*
X54085715Y8200000D01*
X54133334Y8152381D01*
X54180953Y8057143D01*
X54180953Y7914286D01*
X54133334Y7819048D01*
X54085715Y7771429D01*
X53990477Y7723810D01*
X53609524Y7723810D01*
X54561905Y8152381D02*
X54609524Y8200000D01*
X54704762Y8247619D01*
X54942858Y8247619D01*
X55038096Y8200000D01*
X55085715Y8152381D01*
X55133334Y8057143D01*
X55133334Y7961905D01*
X55085715Y7819048D01*
X54514286Y7247619D01*
X55133334Y7247619D01*
X55752381Y8247619D02*
X55847620Y8247619D01*
X55942858Y8200000D01*
X55990477Y8152381D01*
X56038096Y8057143D01*
X56085715Y7866667D01*
X56085715Y7628571D01*
X56038096Y7438095D01*
X55990477Y7342857D01*
X55942858Y7295238D01*
X55847620Y7247619D01*
X55752381Y7247619D01*
X55657143Y7295238D01*
X55609524Y7342857D01*
X55561905Y7438095D01*
X55514286Y7628571D01*
X55514286Y7866667D01*
X55561905Y8057143D01*
X55609524Y8152381D01*
X55657143Y8200000D01*
X55752381Y8247619D01*
X56419048Y8247619D02*
X57085715Y8247619D01*
X56657143Y7247619D01*
X49680953Y15797619D02*
X49347619Y16273810D01*
X49109524Y15797619D02*
X49109524Y16797619D01*
X49490477Y16797619D01*
X49585715Y16750000D01*
X49633334Y16702381D01*
X49680953Y16607143D01*
X49680953Y16464286D01*
X49633334Y16369048D01*
X49585715Y16321429D01*
X49490477Y16273810D01*
X49109524Y16273810D01*
X50061905Y16702381D02*
X50109524Y16750000D01*
X50204762Y16797619D01*
X50442858Y16797619D01*
X50538096Y16750000D01*
X50585715Y16702381D01*
X50633334Y16607143D01*
X50633334Y16511905D01*
X50585715Y16369048D01*
X50014286Y15797619D01*
X50633334Y15797619D01*
X51252381Y16797619D02*
X51347620Y16797619D01*
X51442858Y16750000D01*
X51490477Y16702381D01*
X51538096Y16607143D01*
X51585715Y16416667D01*
X51585715Y16178571D01*
X51538096Y15988095D01*
X51490477Y15892857D01*
X51442858Y15845238D01*
X51347620Y15797619D01*
X51252381Y15797619D01*
X51157143Y15845238D01*
X51109524Y15892857D01*
X51061905Y15988095D01*
X51014286Y16178571D01*
X51014286Y16416667D01*
X51061905Y16607143D01*
X51109524Y16702381D01*
X51157143Y16750000D01*
X51252381Y16797619D01*
X52157143Y16369048D02*
X52061905Y16416667D01*
X52014286Y16464286D01*
X51966667Y16559524D01*
X51966667Y16607143D01*
X52014286Y16702381D01*
X52061905Y16750000D01*
X52157143Y16797619D01*
X52347620Y16797619D01*
X52442858Y16750000D01*
X52490477Y16702381D01*
X52538096Y16607143D01*
X52538096Y16559524D01*
X52490477Y16464286D01*
X52442858Y16416667D01*
X52347620Y16369048D01*
X52157143Y16369048D01*
X52061905Y16321429D01*
X52014286Y16273810D01*
X51966667Y16178571D01*
X51966667Y15988095D01*
X52014286Y15892857D01*
X52061905Y15845238D01*
X52157143Y15797619D01*
X52347620Y15797619D01*
X52442858Y15845238D01*
X52490477Y15892857D01*
X52538096Y15988095D01*
X52538096Y16178571D01*
X52490477Y16273810D01*
X52442858Y16321429D01*
X52347620Y16369048D01*
X52480953Y19447619D02*
X52147619Y19923810D01*
X51909524Y19447619D02*
X51909524Y20447619D01*
X52290477Y20447619D01*
X52385715Y20400000D01*
X52433334Y20352381D01*
X52480953Y20257143D01*
X52480953Y20114286D01*
X52433334Y20019048D01*
X52385715Y19971429D01*
X52290477Y19923810D01*
X51909524Y19923810D01*
X52861905Y20352381D02*
X52909524Y20400000D01*
X53004762Y20447619D01*
X53242858Y20447619D01*
X53338096Y20400000D01*
X53385715Y20352381D01*
X53433334Y20257143D01*
X53433334Y20161905D01*
X53385715Y20019048D01*
X52814286Y19447619D01*
X53433334Y19447619D01*
X54052381Y20447619D02*
X54147620Y20447619D01*
X54242858Y20400000D01*
X54290477Y20352381D01*
X54338096Y20257143D01*
X54385715Y20066667D01*
X54385715Y19828571D01*
X54338096Y19638095D01*
X54290477Y19542857D01*
X54242858Y19495238D01*
X54147620Y19447619D01*
X54052381Y19447619D01*
X53957143Y19495238D01*
X53909524Y19542857D01*
X53861905Y19638095D01*
X53814286Y19828571D01*
X53814286Y20066667D01*
X53861905Y20257143D01*
X53909524Y20352381D01*
X53957143Y20400000D01*
X54052381Y20447619D01*
X54861905Y19447619D02*
X55052381Y19447619D01*
X55147620Y19495238D01*
X55195239Y19542857D01*
X55290477Y19685714D01*
X55338096Y19876190D01*
X55338096Y20257143D01*
X55290477Y20352381D01*
X55242858Y20400000D01*
X55147620Y20447619D01*
X54957143Y20447619D01*
X54861905Y20400000D01*
X54814286Y20352381D01*
X54766667Y20257143D01*
X54766667Y20019048D01*
X54814286Y19923810D01*
X54861905Y19876190D01*
X54957143Y19828571D01*
X55147620Y19828571D01*
X55242858Y19876190D01*
X55290477Y19923810D01*
X55338096Y20019048D01*
X54980953Y9447619D02*
X54647619Y9923810D01*
X54409524Y9447619D02*
X54409524Y10447619D01*
X54790477Y10447619D01*
X54885715Y10400000D01*
X54933334Y10352381D01*
X54980953Y10257143D01*
X54980953Y10114286D01*
X54933334Y10019048D01*
X54885715Y9971429D01*
X54790477Y9923810D01*
X54409524Y9923810D01*
X55361905Y10352381D02*
X55409524Y10400000D01*
X55504762Y10447619D01*
X55742858Y10447619D01*
X55838096Y10400000D01*
X55885715Y10352381D01*
X55933334Y10257143D01*
X55933334Y10161905D01*
X55885715Y10019048D01*
X55314286Y9447619D01*
X55933334Y9447619D01*
X56885715Y9447619D02*
X56314286Y9447619D01*
X56600000Y9447619D02*
X56600000Y10447619D01*
X56504762Y10304762D01*
X56409524Y10209524D01*
X56314286Y10161905D01*
X57504762Y10447619D02*
X57600001Y10447619D01*
X57695239Y10400000D01*
X57742858Y10352381D01*
X57790477Y10257143D01*
X57838096Y10066667D01*
X57838096Y9828571D01*
X57790477Y9638095D01*
X57742858Y9542857D01*
X57695239Y9495238D01*
X57600001Y9447619D01*
X57504762Y9447619D01*
X57409524Y9495238D01*
X57361905Y9542857D01*
X57314286Y9638095D01*
X57266667Y9828571D01*
X57266667Y10066667D01*
X57314286Y10257143D01*
X57361905Y10352381D01*
X57409524Y10400000D01*
X57504762Y10447619D01*
X55080953Y37947619D02*
X54747619Y38423810D01*
X54509524Y37947619D02*
X54509524Y38947619D01*
X54890477Y38947619D01*
X54985715Y38900000D01*
X55033334Y38852381D01*
X55080953Y38757143D01*
X55080953Y38614286D01*
X55033334Y38519048D01*
X54985715Y38471429D01*
X54890477Y38423810D01*
X54509524Y38423810D01*
X55461905Y38852381D02*
X55509524Y38900000D01*
X55604762Y38947619D01*
X55842858Y38947619D01*
X55938096Y38900000D01*
X55985715Y38852381D01*
X56033334Y38757143D01*
X56033334Y38661905D01*
X55985715Y38519048D01*
X55414286Y37947619D01*
X56033334Y37947619D01*
X56985715Y37947619D02*
X56414286Y37947619D01*
X56700000Y37947619D02*
X56700000Y38947619D01*
X56604762Y38804762D01*
X56509524Y38709524D01*
X56414286Y38661905D01*
X57938096Y37947619D02*
X57366667Y37947619D01*
X57652381Y37947619D02*
X57652381Y38947619D01*
X57557143Y38804762D01*
X57461905Y38709524D01*
X57366667Y38661905D01*
X46580953Y8447619D02*
X46247619Y8923810D01*
X46009524Y8447619D02*
X46009524Y9447619D01*
X46390477Y9447619D01*
X46485715Y9400000D01*
X46533334Y9352381D01*
X46580953Y9257143D01*
X46580953Y9114286D01*
X46533334Y9019048D01*
X46485715Y8971429D01*
X46390477Y8923810D01*
X46009524Y8923810D01*
X46961905Y9352381D02*
X47009524Y9400000D01*
X47104762Y9447619D01*
X47342858Y9447619D01*
X47438096Y9400000D01*
X47485715Y9352381D01*
X47533334Y9257143D01*
X47533334Y9161905D01*
X47485715Y9019048D01*
X46914286Y8447619D01*
X47533334Y8447619D01*
X48485715Y8447619D02*
X47914286Y8447619D01*
X48200000Y8447619D02*
X48200000Y9447619D01*
X48104762Y9304762D01*
X48009524Y9209524D01*
X47914286Y9161905D01*
X48866667Y9352381D02*
X48914286Y9400000D01*
X49009524Y9447619D01*
X49247620Y9447619D01*
X49342858Y9400000D01*
X49390477Y9352381D01*
X49438096Y9257143D01*
X49438096Y9161905D01*
X49390477Y9019048D01*
X48819048Y8447619D01*
X49438096Y8447619D01*
X41252381Y9080953D02*
X40776190Y8747619D01*
X41252381Y8509524D02*
X40252381Y8509524D01*
X40252381Y8890477D01*
X40300000Y8985715D01*
X40347619Y9033334D01*
X40442857Y9080953D01*
X40585714Y9080953D01*
X40680952Y9033334D01*
X40728571Y8985715D01*
X40776190Y8890477D01*
X40776190Y8509524D01*
X40347619Y9461905D02*
X40300000Y9509524D01*
X40252381Y9604762D01*
X40252381Y9842858D01*
X40300000Y9938096D01*
X40347619Y9985715D01*
X40442857Y10033334D01*
X40538095Y10033334D01*
X40680952Y9985715D01*
X41252381Y9414286D01*
X41252381Y10033334D01*
X41252381Y10985715D02*
X41252381Y10414286D01*
X41252381Y10700000D02*
X40252381Y10700000D01*
X40395238Y10604762D01*
X40490476Y10509524D01*
X40538095Y10414286D01*
X40252381Y11319048D02*
X40252381Y11938096D01*
X40633333Y11604762D01*
X40633333Y11747620D01*
X40680952Y11842858D01*
X40728571Y11890477D01*
X40823810Y11938096D01*
X41061905Y11938096D01*
X41157143Y11890477D01*
X41204762Y11842858D01*
X41252381Y11747620D01*
X41252381Y11461905D01*
X41204762Y11366667D01*
X41157143Y11319048D01*
X72885714Y49047619D02*
X72885714Y48238095D01*
X72933333Y48142857D01*
X72980952Y48095238D01*
X73076190Y48047619D01*
X73266667Y48047619D01*
X73361905Y48095238D01*
X73409524Y48142857D01*
X73457143Y48238095D01*
X73457143Y49047619D01*
X74457143Y48047619D02*
X73885714Y48047619D01*
X74171428Y48047619D02*
X74171428Y49047619D01*
X74076190Y48904762D01*
X73980952Y48809524D01*
X73885714Y48761905D01*
X75076190Y49047619D02*
X75171429Y49047619D01*
X75266667Y49000000D01*
X75314286Y48952381D01*
X75361905Y48857143D01*
X75409524Y48666667D01*
X75409524Y48428571D01*
X75361905Y48238095D01*
X75314286Y48142857D01*
X75266667Y48095238D01*
X75171429Y48047619D01*
X75076190Y48047619D01*
X74980952Y48095238D01*
X74933333Y48142857D01*
X74885714Y48238095D01*
X74838095Y48428571D01*
X74838095Y48666667D01*
X74885714Y48857143D01*
X74933333Y48952381D01*
X74980952Y49000000D01*
X75076190Y49047619D01*
X75742857Y49047619D02*
X76361905Y49047619D01*
X76028571Y48666667D01*
X76171429Y48666667D01*
X76266667Y48619048D01*
X76314286Y48571429D01*
X76361905Y48476190D01*
X76361905Y48238095D01*
X76314286Y48142857D01*
X76266667Y48095238D01*
X76171429Y48047619D01*
X75885714Y48047619D01*
X75790476Y48095238D01*
X75742857Y48142857D01*
X20552381Y19586892D02*
X21361905Y19586892D01*
X21457143Y19634511D01*
X21504762Y19682130D01*
X21552381Y19777368D01*
X21552381Y19967845D01*
X21504762Y20063083D01*
X21457143Y20110702D01*
X21361905Y20158321D01*
X20552381Y20158321D01*
X20647619Y20586892D02*
X20600000Y20634511D01*
X20552381Y20729749D01*
X20552381Y20967845D01*
X20600000Y21063083D01*
X20647619Y21110702D01*
X20742857Y21158321D01*
X20838095Y21158321D01*
X20980952Y21110702D01*
X21552381Y20539273D01*
X21552381Y21158321D01*
X20552381Y21777368D02*
X20552381Y21872607D01*
X20600000Y21967845D01*
X20647619Y22015464D01*
X20742857Y22063083D01*
X20933333Y22110702D01*
X21171429Y22110702D01*
X21361905Y22063083D01*
X21457143Y22015464D01*
X21504762Y21967845D01*
X21552381Y21872607D01*
X21552381Y21777368D01*
X21504762Y21682130D01*
X21457143Y21634511D01*
X21361905Y21586892D01*
X21171429Y21539273D01*
X20933333Y21539273D01*
X20742857Y21586892D01*
X20647619Y21634511D01*
X20600000Y21682130D01*
X20552381Y21777368D01*
X21552381Y23063083D02*
X21552381Y22491654D01*
X21552381Y22777368D02*
X20552381Y22777368D01*
X20695238Y22682130D01*
X20790476Y22586892D01*
X20838095Y22491654D01*
X15985714Y60447619D02*
X15985714Y59638095D01*
X16033333Y59542857D01*
X16080952Y59495238D01*
X16176190Y59447619D01*
X16366667Y59447619D01*
X16461905Y59495238D01*
X16509524Y59542857D01*
X16557143Y59638095D01*
X16557143Y60447619D01*
X16985714Y60352381D02*
X17033333Y60400000D01*
X17128571Y60447619D01*
X17366667Y60447619D01*
X17461905Y60400000D01*
X17509524Y60352381D01*
X17557143Y60257143D01*
X17557143Y60161905D01*
X17509524Y60019048D01*
X16938095Y59447619D01*
X17557143Y59447619D01*
X18176190Y60447619D02*
X18271429Y60447619D01*
X18366667Y60400000D01*
X18414286Y60352381D01*
X18461905Y60257143D01*
X18509524Y60066667D01*
X18509524Y59828571D01*
X18461905Y59638095D01*
X18414286Y59542857D01*
X18366667Y59495238D01*
X18271429Y59447619D01*
X18176190Y59447619D01*
X18080952Y59495238D01*
X18033333Y59542857D01*
X17985714Y59638095D01*
X17938095Y59828571D01*
X17938095Y60066667D01*
X17985714Y60257143D01*
X18033333Y60352381D01*
X18080952Y60400000D01*
X18176190Y60447619D01*
X18890476Y60352381D02*
X18938095Y60400000D01*
X19033333Y60447619D01*
X19271429Y60447619D01*
X19366667Y60400000D01*
X19414286Y60352381D01*
X19461905Y60257143D01*
X19461905Y60161905D01*
X19414286Y60019048D01*
X18842857Y59447619D01*
X19461905Y59447619D01*
X38652381Y6585714D02*
X39461905Y6585714D01*
X39557143Y6633333D01*
X39604762Y6680952D01*
X39652381Y6776190D01*
X39652381Y6966667D01*
X39604762Y7061905D01*
X39557143Y7109524D01*
X39461905Y7157143D01*
X38652381Y7157143D01*
X38747619Y7585714D02*
X38700000Y7633333D01*
X38652381Y7728571D01*
X38652381Y7966667D01*
X38700000Y8061905D01*
X38747619Y8109524D01*
X38842857Y8157143D01*
X38938095Y8157143D01*
X39080952Y8109524D01*
X39652381Y7538095D01*
X39652381Y8157143D01*
X38652381Y8776190D02*
X38652381Y8871429D01*
X38700000Y8966667D01*
X38747619Y9014286D01*
X38842857Y9061905D01*
X39033333Y9109524D01*
X39271429Y9109524D01*
X39461905Y9061905D01*
X39557143Y9014286D01*
X39604762Y8966667D01*
X39652381Y8871429D01*
X39652381Y8776190D01*
X39604762Y8680952D01*
X39557143Y8633333D01*
X39461905Y8585714D01*
X39271429Y8538095D01*
X39033333Y8538095D01*
X38842857Y8585714D01*
X38747619Y8633333D01*
X38700000Y8680952D01*
X38652381Y8776190D01*
X38985714Y9966667D02*
X39652381Y9966667D01*
X38604762Y9728571D02*
X39319048Y9490476D01*
X39319048Y10109524D01*
X17885714Y76547619D02*
X17885714Y75738095D01*
X17933333Y75642857D01*
X17980952Y75595238D01*
X18076190Y75547619D01*
X18266667Y75547619D01*
X18361905Y75595238D01*
X18409524Y75642857D01*
X18457143Y75738095D01*
X18457143Y76547619D01*
X18838095Y76547619D02*
X19457143Y76547619D01*
X19123809Y76166667D01*
X19266667Y76166667D01*
X19361905Y76119048D01*
X19409524Y76071429D01*
X19457143Y75976190D01*
X19457143Y75738095D01*
X19409524Y75642857D01*
X19361905Y75595238D01*
X19266667Y75547619D01*
X18980952Y75547619D01*
X18885714Y75595238D01*
X18838095Y75642857D01*
X20076190Y76547619D02*
X20171429Y76547619D01*
X20266667Y76500000D01*
X20314286Y76452381D01*
X20361905Y76357143D01*
X20409524Y76166667D01*
X20409524Y75928571D01*
X20361905Y75738095D01*
X20314286Y75642857D01*
X20266667Y75595238D01*
X20171429Y75547619D01*
X20076190Y75547619D01*
X19980952Y75595238D01*
X19933333Y75642857D01*
X19885714Y75738095D01*
X19838095Y75928571D01*
X19838095Y76166667D01*
X19885714Y76357143D01*
X19933333Y76452381D01*
X19980952Y76500000D01*
X20076190Y76547619D01*
X21361905Y75547619D02*
X20790476Y75547619D01*
X21076190Y75547619D02*
X21076190Y76547619D01*
X20980952Y76404762D01*
X20885714Y76309524D01*
X20790476Y76261905D01*
X43785714Y71347619D02*
X43785714Y70538095D01*
X43833333Y70442857D01*
X43880952Y70395238D01*
X43976190Y70347619D01*
X44166667Y70347619D01*
X44261905Y70395238D01*
X44309524Y70442857D01*
X44357143Y70538095D01*
X44357143Y71347619D01*
X44738095Y71347619D02*
X45357143Y71347619D01*
X45023809Y70966667D01*
X45166667Y70966667D01*
X45261905Y70919048D01*
X45309524Y70871429D01*
X45357143Y70776190D01*
X45357143Y70538095D01*
X45309524Y70442857D01*
X45261905Y70395238D01*
X45166667Y70347619D01*
X44880952Y70347619D01*
X44785714Y70395238D01*
X44738095Y70442857D01*
X45976190Y71347619D02*
X46071429Y71347619D01*
X46166667Y71300000D01*
X46214286Y71252381D01*
X46261905Y71157143D01*
X46309524Y70966667D01*
X46309524Y70728571D01*
X46261905Y70538095D01*
X46214286Y70442857D01*
X46166667Y70395238D01*
X46071429Y70347619D01*
X45976190Y70347619D01*
X45880952Y70395238D01*
X45833333Y70442857D01*
X45785714Y70538095D01*
X45738095Y70728571D01*
X45738095Y70966667D01*
X45785714Y71157143D01*
X45833333Y71252381D01*
X45880952Y71300000D01*
X45976190Y71347619D01*
X46690476Y71252381D02*
X46738095Y71300000D01*
X46833333Y71347619D01*
X47071429Y71347619D01*
X47166667Y71300000D01*
X47214286Y71252381D01*
X47261905Y71157143D01*
X47261905Y71061905D01*
X47214286Y70919048D01*
X46642857Y70347619D01*
X47261905Y70347619D01*
X64985714Y71247619D02*
X64985714Y70438095D01*
X65033333Y70342857D01*
X65080952Y70295238D01*
X65176190Y70247619D01*
X65366667Y70247619D01*
X65461905Y70295238D01*
X65509524Y70342857D01*
X65557143Y70438095D01*
X65557143Y71247619D01*
X65938095Y71247619D02*
X66557143Y71247619D01*
X66223809Y70866667D01*
X66366667Y70866667D01*
X66461905Y70819048D01*
X66509524Y70771429D01*
X66557143Y70676190D01*
X66557143Y70438095D01*
X66509524Y70342857D01*
X66461905Y70295238D01*
X66366667Y70247619D01*
X66080952Y70247619D01*
X65985714Y70295238D01*
X65938095Y70342857D01*
X67176190Y71247619D02*
X67271429Y71247619D01*
X67366667Y71200000D01*
X67414286Y71152381D01*
X67461905Y71057143D01*
X67509524Y70866667D01*
X67509524Y70628571D01*
X67461905Y70438095D01*
X67414286Y70342857D01*
X67366667Y70295238D01*
X67271429Y70247619D01*
X67176190Y70247619D01*
X67080952Y70295238D01*
X67033333Y70342857D01*
X66985714Y70438095D01*
X66938095Y70628571D01*
X66938095Y70866667D01*
X66985714Y71057143D01*
X67033333Y71152381D01*
X67080952Y71200000D01*
X67176190Y71247619D01*
X67842857Y71247619D02*
X68461905Y71247619D01*
X68128571Y70866667D01*
X68271429Y70866667D01*
X68366667Y70819048D01*
X68414286Y70771429D01*
X68461905Y70676190D01*
X68461905Y70438095D01*
X68414286Y70342857D01*
X68366667Y70295238D01*
X68271429Y70247619D01*
X67985714Y70247619D01*
X67890476Y70295238D01*
X67842857Y70342857D01*
X58971428Y29823810D02*
X58971428Y29347619D01*
X58638095Y30347619D02*
X58971428Y29823810D01*
X59304762Y30347619D01*
X59590476Y30252381D02*
X59638095Y30300000D01*
X59733333Y30347619D01*
X59971429Y30347619D01*
X60066667Y30300000D01*
X60114286Y30252381D01*
X60161905Y30157143D01*
X60161905Y30061905D01*
X60114286Y29919048D01*
X59542857Y29347619D01*
X60161905Y29347619D01*
X60780952Y30347619D02*
X60876191Y30347619D01*
X60971429Y30300000D01*
X61019048Y30252381D01*
X61066667Y30157143D01*
X61114286Y29966667D01*
X61114286Y29728571D01*
X61066667Y29538095D01*
X61019048Y29442857D01*
X60971429Y29395238D01*
X60876191Y29347619D01*
X60780952Y29347619D01*
X60685714Y29395238D01*
X60638095Y29442857D01*
X60590476Y29538095D01*
X60542857Y29728571D01*
X60542857Y29966667D01*
X60590476Y30157143D01*
X60638095Y30252381D01*
X60685714Y30300000D01*
X60780952Y30347619D01*
X62066667Y29347619D02*
X61495238Y29347619D01*
X61780952Y29347619D02*
X61780952Y30347619D01*
X61685714Y30204762D01*
X61590476Y30109524D01*
X61495238Y30061905D01*
X35609524Y51047619D02*
X35609524Y52047619D01*
X35847619Y52047619D01*
X35990477Y52000000D01*
X36085715Y51904762D01*
X36133334Y51809524D01*
X36180953Y51619048D01*
X36180953Y51476190D01*
X36133334Y51285714D01*
X36085715Y51190476D01*
X35990477Y51095238D01*
X35847619Y51047619D01*
X35609524Y51047619D01*
X37133334Y51047619D02*
X36561905Y51047619D01*
X36847619Y51047619D02*
X36847619Y52047619D01*
X36752381Y51904762D01*
X36657143Y51809524D01*
X36561905Y51761905D01*
X37752381Y52047619D02*
X37847620Y52047619D01*
X37942858Y52000000D01*
X37990477Y51952381D01*
X38038096Y51857143D01*
X38085715Y51666667D01*
X38085715Y51428571D01*
X38038096Y51238095D01*
X37990477Y51142857D01*
X37942858Y51095238D01*
X37847620Y51047619D01*
X37752381Y51047619D01*
X37657143Y51095238D01*
X37609524Y51142857D01*
X37561905Y51238095D01*
X37514286Y51428571D01*
X37514286Y51666667D01*
X37561905Y51857143D01*
X37609524Y51952381D01*
X37657143Y52000000D01*
X37752381Y52047619D01*
X39038096Y51047619D02*
X38466667Y51047619D01*
X38752381Y51047619D02*
X38752381Y52047619D01*
X38657143Y51904762D01*
X38561905Y51809524D01*
X38466667Y51761905D01*
X37880953Y72147619D02*
X37547619Y72623810D01*
X37309524Y72147619D02*
X37309524Y73147619D01*
X37690477Y73147619D01*
X37785715Y73100000D01*
X37833334Y73052381D01*
X37880953Y72957143D01*
X37880953Y72814286D01*
X37833334Y72719048D01*
X37785715Y72671429D01*
X37690477Y72623810D01*
X37309524Y72623810D01*
X38214286Y73147619D02*
X38833334Y73147619D01*
X38500000Y72766667D01*
X38642858Y72766667D01*
X38738096Y72719048D01*
X38785715Y72671429D01*
X38833334Y72576190D01*
X38833334Y72338095D01*
X38785715Y72242857D01*
X38738096Y72195238D01*
X38642858Y72147619D01*
X38357143Y72147619D01*
X38261905Y72195238D01*
X38214286Y72242857D01*
X39452381Y73147619D02*
X39547620Y73147619D01*
X39642858Y73100000D01*
X39690477Y73052381D01*
X39738096Y72957143D01*
X39785715Y72766667D01*
X39785715Y72528571D01*
X39738096Y72338095D01*
X39690477Y72242857D01*
X39642858Y72195238D01*
X39547620Y72147619D01*
X39452381Y72147619D01*
X39357143Y72195238D01*
X39309524Y72242857D01*
X39261905Y72338095D01*
X39214286Y72528571D01*
X39214286Y72766667D01*
X39261905Y72957143D01*
X39309524Y73052381D01*
X39357143Y73100000D01*
X39452381Y73147619D01*
X40738096Y72147619D02*
X40166667Y72147619D01*
X40452381Y72147619D02*
X40452381Y73147619D01*
X40357143Y73004762D01*
X40261905Y72909524D01*
X40166667Y72861905D01*
X17630953Y69147619D02*
X17297619Y69623810D01*
X17059524Y69147619D02*
X17059524Y70147619D01*
X17440477Y70147619D01*
X17535715Y70100000D01*
X17583334Y70052381D01*
X17630953Y69957143D01*
X17630953Y69814286D01*
X17583334Y69719048D01*
X17535715Y69671429D01*
X17440477Y69623810D01*
X17059524Y69623810D01*
X17964286Y70147619D02*
X18583334Y70147619D01*
X18250000Y69766667D01*
X18392858Y69766667D01*
X18488096Y69719048D01*
X18535715Y69671429D01*
X18583334Y69576190D01*
X18583334Y69338095D01*
X18535715Y69242857D01*
X18488096Y69195238D01*
X18392858Y69147619D01*
X18107143Y69147619D01*
X18011905Y69195238D01*
X17964286Y69242857D01*
X19202381Y70147619D02*
X19297620Y70147619D01*
X19392858Y70100000D01*
X19440477Y70052381D01*
X19488096Y69957143D01*
X19535715Y69766667D01*
X19535715Y69528571D01*
X19488096Y69338095D01*
X19440477Y69242857D01*
X19392858Y69195238D01*
X19297620Y69147619D01*
X19202381Y69147619D01*
X19107143Y69195238D01*
X19059524Y69242857D01*
X19011905Y69338095D01*
X18964286Y69528571D01*
X18964286Y69766667D01*
X19011905Y69957143D01*
X19059524Y70052381D01*
X19107143Y70100000D01*
X19202381Y70147619D01*
X19916667Y70052381D02*
X19964286Y70100000D01*
X20059524Y70147619D01*
X20297620Y70147619D01*
X20392858Y70100000D01*
X20440477Y70052381D01*
X20488096Y69957143D01*
X20488096Y69861905D01*
X20440477Y69719048D01*
X19869048Y69147619D01*
X20488096Y69147619D01*
X60780953Y68747619D02*
X60447619Y69223810D01*
X60209524Y68747619D02*
X60209524Y69747619D01*
X60590477Y69747619D01*
X60685715Y69700000D01*
X60733334Y69652381D01*
X60780953Y69557143D01*
X60780953Y69414286D01*
X60733334Y69319048D01*
X60685715Y69271429D01*
X60590477Y69223810D01*
X60209524Y69223810D01*
X61114286Y69747619D02*
X61733334Y69747619D01*
X61400000Y69366667D01*
X61542858Y69366667D01*
X61638096Y69319048D01*
X61685715Y69271429D01*
X61733334Y69176190D01*
X61733334Y68938095D01*
X61685715Y68842857D01*
X61638096Y68795238D01*
X61542858Y68747619D01*
X61257143Y68747619D01*
X61161905Y68795238D01*
X61114286Y68842857D01*
X62352381Y69747619D02*
X62447620Y69747619D01*
X62542858Y69700000D01*
X62590477Y69652381D01*
X62638096Y69557143D01*
X62685715Y69366667D01*
X62685715Y69128571D01*
X62638096Y68938095D01*
X62590477Y68842857D01*
X62542858Y68795238D01*
X62447620Y68747619D01*
X62352381Y68747619D01*
X62257143Y68795238D01*
X62209524Y68842857D01*
X62161905Y68938095D01*
X62114286Y69128571D01*
X62114286Y69366667D01*
X62161905Y69557143D01*
X62209524Y69652381D01*
X62257143Y69700000D01*
X62352381Y69747619D01*
X63019048Y69747619D02*
X63638096Y69747619D01*
X63304762Y69366667D01*
X63447620Y69366667D01*
X63542858Y69319048D01*
X63590477Y69271429D01*
X63638096Y69176190D01*
X63638096Y68938095D01*
X63590477Y68842857D01*
X63542858Y68795238D01*
X63447620Y68747619D01*
X63161905Y68747619D01*
X63066667Y68795238D01*
X63019048Y68842857D01*
X53080953Y65647619D02*
X52747619Y66123810D01*
X52509524Y65647619D02*
X52509524Y66647619D01*
X52890477Y66647619D01*
X52985715Y66600000D01*
X53033334Y66552381D01*
X53080953Y66457143D01*
X53080953Y66314286D01*
X53033334Y66219048D01*
X52985715Y66171429D01*
X52890477Y66123810D01*
X52509524Y66123810D01*
X53414286Y66647619D02*
X54033334Y66647619D01*
X53700000Y66266667D01*
X53842858Y66266667D01*
X53938096Y66219048D01*
X53985715Y66171429D01*
X54033334Y66076190D01*
X54033334Y65838095D01*
X53985715Y65742857D01*
X53938096Y65695238D01*
X53842858Y65647619D01*
X53557143Y65647619D01*
X53461905Y65695238D01*
X53414286Y65742857D01*
X54652381Y66647619D02*
X54747620Y66647619D01*
X54842858Y66600000D01*
X54890477Y66552381D01*
X54938096Y66457143D01*
X54985715Y66266667D01*
X54985715Y66028571D01*
X54938096Y65838095D01*
X54890477Y65742857D01*
X54842858Y65695238D01*
X54747620Y65647619D01*
X54652381Y65647619D01*
X54557143Y65695238D01*
X54509524Y65742857D01*
X54461905Y65838095D01*
X54414286Y66028571D01*
X54414286Y66266667D01*
X54461905Y66457143D01*
X54509524Y66552381D01*
X54557143Y66600000D01*
X54652381Y66647619D01*
X55842858Y66314286D02*
X55842858Y65647619D01*
X55604762Y66695238D02*
X55366667Y65980952D01*
X55985715Y65980952D01*
X85980953Y71747619D02*
X85647619Y72223810D01*
X85409524Y71747619D02*
X85409524Y72747619D01*
X85790477Y72747619D01*
X85885715Y72700000D01*
X85933334Y72652381D01*
X85980953Y72557143D01*
X85980953Y72414286D01*
X85933334Y72319048D01*
X85885715Y72271429D01*
X85790477Y72223810D01*
X85409524Y72223810D01*
X86314286Y72747619D02*
X86933334Y72747619D01*
X86600000Y72366667D01*
X86742858Y72366667D01*
X86838096Y72319048D01*
X86885715Y72271429D01*
X86933334Y72176190D01*
X86933334Y71938095D01*
X86885715Y71842857D01*
X86838096Y71795238D01*
X86742858Y71747619D01*
X86457143Y71747619D01*
X86361905Y71795238D01*
X86314286Y71842857D01*
X87552381Y72747619D02*
X87647620Y72747619D01*
X87742858Y72700000D01*
X87790477Y72652381D01*
X87838096Y72557143D01*
X87885715Y72366667D01*
X87885715Y72128571D01*
X87838096Y71938095D01*
X87790477Y71842857D01*
X87742858Y71795238D01*
X87647620Y71747619D01*
X87552381Y71747619D01*
X87457143Y71795238D01*
X87409524Y71842857D01*
X87361905Y71938095D01*
X87314286Y72128571D01*
X87314286Y72366667D01*
X87361905Y72557143D01*
X87409524Y72652381D01*
X87457143Y72700000D01*
X87552381Y72747619D01*
X88790477Y72747619D02*
X88314286Y72747619D01*
X88266667Y72271429D01*
X88314286Y72319048D01*
X88409524Y72366667D01*
X88647620Y72366667D01*
X88742858Y72319048D01*
X88790477Y72271429D01*
X88838096Y72176190D01*
X88838096Y71938095D01*
X88790477Y71842857D01*
X88742858Y71795238D01*
X88647620Y71747619D01*
X88409524Y71747619D01*
X88314286Y71795238D01*
X88266667Y71842857D01*
X74280953Y65647619D02*
X73947619Y66123810D01*
X73709524Y65647619D02*
X73709524Y66647619D01*
X74090477Y66647619D01*
X74185715Y66600000D01*
X74233334Y66552381D01*
X74280953Y66457143D01*
X74280953Y66314286D01*
X74233334Y66219048D01*
X74185715Y66171429D01*
X74090477Y66123810D01*
X73709524Y66123810D01*
X74614286Y66647619D02*
X75233334Y66647619D01*
X74900000Y66266667D01*
X75042858Y66266667D01*
X75138096Y66219048D01*
X75185715Y66171429D01*
X75233334Y66076190D01*
X75233334Y65838095D01*
X75185715Y65742857D01*
X75138096Y65695238D01*
X75042858Y65647619D01*
X74757143Y65647619D01*
X74661905Y65695238D01*
X74614286Y65742857D01*
X75852381Y66647619D02*
X75947620Y66647619D01*
X76042858Y66600000D01*
X76090477Y66552381D01*
X76138096Y66457143D01*
X76185715Y66266667D01*
X76185715Y66028571D01*
X76138096Y65838095D01*
X76090477Y65742857D01*
X76042858Y65695238D01*
X75947620Y65647619D01*
X75852381Y65647619D01*
X75757143Y65695238D01*
X75709524Y65742857D01*
X75661905Y65838095D01*
X75614286Y66028571D01*
X75614286Y66266667D01*
X75661905Y66457143D01*
X75709524Y66552381D01*
X75757143Y66600000D01*
X75852381Y66647619D01*
X77042858Y66647619D02*
X76852381Y66647619D01*
X76757143Y66600000D01*
X76709524Y66552381D01*
X76614286Y66409524D01*
X76566667Y66219048D01*
X76566667Y65838095D01*
X76614286Y65742857D01*
X76661905Y65695238D01*
X76757143Y65647619D01*
X76947620Y65647619D01*
X77042858Y65695238D01*
X77090477Y65742857D01*
X77138096Y65838095D01*
X77138096Y66076190D01*
X77090477Y66171429D01*
X77042858Y66219048D01*
X76947620Y66266667D01*
X76757143Y66266667D01*
X76661905Y66219048D01*
X76614286Y66171429D01*
X76566667Y66076190D01*
X27880953Y41447619D02*
X27547619Y41923810D01*
X27309524Y41447619D02*
X27309524Y42447619D01*
X27690477Y42447619D01*
X27785715Y42400000D01*
X27833334Y42352381D01*
X27880953Y42257143D01*
X27880953Y42114286D01*
X27833334Y42019048D01*
X27785715Y41971429D01*
X27690477Y41923810D01*
X27309524Y41923810D01*
X28833334Y41447619D02*
X28261905Y41447619D01*
X28547619Y41447619D02*
X28547619Y42447619D01*
X28452381Y42304762D01*
X28357143Y42209524D01*
X28261905Y42161905D01*
X29452381Y42447619D02*
X29547620Y42447619D01*
X29642858Y42400000D01*
X29690477Y42352381D01*
X29738096Y42257143D01*
X29785715Y42066667D01*
X29785715Y41828571D01*
X29738096Y41638095D01*
X29690477Y41542857D01*
X29642858Y41495238D01*
X29547620Y41447619D01*
X29452381Y41447619D01*
X29357143Y41495238D01*
X29309524Y41542857D01*
X29261905Y41638095D01*
X29214286Y41828571D01*
X29214286Y42066667D01*
X29261905Y42257143D01*
X29309524Y42352381D01*
X29357143Y42400000D01*
X29452381Y42447619D01*
X30119048Y42447619D02*
X30738096Y42447619D01*
X30404762Y42066667D01*
X30547620Y42066667D01*
X30642858Y42019048D01*
X30690477Y41971429D01*
X30738096Y41876190D01*
X30738096Y41638095D01*
X30690477Y41542857D01*
X30642858Y41495238D01*
X30547620Y41447619D01*
X30261905Y41447619D01*
X30166667Y41495238D01*
X30119048Y41542857D01*
X32780953Y41547619D02*
X32447619Y42023810D01*
X32209524Y41547619D02*
X32209524Y42547619D01*
X32590477Y42547619D01*
X32685715Y42500000D01*
X32733334Y42452381D01*
X32780953Y42357143D01*
X32780953Y42214286D01*
X32733334Y42119048D01*
X32685715Y42071429D01*
X32590477Y42023810D01*
X32209524Y42023810D01*
X33733334Y41547619D02*
X33161905Y41547619D01*
X33447619Y41547619D02*
X33447619Y42547619D01*
X33352381Y42404762D01*
X33257143Y42309524D01*
X33161905Y42261905D01*
X34352381Y42547619D02*
X34447620Y42547619D01*
X34542858Y42500000D01*
X34590477Y42452381D01*
X34638096Y42357143D01*
X34685715Y42166667D01*
X34685715Y41928571D01*
X34638096Y41738095D01*
X34590477Y41642857D01*
X34542858Y41595238D01*
X34447620Y41547619D01*
X34352381Y41547619D01*
X34257143Y41595238D01*
X34209524Y41642857D01*
X34161905Y41738095D01*
X34114286Y41928571D01*
X34114286Y42166667D01*
X34161905Y42357143D01*
X34209524Y42452381D01*
X34257143Y42500000D01*
X34352381Y42547619D01*
X35542858Y42214286D02*
X35542858Y41547619D01*
X35304762Y42595238D02*
X35066667Y41880952D01*
X35685715Y41880952D01*
X24952381Y47452381D02*
X24857143Y47500000D01*
X24761905Y47595238D01*
X24619048Y47738095D01*
X24523809Y47785714D01*
X24428571Y47785714D01*
X24476190Y47547619D02*
X24380952Y47595238D01*
X24285714Y47690476D01*
X24238095Y47880952D01*
X24238095Y48214286D01*
X24285714Y48404762D01*
X24380952Y48500000D01*
X24476190Y48547619D01*
X24666667Y48547619D01*
X24761905Y48500000D01*
X24857143Y48404762D01*
X24904762Y48214286D01*
X24904762Y47880952D01*
X24857143Y47690476D01*
X24761905Y47595238D01*
X24666667Y47547619D01*
X24476190Y47547619D01*
X25857143Y47547619D02*
X25285714Y47547619D01*
X25571428Y47547619D02*
X25571428Y48547619D01*
X25476190Y48404762D01*
X25380952Y48309524D01*
X25285714Y48261905D01*
X26476190Y48547619D02*
X26571429Y48547619D01*
X26666667Y48500000D01*
X26714286Y48452381D01*
X26761905Y48357143D01*
X26809524Y48166667D01*
X26809524Y47928571D01*
X26761905Y47738095D01*
X26714286Y47642857D01*
X26666667Y47595238D01*
X26571429Y47547619D01*
X26476190Y47547619D01*
X26380952Y47595238D01*
X26333333Y47642857D01*
X26285714Y47738095D01*
X26238095Y47928571D01*
X26238095Y48166667D01*
X26285714Y48357143D01*
X26333333Y48452381D01*
X26380952Y48500000D01*
X26476190Y48547619D01*
X27761905Y47547619D02*
X27190476Y47547619D01*
X27476190Y47547619D02*
X27476190Y48547619D01*
X27380952Y48404762D01*
X27285714Y48309524D01*
X27190476Y48261905D01*
X37752381Y49352381D02*
X37657143Y49400000D01*
X37561905Y49495238D01*
X37419048Y49638095D01*
X37323809Y49685714D01*
X37228571Y49685714D01*
X37276190Y49447619D02*
X37180952Y49495238D01*
X37085714Y49590476D01*
X37038095Y49780952D01*
X37038095Y50114286D01*
X37085714Y50304762D01*
X37180952Y50400000D01*
X37276190Y50447619D01*
X37466667Y50447619D01*
X37561905Y50400000D01*
X37657143Y50304762D01*
X37704762Y50114286D01*
X37704762Y49780952D01*
X37657143Y49590476D01*
X37561905Y49495238D01*
X37466667Y49447619D01*
X37276190Y49447619D01*
X38657143Y49447619D02*
X38085714Y49447619D01*
X38371428Y49447619D02*
X38371428Y50447619D01*
X38276190Y50304762D01*
X38180952Y50209524D01*
X38085714Y50161905D01*
X39276190Y50447619D02*
X39371429Y50447619D01*
X39466667Y50400000D01*
X39514286Y50352381D01*
X39561905Y50257143D01*
X39609524Y50066667D01*
X39609524Y49828571D01*
X39561905Y49638095D01*
X39514286Y49542857D01*
X39466667Y49495238D01*
X39371429Y49447619D01*
X39276190Y49447619D01*
X39180952Y49495238D01*
X39133333Y49542857D01*
X39085714Y49638095D01*
X39038095Y49828571D01*
X39038095Y50066667D01*
X39085714Y50257143D01*
X39133333Y50352381D01*
X39180952Y50400000D01*
X39276190Y50447619D01*
X39990476Y50352381D02*
X40038095Y50400000D01*
X40133333Y50447619D01*
X40371429Y50447619D01*
X40466667Y50400000D01*
X40514286Y50352381D01*
X40561905Y50257143D01*
X40561905Y50161905D01*
X40514286Y50019048D01*
X39942857Y49447619D01*
X40561905Y49447619D01*
M02*
